%FSLAX45Y45*%
G04 Gerber Fmt 4.5, Leading zero omitted, Abs format (unit mm)*
G04 Created by KiCad (PCBNEW (6.0.4)) date 2022-04-18 10:49:24*
%MOMM*%
%LPD*%
G01*
G04 APERTURE LIST*
%TA.AperFunction,Profile*%
%ADD10C,0.100000*%
%TD*%
%ADD11C,0.200000*%
G04 APERTURE END LIST*
D10*
X11049000Y-6477000D02*
X14732000Y-6477000D01*
X14732000Y-6477000D02*
X14732000Y-11938000D01*
X14732000Y-11938000D02*
X11049000Y-11938000D01*
X11049000Y-11938000D02*
X11049000Y-6477000D01*
X14605000Y-11684000D02*
G75*
G03*
X14605000Y-11684000I-127000J0D01*
G01*
X14605000Y-6731000D02*
G75*
G03*
X14605000Y-6731000I-127000J0D01*
G01*
X11430000Y-6731000D02*
G75*
G03*
X11430000Y-6731000I-127000J0D01*
G01*
X11430000Y-11684000D02*
G75*
G03*
X11430000Y-11684000I-127000J0D01*
G01*
D11*
X11301619Y-12253476D02*
X11301619Y-12053476D01*
X11349238Y-12053476D01*
X11377809Y-12063000D01*
X11396857Y-12082048D01*
X11406381Y-12101095D01*
X11415905Y-12139190D01*
X11415905Y-12167762D01*
X11406381Y-12205857D01*
X11396857Y-12224905D01*
X11377809Y-12243952D01*
X11349238Y-12253476D01*
X11301619Y-12253476D01*
X11501619Y-12253476D02*
X11501619Y-12120143D01*
X11501619Y-12158238D02*
X11511143Y-12139190D01*
X11520667Y-12129667D01*
X11539714Y-12120143D01*
X11558762Y-12120143D01*
X11625428Y-12253476D02*
X11625428Y-12120143D01*
X11625428Y-12053476D02*
X11615905Y-12063000D01*
X11625428Y-12072524D01*
X11634952Y-12063000D01*
X11625428Y-12053476D01*
X11625428Y-12072524D01*
X11749238Y-12253476D02*
X11730190Y-12243952D01*
X11720667Y-12224905D01*
X11720667Y-12053476D01*
X11854000Y-12253476D02*
X11834952Y-12243952D01*
X11825428Y-12224905D01*
X11825428Y-12053476D01*
X12082571Y-12253476D02*
X12082571Y-12053476D01*
X12149238Y-12196333D01*
X12215905Y-12053476D01*
X12215905Y-12253476D01*
X12396857Y-12253476D02*
X12396857Y-12148714D01*
X12387333Y-12129667D01*
X12368286Y-12120143D01*
X12330190Y-12120143D01*
X12311143Y-12129667D01*
X12396857Y-12243952D02*
X12377809Y-12253476D01*
X12330190Y-12253476D01*
X12311143Y-12243952D01*
X12301619Y-12224905D01*
X12301619Y-12205857D01*
X12311143Y-12186809D01*
X12330190Y-12177286D01*
X12377809Y-12177286D01*
X12396857Y-12167762D01*
X12492095Y-12120143D02*
X12492095Y-12320143D01*
X12492095Y-12129667D02*
X12511143Y-12120143D01*
X12549238Y-12120143D01*
X12568286Y-12129667D01*
X12577809Y-12139190D01*
X12587333Y-12158238D01*
X12587333Y-12215381D01*
X12577809Y-12234428D01*
X12568286Y-12243952D01*
X12549238Y-12253476D01*
X12511143Y-12253476D01*
X12492095Y-12243952D01*
X12673048Y-12234428D02*
X12682571Y-12243952D01*
X12673048Y-12253476D01*
X12663524Y-12243952D01*
X12673048Y-12234428D01*
X12673048Y-12253476D01*
X12673048Y-12129667D02*
X12682571Y-12139190D01*
X12673048Y-12148714D01*
X12663524Y-12139190D01*
X12673048Y-12129667D01*
X12673048Y-12148714D01*
M02*
