%TF.GenerationSoftware,KiCad,Pcbnew,(6.0.4)*%
%TF.CreationDate,2022-04-18T10:48:46-05:00*%
%TF.ProjectId,broken-heart,62726f6b-656e-42d6-9865-6172742e6b69,rev?*%
%TF.SameCoordinates,Original*%
%TF.FileFunction,Soldermask,Top*%
%TF.FilePolarity,Negative*%
%FSLAX46Y46*%
G04 Gerber Fmt 4.6, Leading zero omitted, Abs format (unit mm)*
G04 Created by KiCad (PCBNEW (6.0.4)) date 2022-04-18 10:48:46*
%MOMM*%
%LPD*%
G01*
G04 APERTURE LIST*
G04 Aperture macros list*
%AMRoundRect*
0 Rectangle with rounded corners*
0 $1 Rounding radius*
0 $2 $3 $4 $5 $6 $7 $8 $9 X,Y pos of 4 corners*
0 Add a 4 corners polygon primitive as box body*
4,1,4,$2,$3,$4,$5,$6,$7,$8,$9,$2,$3,0*
0 Add four circle primitives for the rounded corners*
1,1,$1+$1,$2,$3*
1,1,$1+$1,$4,$5*
1,1,$1+$1,$6,$7*
1,1,$1+$1,$8,$9*
0 Add four rect primitives between the rounded corners*
20,1,$1+$1,$2,$3,$4,$5,0*
20,1,$1+$1,$4,$5,$6,$7,0*
20,1,$1+$1,$6,$7,$8,$9,0*
20,1,$1+$1,$8,$9,$2,$3,0*%
G04 Aperture macros list end*
%ADD10C,1.600000*%
%ADD11O,1.600000X1.600000*%
%ADD12RoundRect,0.250000X-0.620000X-0.845000X0.620000X-0.845000X0.620000X0.845000X-0.620000X0.845000X0*%
%ADD13O,1.740000X2.190000*%
%ADD14C,1.524000*%
%ADD15R,1.600000X1.600000*%
%ADD16R,1.800000X1.800000*%
%ADD17C,1.800000*%
%ADD18R,3.000000X3.000000*%
%ADD19C,3.000000*%
G04 APERTURE END LIST*
D10*
X132080000Y-86360000D03*
D11*
X132080000Y-96520000D03*
D12*
X137160000Y-109220000D03*
D13*
X139700000Y-109220000D03*
X142240000Y-109220000D03*
D14*
X113165000Y-75835000D03*
X113165000Y-78375000D03*
X113165000Y-80915000D03*
X113165000Y-83455000D03*
X113165000Y-85995000D03*
X113165000Y-88535000D03*
X113165000Y-91075000D03*
X113165000Y-93615000D03*
X113165000Y-96155000D03*
X113165000Y-98695000D03*
X113165000Y-101235000D03*
X113165000Y-103775000D03*
X113165000Y-106315000D03*
X113165000Y-108855000D03*
X128405000Y-108855000D03*
X128405000Y-106315000D03*
X128405000Y-103775000D03*
X128405000Y-101235000D03*
X128405000Y-98695000D03*
X128405000Y-96155000D03*
X128405000Y-93615000D03*
X128405000Y-91075000D03*
X128405000Y-88535000D03*
X128405000Y-85995000D03*
X128405000Y-83455000D03*
X128405000Y-80915000D03*
X128405000Y-78375000D03*
X128405000Y-75835000D03*
D15*
X135900000Y-86355000D03*
D11*
X135900000Y-88895000D03*
X135900000Y-91435000D03*
X135900000Y-93975000D03*
X135900000Y-96515000D03*
X135900000Y-99055000D03*
X135900000Y-101595000D03*
X143520000Y-101595000D03*
X143520000Y-99055000D03*
X143520000Y-96515000D03*
X143520000Y-93975000D03*
X143520000Y-91435000D03*
X143520000Y-88895000D03*
X143520000Y-86355000D03*
D16*
X133350000Y-109220000D03*
D17*
X130810000Y-109220000D03*
D18*
X139700000Y-78740000D03*
D19*
X139700000Y-73660000D03*
M02*
