M48
; DRILL file {KiCad (6.0.4)} date Mon Apr 18 10:49:20 2022
; FORMAT={-:-/ absolute / metric / decimal}
; #@! TF.CreationDate,2022-04-18T10:49:20-05:00
; #@! TF.GenerationSoftware,Kicad,Pcbnew,(6.0.4)
; #@! TF.FileFunction,Plated,1,2,PTH
FMAT,2
METRIC
; #@! TA.AperFunction,Plated,PTH,ComponentDrill
T1C0.762
; #@! TA.AperFunction,Plated,PTH,ComponentDrill
T2C0.800
; #@! TA.AperFunction,Plated,PTH,ComponentDrill
T3C0.900
; #@! TA.AperFunction,Plated,PTH,ComponentDrill
T4C1.190
; #@! TA.AperFunction,Plated,PTH,ComponentDrill
T5C1.520
%
G90
G05
T1
X113.165Y-75.835
X113.165Y-78.375
X113.165Y-80.915
X113.165Y-83.455
X113.165Y-85.995
X113.165Y-88.535
X113.165Y-91.075
X113.165Y-93.615
X113.165Y-96.155
X113.165Y-98.695
X113.165Y-101.235
X113.165Y-103.775
X113.165Y-106.315
X113.165Y-108.855
X128.405Y-75.835
X128.405Y-78.375
X128.405Y-80.915
X128.405Y-83.455
X128.405Y-85.995
X128.405Y-88.535
X128.405Y-91.075
X128.405Y-93.615
X128.405Y-96.155
X128.405Y-98.695
X128.405Y-101.235
X128.405Y-103.775
X128.405Y-106.315
X128.405Y-108.855
T2
X132.08Y-86.36
X132.08Y-96.52
X135.9Y-86.355
X135.9Y-88.895
X135.9Y-91.435
X135.9Y-93.975
X135.9Y-96.515
X135.9Y-99.055
X135.9Y-101.595
X143.52Y-86.355
X143.52Y-88.895
X143.52Y-91.435
X143.52Y-93.975
X143.52Y-96.515
X143.52Y-99.055
X143.52Y-101.595
T3
X130.81Y-109.22
X133.35Y-109.22
T4
X137.16Y-109.22
X139.7Y-109.22
X142.24Y-109.22
T5
X139.7Y-73.66
X139.7Y-78.74
T0
M30
