%TF.GenerationSoftware,KiCad,Pcbnew,(6.0.4)*%
%TF.CreationDate,2022-04-18T10:48:46-05:00*%
%TF.ProjectId,broken-heart,62726f6b-656e-42d6-9865-6172742e6b69,rev?*%
%TF.SameCoordinates,Original*%
%TF.FileFunction,Copper,L2,Bot*%
%TF.FilePolarity,Positive*%
%FSLAX46Y46*%
G04 Gerber Fmt 4.6, Leading zero omitted, Abs format (unit mm)*
G04 Created by KiCad (PCBNEW (6.0.4)) date 2022-04-18 10:48:46*
%MOMM*%
%LPD*%
G01*
G04 APERTURE LIST*
G04 Aperture macros list*
%AMRoundRect*
0 Rectangle with rounded corners*
0 $1 Rounding radius*
0 $2 $3 $4 $5 $6 $7 $8 $9 X,Y pos of 4 corners*
0 Add a 4 corners polygon primitive as box body*
4,1,4,$2,$3,$4,$5,$6,$7,$8,$9,$2,$3,0*
0 Add four circle primitives for the rounded corners*
1,1,$1+$1,$2,$3*
1,1,$1+$1,$4,$5*
1,1,$1+$1,$6,$7*
1,1,$1+$1,$8,$9*
0 Add four rect primitives between the rounded corners*
20,1,$1+$1,$2,$3,$4,$5,0*
20,1,$1+$1,$4,$5,$6,$7,0*
20,1,$1+$1,$6,$7,$8,$9,0*
20,1,$1+$1,$8,$9,$2,$3,0*%
G04 Aperture macros list end*
%TA.AperFunction,ComponentPad*%
%ADD10C,1.600000*%
%TD*%
%TA.AperFunction,ComponentPad*%
%ADD11O,1.600000X1.600000*%
%TD*%
%TA.AperFunction,ComponentPad*%
%ADD12RoundRect,0.250000X-0.620000X-0.845000X0.620000X-0.845000X0.620000X0.845000X-0.620000X0.845000X0*%
%TD*%
%TA.AperFunction,ComponentPad*%
%ADD13O,1.740000X2.190000*%
%TD*%
%TA.AperFunction,ComponentPad*%
%ADD14C,1.524000*%
%TD*%
%TA.AperFunction,ComponentPad*%
%ADD15R,1.600000X1.600000*%
%TD*%
%TA.AperFunction,ComponentPad*%
%ADD16R,1.800000X1.800000*%
%TD*%
%TA.AperFunction,ComponentPad*%
%ADD17C,1.800000*%
%TD*%
%TA.AperFunction,ComponentPad*%
%ADD18R,3.000000X3.000000*%
%TD*%
%TA.AperFunction,ComponentPad*%
%ADD19C,3.000000*%
%TD*%
%TA.AperFunction,Conductor*%
%ADD20C,0.250000*%
%TD*%
G04 APERTURE END LIST*
D10*
X132080000Y-86360000D03*
D11*
X132080000Y-96520000D03*
D12*
X137160000Y-109220000D03*
D13*
X139700000Y-109220000D03*
X142240000Y-109220000D03*
D14*
X113165000Y-75835000D03*
X113165000Y-78375000D03*
X113165000Y-80915000D03*
X113165000Y-83455000D03*
X113165000Y-85995000D03*
X113165000Y-88535000D03*
X113165000Y-91075000D03*
X113165000Y-93615000D03*
X113165000Y-96155000D03*
X113165000Y-98695000D03*
X113165000Y-101235000D03*
X113165000Y-103775000D03*
X113165000Y-106315000D03*
X113165000Y-108855000D03*
X128405000Y-108855000D03*
X128405000Y-106315000D03*
X128405000Y-103775000D03*
X128405000Y-101235000D03*
X128405000Y-98695000D03*
X128405000Y-96155000D03*
X128405000Y-93615000D03*
X128405000Y-91075000D03*
X128405000Y-88535000D03*
X128405000Y-85995000D03*
X128405000Y-83455000D03*
X128405000Y-80915000D03*
X128405000Y-78375000D03*
X128405000Y-75835000D03*
D15*
X135900000Y-86355000D03*
D11*
X135900000Y-88895000D03*
X135900000Y-91435000D03*
X135900000Y-93975000D03*
X135900000Y-96515000D03*
X135900000Y-99055000D03*
X135900000Y-101595000D03*
X143520000Y-101595000D03*
X143520000Y-99055000D03*
X143520000Y-96515000D03*
X143520000Y-93975000D03*
X143520000Y-91435000D03*
X143520000Y-88895000D03*
X143520000Y-86355000D03*
D16*
X133350000Y-109220000D03*
D17*
X130810000Y-109220000D03*
D18*
X139700000Y-78740000D03*
D19*
X139700000Y-73660000D03*
D20*
X130810000Y-109220000D02*
X130810000Y-97790000D01*
X130810000Y-97790000D02*
X132080000Y-96520000D01*
X127000000Y-83323440D02*
X127000000Y-97290000D01*
X128270000Y-82053440D02*
X127000000Y-83323440D01*
X127000000Y-97290000D02*
X128405000Y-98695000D01*
X139700000Y-73660000D02*
X131306560Y-82053440D01*
X131306560Y-82053440D02*
X128270000Y-82053440D01*
%TA.AperFunction,Conductor*%
G36*
X145992121Y-69870002D02*
G01*
X146038614Y-69923658D01*
X146050000Y-69976000D01*
X146050000Y-114174000D01*
X146029998Y-114242121D01*
X145976342Y-114288614D01*
X145924000Y-114300000D01*
X111886000Y-114300000D01*
X111817879Y-114279998D01*
X111771386Y-114226342D01*
X111760000Y-114174000D01*
X111760000Y-109416576D01*
X111780002Y-109348455D01*
X111833658Y-109301962D01*
X111903932Y-109291858D01*
X111968512Y-109321352D01*
X112000195Y-109363326D01*
X112058186Y-109487689D01*
X112058189Y-109487694D01*
X112060512Y-109492676D01*
X112063668Y-109497183D01*
X112063669Y-109497185D01*
X112118294Y-109575197D01*
X112188023Y-109674781D01*
X112345219Y-109831977D01*
X112349727Y-109835134D01*
X112349730Y-109835136D01*
X112374457Y-109852450D01*
X112527323Y-109959488D01*
X112532305Y-109961811D01*
X112532310Y-109961814D01*
X112722109Y-110050318D01*
X112728804Y-110053440D01*
X112734112Y-110054862D01*
X112734114Y-110054863D01*
X112748143Y-110058622D01*
X112943537Y-110110978D01*
X113165000Y-110130353D01*
X113386463Y-110110978D01*
X113581857Y-110058622D01*
X113595886Y-110054863D01*
X113595888Y-110054862D01*
X113601196Y-110053440D01*
X113607891Y-110050318D01*
X113797690Y-109961814D01*
X113797695Y-109961811D01*
X113802677Y-109959488D01*
X113955543Y-109852450D01*
X113980270Y-109835136D01*
X113980273Y-109835134D01*
X113984781Y-109831977D01*
X114141977Y-109674781D01*
X114211707Y-109575197D01*
X114266331Y-109497185D01*
X114266332Y-109497183D01*
X114269488Y-109492676D01*
X114271811Y-109487694D01*
X114271814Y-109487689D01*
X114361117Y-109296178D01*
X114361118Y-109296177D01*
X114363440Y-109291196D01*
X114420978Y-109076463D01*
X114440353Y-108855000D01*
X114420978Y-108633537D01*
X114363440Y-108418804D01*
X114361117Y-108413822D01*
X114271814Y-108222311D01*
X114271811Y-108222306D01*
X114269488Y-108217324D01*
X114265330Y-108211386D01*
X114145136Y-108039730D01*
X114145134Y-108039727D01*
X114141977Y-108035219D01*
X113984781Y-107878023D01*
X113980273Y-107874866D01*
X113980270Y-107874864D01*
X113898867Y-107817865D01*
X113802677Y-107750512D01*
X113797695Y-107748189D01*
X113797690Y-107748186D01*
X113692627Y-107699195D01*
X113639342Y-107652278D01*
X113619881Y-107584001D01*
X113640423Y-107516041D01*
X113692627Y-107470805D01*
X113797690Y-107421814D01*
X113797695Y-107421811D01*
X113802677Y-107419488D01*
X113904505Y-107348187D01*
X113980270Y-107295136D01*
X113980273Y-107295134D01*
X113984781Y-107291977D01*
X114141977Y-107134781D01*
X114269488Y-106952676D01*
X114271811Y-106947694D01*
X114271814Y-106947689D01*
X114361117Y-106756178D01*
X114361118Y-106756177D01*
X114363440Y-106751196D01*
X114420978Y-106536463D01*
X114440353Y-106315000D01*
X114420978Y-106093537D01*
X114363440Y-105878804D01*
X114361117Y-105873822D01*
X114271814Y-105682311D01*
X114271811Y-105682306D01*
X114269488Y-105677324D01*
X114141977Y-105495219D01*
X113984781Y-105338023D01*
X113980273Y-105334866D01*
X113980270Y-105334864D01*
X113904505Y-105281813D01*
X113802677Y-105210512D01*
X113797695Y-105208189D01*
X113797690Y-105208186D01*
X113692627Y-105159195D01*
X113639342Y-105112278D01*
X113619881Y-105044001D01*
X113640423Y-104976041D01*
X113692627Y-104930805D01*
X113797690Y-104881814D01*
X113797695Y-104881811D01*
X113802677Y-104879488D01*
X113904505Y-104808187D01*
X113980270Y-104755136D01*
X113980273Y-104755134D01*
X113984781Y-104751977D01*
X114141977Y-104594781D01*
X114269488Y-104412676D01*
X114271811Y-104407694D01*
X114271814Y-104407689D01*
X114361117Y-104216178D01*
X114361118Y-104216177D01*
X114363440Y-104211196D01*
X114420978Y-103996463D01*
X114440353Y-103775000D01*
X114420978Y-103553537D01*
X114363440Y-103338804D01*
X114361117Y-103333822D01*
X114271814Y-103142311D01*
X114271811Y-103142306D01*
X114269488Y-103137324D01*
X114141977Y-102955219D01*
X113984781Y-102798023D01*
X113980273Y-102794866D01*
X113980270Y-102794864D01*
X113886729Y-102729366D01*
X113802677Y-102670512D01*
X113797695Y-102668189D01*
X113797690Y-102668186D01*
X113692627Y-102619195D01*
X113639342Y-102572278D01*
X113619881Y-102504001D01*
X113640423Y-102436041D01*
X113692627Y-102390805D01*
X113797690Y-102341814D01*
X113797695Y-102341811D01*
X113802677Y-102339488D01*
X113935103Y-102246762D01*
X113980270Y-102215136D01*
X113980273Y-102215134D01*
X113984781Y-102211977D01*
X114141977Y-102054781D01*
X114145868Y-102049225D01*
X114266331Y-101877185D01*
X114266332Y-101877183D01*
X114269488Y-101872676D01*
X114271811Y-101867694D01*
X114271814Y-101867689D01*
X114361117Y-101676178D01*
X114361118Y-101676177D01*
X114363440Y-101671196D01*
X114420978Y-101456463D01*
X114440353Y-101235000D01*
X114420978Y-101013537D01*
X114363440Y-100798804D01*
X114361117Y-100793822D01*
X114271814Y-100602311D01*
X114271811Y-100602306D01*
X114269488Y-100597324D01*
X114173777Y-100460634D01*
X114145136Y-100419730D01*
X114145134Y-100419727D01*
X114141977Y-100415219D01*
X113984781Y-100258023D01*
X113980273Y-100254866D01*
X113980270Y-100254864D01*
X113886729Y-100189366D01*
X113802677Y-100130512D01*
X113797695Y-100128189D01*
X113797690Y-100128186D01*
X113692627Y-100079195D01*
X113639342Y-100032278D01*
X113619881Y-99964001D01*
X113640423Y-99896041D01*
X113692627Y-99850805D01*
X113797690Y-99801814D01*
X113797695Y-99801811D01*
X113802677Y-99799488D01*
X113935103Y-99706762D01*
X113980270Y-99675136D01*
X113980273Y-99675134D01*
X113984781Y-99671977D01*
X114141977Y-99514781D01*
X114145868Y-99509225D01*
X114266331Y-99337185D01*
X114266332Y-99337183D01*
X114269488Y-99332676D01*
X114271811Y-99327694D01*
X114271814Y-99327689D01*
X114361117Y-99136178D01*
X114361118Y-99136177D01*
X114363440Y-99131196D01*
X114420978Y-98916463D01*
X114440353Y-98695000D01*
X114420978Y-98473537D01*
X114363440Y-98258804D01*
X114361117Y-98253822D01*
X114271814Y-98062311D01*
X114271811Y-98062306D01*
X114269488Y-98057324D01*
X114173777Y-97920634D01*
X114145136Y-97879730D01*
X114145134Y-97879727D01*
X114141977Y-97875219D01*
X113984781Y-97718023D01*
X113980273Y-97714866D01*
X113980270Y-97714864D01*
X113870771Y-97638192D01*
X113802677Y-97590512D01*
X113797695Y-97588189D01*
X113797690Y-97588186D01*
X113692627Y-97539195D01*
X113639342Y-97492278D01*
X113619881Y-97424001D01*
X113640423Y-97356041D01*
X113692627Y-97310805D01*
X113797690Y-97261814D01*
X113797695Y-97261811D01*
X113802677Y-97259488D01*
X113935103Y-97166762D01*
X113980270Y-97135136D01*
X113980273Y-97135134D01*
X113984781Y-97131977D01*
X114141977Y-96974781D01*
X114145868Y-96969225D01*
X114266331Y-96797185D01*
X114266332Y-96797183D01*
X114269488Y-96792676D01*
X114271811Y-96787694D01*
X114271814Y-96787689D01*
X114361117Y-96596178D01*
X114361118Y-96596177D01*
X114363440Y-96591196D01*
X114420978Y-96376463D01*
X114440353Y-96155000D01*
X114420978Y-95933537D01*
X114363440Y-95718804D01*
X114361117Y-95713822D01*
X114271814Y-95522311D01*
X114271811Y-95522306D01*
X114269488Y-95517324D01*
X114177278Y-95385634D01*
X114145136Y-95339730D01*
X114145134Y-95339727D01*
X114141977Y-95335219D01*
X113984781Y-95178023D01*
X113980273Y-95174866D01*
X113980270Y-95174864D01*
X113886729Y-95109366D01*
X113802677Y-95050512D01*
X113797695Y-95048189D01*
X113797690Y-95048186D01*
X113692627Y-94999195D01*
X113639342Y-94952278D01*
X113619881Y-94884001D01*
X113640423Y-94816041D01*
X113692627Y-94770805D01*
X113797690Y-94721814D01*
X113797695Y-94721811D01*
X113802677Y-94719488D01*
X113936500Y-94625784D01*
X113980270Y-94595136D01*
X113980273Y-94595134D01*
X113984781Y-94591977D01*
X114141977Y-94434781D01*
X114145868Y-94429225D01*
X114266331Y-94257185D01*
X114266332Y-94257183D01*
X114269488Y-94252676D01*
X114271811Y-94247694D01*
X114271814Y-94247689D01*
X114361117Y-94056178D01*
X114361118Y-94056177D01*
X114363440Y-94051196D01*
X114420978Y-93836463D01*
X114440353Y-93615000D01*
X114420978Y-93393537D01*
X114363440Y-93178804D01*
X114361117Y-93173822D01*
X114271814Y-92982311D01*
X114271811Y-92982306D01*
X114269488Y-92977324D01*
X114173777Y-92840634D01*
X114145136Y-92799730D01*
X114145134Y-92799727D01*
X114141977Y-92795219D01*
X113984781Y-92638023D01*
X113980273Y-92634866D01*
X113980270Y-92634864D01*
X113886729Y-92569366D01*
X113802677Y-92510512D01*
X113797695Y-92508189D01*
X113797690Y-92508186D01*
X113692627Y-92459195D01*
X113639342Y-92412278D01*
X113619881Y-92344001D01*
X113640423Y-92276041D01*
X113692627Y-92230805D01*
X113797690Y-92181814D01*
X113797695Y-92181811D01*
X113802677Y-92179488D01*
X113936500Y-92085784D01*
X113980270Y-92055136D01*
X113980273Y-92055134D01*
X113984781Y-92051977D01*
X114141977Y-91894781D01*
X114145868Y-91889225D01*
X114266331Y-91717185D01*
X114266332Y-91717183D01*
X114269488Y-91712676D01*
X114271811Y-91707694D01*
X114271814Y-91707689D01*
X114361117Y-91516178D01*
X114361118Y-91516177D01*
X114363440Y-91511196D01*
X114420978Y-91296463D01*
X114440353Y-91075000D01*
X114420978Y-90853537D01*
X114363440Y-90638804D01*
X114361117Y-90633822D01*
X114271814Y-90442311D01*
X114271811Y-90442306D01*
X114269488Y-90437324D01*
X114173777Y-90300634D01*
X114145136Y-90259730D01*
X114145134Y-90259727D01*
X114141977Y-90255219D01*
X113984781Y-90098023D01*
X113980273Y-90094866D01*
X113980270Y-90094864D01*
X113886729Y-90029366D01*
X113802677Y-89970512D01*
X113797695Y-89968189D01*
X113797690Y-89968186D01*
X113692627Y-89919195D01*
X113639342Y-89872278D01*
X113619881Y-89804001D01*
X113640423Y-89736041D01*
X113692627Y-89690805D01*
X113797690Y-89641814D01*
X113797695Y-89641811D01*
X113802677Y-89639488D01*
X113936500Y-89545784D01*
X113980270Y-89515136D01*
X113980273Y-89515134D01*
X113984781Y-89511977D01*
X114141977Y-89354781D01*
X114145868Y-89349225D01*
X114266331Y-89177185D01*
X114266332Y-89177183D01*
X114269488Y-89172676D01*
X114271811Y-89167694D01*
X114271814Y-89167689D01*
X114361117Y-88976178D01*
X114361118Y-88976177D01*
X114363440Y-88971196D01*
X114420978Y-88756463D01*
X114440353Y-88535000D01*
X114420978Y-88313537D01*
X114363440Y-88098804D01*
X114361117Y-88093822D01*
X114271814Y-87902311D01*
X114271811Y-87902306D01*
X114269488Y-87897324D01*
X114261309Y-87885643D01*
X114145136Y-87719730D01*
X114145134Y-87719727D01*
X114141977Y-87715219D01*
X113984781Y-87558023D01*
X113980273Y-87554866D01*
X113980270Y-87554864D01*
X113886108Y-87488931D01*
X113802677Y-87430512D01*
X113797695Y-87428189D01*
X113797690Y-87428186D01*
X113692035Y-87378919D01*
X113638750Y-87332002D01*
X113619289Y-87263725D01*
X113639831Y-87195765D01*
X113692035Y-87150529D01*
X113797445Y-87101376D01*
X113806931Y-87095898D01*
X113850764Y-87065207D01*
X113859139Y-87054729D01*
X113852071Y-87041281D01*
X113177812Y-86367022D01*
X113163868Y-86359408D01*
X113162035Y-86359539D01*
X113155420Y-86363790D01*
X112477207Y-87042003D01*
X112470777Y-87053777D01*
X112480074Y-87065793D01*
X112523069Y-87095898D01*
X112532555Y-87101376D01*
X112637965Y-87150529D01*
X112691250Y-87197446D01*
X112710711Y-87265723D01*
X112690169Y-87333683D01*
X112637965Y-87378919D01*
X112532311Y-87428186D01*
X112532306Y-87428189D01*
X112527324Y-87430512D01*
X112522817Y-87433668D01*
X112522815Y-87433669D01*
X112349730Y-87554864D01*
X112349727Y-87554866D01*
X112345219Y-87558023D01*
X112188023Y-87715219D01*
X112184866Y-87719727D01*
X112184864Y-87719730D01*
X112068691Y-87885643D01*
X112060512Y-87897324D01*
X112058189Y-87902306D01*
X112058186Y-87902311D01*
X112000195Y-88026674D01*
X111953278Y-88079959D01*
X111885000Y-88099420D01*
X111817040Y-88078878D01*
X111770975Y-88024855D01*
X111760000Y-87973424D01*
X111760000Y-86555393D01*
X111780002Y-86487272D01*
X111833658Y-86440779D01*
X111903932Y-86430675D01*
X111968512Y-86460169D01*
X112000195Y-86502143D01*
X112058623Y-86627441D01*
X112064103Y-86636932D01*
X112094794Y-86680765D01*
X112105271Y-86689140D01*
X112118718Y-86682072D01*
X112792978Y-86007812D01*
X112799356Y-85996132D01*
X113529408Y-85996132D01*
X113529539Y-85997965D01*
X113533790Y-86004580D01*
X114212003Y-86682793D01*
X114223777Y-86689223D01*
X114235793Y-86679926D01*
X114265897Y-86636932D01*
X114271377Y-86627441D01*
X114360645Y-86436007D01*
X114364391Y-86425715D01*
X114419059Y-86221691D01*
X114420962Y-86210896D01*
X114439372Y-86000475D01*
X114439372Y-85989525D01*
X114420962Y-85779104D01*
X114419059Y-85768309D01*
X114364391Y-85564285D01*
X114360645Y-85553993D01*
X114271377Y-85362559D01*
X114265897Y-85353068D01*
X114235206Y-85309235D01*
X114224729Y-85300860D01*
X114211282Y-85307928D01*
X113537022Y-85982188D01*
X113529408Y-85996132D01*
X112799356Y-85996132D01*
X112800592Y-85993868D01*
X112800461Y-85992035D01*
X112796210Y-85985420D01*
X112117997Y-85307207D01*
X112106223Y-85300777D01*
X112094207Y-85310074D01*
X112064103Y-85353068D01*
X112058623Y-85362559D01*
X112000195Y-85487857D01*
X111953277Y-85541142D01*
X111885000Y-85560603D01*
X111817040Y-85540061D01*
X111770975Y-85486038D01*
X111760000Y-85434607D01*
X111760000Y-84016576D01*
X111780002Y-83948455D01*
X111833658Y-83901962D01*
X111903932Y-83891858D01*
X111968512Y-83921352D01*
X112000195Y-83963326D01*
X112058186Y-84087689D01*
X112058189Y-84087694D01*
X112060512Y-84092676D01*
X112188023Y-84274781D01*
X112345219Y-84431977D01*
X112349727Y-84435134D01*
X112349730Y-84435136D01*
X112393500Y-84465784D01*
X112527323Y-84559488D01*
X112532305Y-84561811D01*
X112532310Y-84561814D01*
X112637965Y-84611081D01*
X112691250Y-84657998D01*
X112710711Y-84726275D01*
X112690169Y-84794235D01*
X112637965Y-84839471D01*
X112532559Y-84888623D01*
X112523068Y-84894103D01*
X112479235Y-84924794D01*
X112470860Y-84935271D01*
X112477928Y-84948718D01*
X113152188Y-85622978D01*
X113166132Y-85630592D01*
X113167965Y-85630461D01*
X113174580Y-85626210D01*
X113852793Y-84947997D01*
X113859223Y-84936223D01*
X113849926Y-84924207D01*
X113806931Y-84894102D01*
X113797445Y-84888624D01*
X113692035Y-84839471D01*
X113638750Y-84792554D01*
X113619289Y-84724277D01*
X113639831Y-84656317D01*
X113692035Y-84611081D01*
X113797690Y-84561814D01*
X113797695Y-84561811D01*
X113802677Y-84559488D01*
X113936500Y-84465784D01*
X113980270Y-84435136D01*
X113980273Y-84435134D01*
X113984781Y-84431977D01*
X114141977Y-84274781D01*
X114269488Y-84092676D01*
X114271811Y-84087694D01*
X114271814Y-84087689D01*
X114361117Y-83896178D01*
X114361118Y-83896177D01*
X114363440Y-83891196D01*
X114420978Y-83676463D01*
X114440353Y-83455000D01*
X114427089Y-83303383D01*
X126361780Y-83303383D01*
X126362526Y-83311275D01*
X126365941Y-83347401D01*
X126366500Y-83359259D01*
X126366500Y-97211233D01*
X126365973Y-97222416D01*
X126364298Y-97229909D01*
X126364547Y-97237835D01*
X126364547Y-97237836D01*
X126366438Y-97297986D01*
X126366500Y-97301945D01*
X126366500Y-97329856D01*
X126366997Y-97333790D01*
X126366997Y-97333791D01*
X126367005Y-97333856D01*
X126367938Y-97345693D01*
X126369327Y-97389889D01*
X126374850Y-97408900D01*
X126374978Y-97409339D01*
X126378987Y-97428700D01*
X126381526Y-97448797D01*
X126384445Y-97456168D01*
X126384445Y-97456170D01*
X126397804Y-97489912D01*
X126401649Y-97501142D01*
X126408928Y-97526198D01*
X126413982Y-97543593D01*
X126418015Y-97550412D01*
X126418017Y-97550417D01*
X126424293Y-97561028D01*
X126432988Y-97578776D01*
X126440448Y-97597617D01*
X126445110Y-97604033D01*
X126445110Y-97604034D01*
X126466436Y-97633387D01*
X126472952Y-97643307D01*
X126489215Y-97670805D01*
X126495458Y-97681362D01*
X126509779Y-97695683D01*
X126522619Y-97710716D01*
X126534528Y-97727107D01*
X126540634Y-97732158D01*
X126568605Y-97755298D01*
X126577384Y-97763288D01*
X127126874Y-98312778D01*
X127160900Y-98375090D01*
X127159486Y-98434484D01*
X127149022Y-98473537D01*
X127129647Y-98695000D01*
X127149022Y-98916463D01*
X127206560Y-99131196D01*
X127208882Y-99136177D01*
X127208883Y-99136178D01*
X127298186Y-99327689D01*
X127298189Y-99327694D01*
X127300512Y-99332676D01*
X127303668Y-99337183D01*
X127303669Y-99337185D01*
X127424133Y-99509225D01*
X127428023Y-99514781D01*
X127585219Y-99671977D01*
X127589727Y-99675134D01*
X127589730Y-99675136D01*
X127634897Y-99706762D01*
X127767323Y-99799488D01*
X127772305Y-99801811D01*
X127772310Y-99801814D01*
X127877373Y-99850805D01*
X127930658Y-99897722D01*
X127950119Y-99965999D01*
X127929577Y-100033959D01*
X127877373Y-100079195D01*
X127772311Y-100128186D01*
X127772306Y-100128189D01*
X127767324Y-100130512D01*
X127762817Y-100133668D01*
X127762815Y-100133669D01*
X127589730Y-100254864D01*
X127589727Y-100254866D01*
X127585219Y-100258023D01*
X127428023Y-100415219D01*
X127424866Y-100419727D01*
X127424864Y-100419730D01*
X127396223Y-100460634D01*
X127300512Y-100597324D01*
X127298189Y-100602306D01*
X127298186Y-100602311D01*
X127208883Y-100793822D01*
X127206560Y-100798804D01*
X127149022Y-101013537D01*
X127129647Y-101235000D01*
X127149022Y-101456463D01*
X127206560Y-101671196D01*
X127208882Y-101676177D01*
X127208883Y-101676178D01*
X127298186Y-101867689D01*
X127298189Y-101867694D01*
X127300512Y-101872676D01*
X127303668Y-101877183D01*
X127303669Y-101877185D01*
X127424133Y-102049225D01*
X127428023Y-102054781D01*
X127585219Y-102211977D01*
X127589727Y-102215134D01*
X127589730Y-102215136D01*
X127634897Y-102246762D01*
X127767323Y-102339488D01*
X127772305Y-102341811D01*
X127772310Y-102341814D01*
X127877373Y-102390805D01*
X127930658Y-102437722D01*
X127950119Y-102505999D01*
X127929577Y-102573959D01*
X127877373Y-102619195D01*
X127772311Y-102668186D01*
X127772306Y-102668189D01*
X127767324Y-102670512D01*
X127762817Y-102673668D01*
X127762815Y-102673669D01*
X127589730Y-102794864D01*
X127589727Y-102794866D01*
X127585219Y-102798023D01*
X127428023Y-102955219D01*
X127300512Y-103137324D01*
X127298189Y-103142306D01*
X127298186Y-103142311D01*
X127208883Y-103333822D01*
X127206560Y-103338804D01*
X127149022Y-103553537D01*
X127129647Y-103775000D01*
X127149022Y-103996463D01*
X127206560Y-104211196D01*
X127208882Y-104216177D01*
X127208883Y-104216178D01*
X127298186Y-104407689D01*
X127298189Y-104407694D01*
X127300512Y-104412676D01*
X127428023Y-104594781D01*
X127585219Y-104751977D01*
X127589727Y-104755134D01*
X127589730Y-104755136D01*
X127665495Y-104808187D01*
X127767323Y-104879488D01*
X127772305Y-104881811D01*
X127772310Y-104881814D01*
X127877373Y-104930805D01*
X127930658Y-104977722D01*
X127950119Y-105045999D01*
X127929577Y-105113959D01*
X127877373Y-105159195D01*
X127772311Y-105208186D01*
X127772306Y-105208189D01*
X127767324Y-105210512D01*
X127762817Y-105213668D01*
X127762815Y-105213669D01*
X127589730Y-105334864D01*
X127589727Y-105334866D01*
X127585219Y-105338023D01*
X127428023Y-105495219D01*
X127300512Y-105677324D01*
X127298189Y-105682306D01*
X127298186Y-105682311D01*
X127208883Y-105873822D01*
X127206560Y-105878804D01*
X127149022Y-106093537D01*
X127129647Y-106315000D01*
X127149022Y-106536463D01*
X127206560Y-106751196D01*
X127208882Y-106756177D01*
X127208883Y-106756178D01*
X127298186Y-106947689D01*
X127298189Y-106947694D01*
X127300512Y-106952676D01*
X127428023Y-107134781D01*
X127585219Y-107291977D01*
X127589727Y-107295134D01*
X127589730Y-107295136D01*
X127665495Y-107348187D01*
X127767323Y-107419488D01*
X127772305Y-107421811D01*
X127772310Y-107421814D01*
X127877373Y-107470805D01*
X127930658Y-107517722D01*
X127950119Y-107585999D01*
X127929577Y-107653959D01*
X127877373Y-107699195D01*
X127772311Y-107748186D01*
X127772306Y-107748189D01*
X127767324Y-107750512D01*
X127762817Y-107753668D01*
X127762815Y-107753669D01*
X127589730Y-107874864D01*
X127589727Y-107874866D01*
X127585219Y-107878023D01*
X127428023Y-108035219D01*
X127424866Y-108039727D01*
X127424864Y-108039730D01*
X127304670Y-108211386D01*
X127300512Y-108217324D01*
X127298189Y-108222306D01*
X127298186Y-108222311D01*
X127208883Y-108413822D01*
X127206560Y-108418804D01*
X127149022Y-108633537D01*
X127129647Y-108855000D01*
X127149022Y-109076463D01*
X127206560Y-109291196D01*
X127208882Y-109296177D01*
X127208883Y-109296178D01*
X127298186Y-109487689D01*
X127298189Y-109487694D01*
X127300512Y-109492676D01*
X127303668Y-109497183D01*
X127303669Y-109497185D01*
X127358294Y-109575197D01*
X127428023Y-109674781D01*
X127585219Y-109831977D01*
X127589727Y-109835134D01*
X127589730Y-109835136D01*
X127614457Y-109852450D01*
X127767323Y-109959488D01*
X127772305Y-109961811D01*
X127772310Y-109961814D01*
X127962109Y-110050318D01*
X127968804Y-110053440D01*
X127974112Y-110054862D01*
X127974114Y-110054863D01*
X127988143Y-110058622D01*
X128183537Y-110110978D01*
X128405000Y-110130353D01*
X128626463Y-110110978D01*
X128821857Y-110058622D01*
X128835886Y-110054863D01*
X128835888Y-110054862D01*
X128841196Y-110053440D01*
X128847891Y-110050318D01*
X129037690Y-109961814D01*
X129037695Y-109961811D01*
X129042677Y-109959488D01*
X129195543Y-109852450D01*
X129220270Y-109835136D01*
X129220273Y-109835134D01*
X129224781Y-109831977D01*
X129313353Y-109743405D01*
X129375665Y-109709379D01*
X129446480Y-109714444D01*
X129503316Y-109756991D01*
X129519189Y-109785093D01*
X129548484Y-109857237D01*
X129669501Y-110054719D01*
X129821147Y-110229784D01*
X129999349Y-110377730D01*
X130199322Y-110494584D01*
X130415694Y-110577209D01*
X130420760Y-110578240D01*
X130420761Y-110578240D01*
X130473846Y-110589040D01*
X130642656Y-110623385D01*
X130773324Y-110628176D01*
X130868949Y-110631683D01*
X130868953Y-110631683D01*
X130874113Y-110631872D01*
X130879233Y-110631216D01*
X130879235Y-110631216D01*
X130985311Y-110617627D01*
X131103847Y-110602442D01*
X131108795Y-110600957D01*
X131108802Y-110600956D01*
X131320747Y-110537369D01*
X131325690Y-110535886D01*
X131331975Y-110532807D01*
X131529049Y-110436262D01*
X131529052Y-110436260D01*
X131533684Y-110433991D01*
X131722243Y-110299494D01*
X131725898Y-110295852D01*
X131725906Y-110295845D01*
X131767697Y-110254199D01*
X131830068Y-110220282D01*
X131900875Y-110225470D01*
X131957637Y-110268116D01*
X131974619Y-110299218D01*
X131996677Y-110358056D01*
X132005214Y-110373649D01*
X132081715Y-110475724D01*
X132094276Y-110488285D01*
X132196351Y-110564786D01*
X132211946Y-110573324D01*
X132332394Y-110618478D01*
X132347649Y-110622105D01*
X132398514Y-110627631D01*
X132405328Y-110628000D01*
X133077885Y-110628000D01*
X133093124Y-110623525D01*
X133094329Y-110622135D01*
X133096000Y-110614452D01*
X133096000Y-110609884D01*
X133604000Y-110609884D01*
X133608475Y-110625123D01*
X133609865Y-110626328D01*
X133617548Y-110627999D01*
X134294669Y-110627999D01*
X134301490Y-110627629D01*
X134352352Y-110622105D01*
X134367604Y-110618479D01*
X134488054Y-110573324D01*
X134503649Y-110564786D01*
X134605724Y-110488285D01*
X134618285Y-110475724D01*
X134694786Y-110373649D01*
X134703324Y-110358054D01*
X134748478Y-110237606D01*
X134752105Y-110222351D01*
X134757631Y-110171486D01*
X134758000Y-110164672D01*
X134758000Y-110112095D01*
X135782001Y-110112095D01*
X135782338Y-110118614D01*
X135792257Y-110214206D01*
X135795149Y-110227600D01*
X135846588Y-110381784D01*
X135852761Y-110394962D01*
X135938063Y-110532807D01*
X135947099Y-110544208D01*
X136061829Y-110658739D01*
X136073240Y-110667751D01*
X136211243Y-110752816D01*
X136224424Y-110758963D01*
X136378710Y-110810138D01*
X136392086Y-110813005D01*
X136486438Y-110822672D01*
X136492854Y-110823000D01*
X136887885Y-110823000D01*
X136903124Y-110818525D01*
X136904329Y-110817135D01*
X136906000Y-110809452D01*
X136906000Y-110804884D01*
X137414000Y-110804884D01*
X137418475Y-110820123D01*
X137419865Y-110821328D01*
X137427548Y-110822999D01*
X137827095Y-110822999D01*
X137833614Y-110822662D01*
X137929206Y-110812743D01*
X137942600Y-110809851D01*
X138096784Y-110758412D01*
X138109962Y-110752239D01*
X138247807Y-110666937D01*
X138259208Y-110657901D01*
X138373739Y-110543171D01*
X138382751Y-110531760D01*
X138471658Y-110387525D01*
X138473755Y-110388817D01*
X138512956Y-110344308D01*
X138581236Y-110324856D01*
X138649193Y-110345407D01*
X138671386Y-110363878D01*
X138783276Y-110481168D01*
X138787554Y-110484351D01*
X138797804Y-110491977D01*
X138970965Y-110620813D01*
X138975716Y-110623229D01*
X138975720Y-110623231D01*
X139090197Y-110681434D01*
X139179500Y-110726838D01*
X139402917Y-110796210D01*
X139408204Y-110796911D01*
X139408205Y-110796911D01*
X139629545Y-110826248D01*
X139629549Y-110826248D01*
X139634829Y-110826948D01*
X139640158Y-110826748D01*
X139640160Y-110826748D01*
X139751716Y-110822560D01*
X139868604Y-110818172D01*
X139980813Y-110794628D01*
X140092332Y-110771229D01*
X140092335Y-110771228D01*
X140097559Y-110770132D01*
X140315146Y-110684203D01*
X140402466Y-110631216D01*
X140510583Y-110565609D01*
X140510586Y-110565607D01*
X140515144Y-110562841D01*
X140691834Y-110409517D01*
X140840165Y-110228614D01*
X140842801Y-110223984D01*
X140842804Y-110223979D01*
X140861301Y-110191484D01*
X140912384Y-110142178D01*
X140982015Y-110128317D01*
X141048085Y-110154301D01*
X141075323Y-110183450D01*
X141161798Y-110311896D01*
X141165477Y-110315753D01*
X141165479Y-110315755D01*
X141211388Y-110363880D01*
X141323276Y-110481168D01*
X141327554Y-110484351D01*
X141337804Y-110491977D01*
X141510965Y-110620813D01*
X141515716Y-110623229D01*
X141515720Y-110623231D01*
X141630197Y-110681434D01*
X141719500Y-110726838D01*
X141942917Y-110796210D01*
X141948204Y-110796911D01*
X141948205Y-110796911D01*
X142169545Y-110826248D01*
X142169549Y-110826248D01*
X142174829Y-110826948D01*
X142180158Y-110826748D01*
X142180160Y-110826748D01*
X142291716Y-110822560D01*
X142408604Y-110818172D01*
X142520813Y-110794628D01*
X142632332Y-110771229D01*
X142632335Y-110771228D01*
X142637559Y-110770132D01*
X142855146Y-110684203D01*
X142942466Y-110631216D01*
X143050583Y-110565609D01*
X143050586Y-110565607D01*
X143055144Y-110562841D01*
X143231834Y-110409517D01*
X143380165Y-110228614D01*
X143476931Y-110058622D01*
X143493255Y-110029945D01*
X143493256Y-110029943D01*
X143495896Y-110025305D01*
X143575716Y-109805404D01*
X143579389Y-109785096D01*
X143605148Y-109642642D01*
X143617344Y-109575197D01*
X143618500Y-109550684D01*
X143618500Y-108936262D01*
X143603705Y-108761898D01*
X143544933Y-108535460D01*
X143494776Y-108424114D01*
X143451045Y-108327036D01*
X143448850Y-108322163D01*
X143441795Y-108311683D01*
X143381626Y-108222311D01*
X143318202Y-108128104D01*
X143156724Y-107958832D01*
X143147159Y-107951715D01*
X142973317Y-107822373D01*
X142973318Y-107822373D01*
X142969035Y-107819187D01*
X142964284Y-107816771D01*
X142964280Y-107816769D01*
X142765256Y-107715580D01*
X142765255Y-107715580D01*
X142760500Y-107713162D01*
X142537083Y-107643790D01*
X142531796Y-107643089D01*
X142531795Y-107643089D01*
X142310455Y-107613752D01*
X142310451Y-107613752D01*
X142305171Y-107613052D01*
X142299842Y-107613252D01*
X142299840Y-107613252D01*
X142188284Y-107617440D01*
X142071396Y-107621828D01*
X141987411Y-107639450D01*
X141847668Y-107668771D01*
X141847665Y-107668772D01*
X141842441Y-107669868D01*
X141624854Y-107755797D01*
X141620290Y-107758566D01*
X141620291Y-107758566D01*
X141429417Y-107874391D01*
X141429414Y-107874393D01*
X141424856Y-107877159D01*
X141248166Y-108030483D01*
X141099835Y-108211386D01*
X141097199Y-108216016D01*
X141097196Y-108216021D01*
X141078699Y-108248516D01*
X141027616Y-108297822D01*
X140957985Y-108311683D01*
X140891915Y-108285699D01*
X140864677Y-108256550D01*
X140817421Y-108186358D01*
X140778202Y-108128104D01*
X140616724Y-107958832D01*
X140607159Y-107951715D01*
X140433317Y-107822373D01*
X140433318Y-107822373D01*
X140429035Y-107819187D01*
X140424284Y-107816771D01*
X140424280Y-107816769D01*
X140225256Y-107715580D01*
X140225255Y-107715580D01*
X140220500Y-107713162D01*
X139997083Y-107643790D01*
X139991796Y-107643089D01*
X139991795Y-107643089D01*
X139770455Y-107613752D01*
X139770451Y-107613752D01*
X139765171Y-107613052D01*
X139759842Y-107613252D01*
X139759840Y-107613252D01*
X139648284Y-107617440D01*
X139531396Y-107621828D01*
X139447411Y-107639450D01*
X139307668Y-107668771D01*
X139307665Y-107668772D01*
X139302441Y-107669868D01*
X139084854Y-107755797D01*
X139080290Y-107758566D01*
X139080291Y-107758566D01*
X138889417Y-107874391D01*
X138889414Y-107874393D01*
X138884856Y-107877159D01*
X138708166Y-108030483D01*
X138704778Y-108034615D01*
X138677239Y-108068201D01*
X138618579Y-108108196D01*
X138547609Y-108110127D01*
X138486861Y-108073383D01*
X138471780Y-108050843D01*
X138471094Y-108051268D01*
X138381937Y-107907193D01*
X138372901Y-107895792D01*
X138258171Y-107781261D01*
X138246760Y-107772249D01*
X138108757Y-107687184D01*
X138095576Y-107681037D01*
X137941290Y-107629862D01*
X137927914Y-107626995D01*
X137833562Y-107617328D01*
X137827145Y-107617000D01*
X137432115Y-107617000D01*
X137416876Y-107621475D01*
X137415671Y-107622865D01*
X137414000Y-107630548D01*
X137414000Y-110804884D01*
X136906000Y-110804884D01*
X136906000Y-109492115D01*
X136901525Y-109476876D01*
X136900135Y-109475671D01*
X136892452Y-109474000D01*
X135800116Y-109474000D01*
X135784877Y-109478475D01*
X135783672Y-109479865D01*
X135782001Y-109487548D01*
X135782001Y-110112095D01*
X134758000Y-110112095D01*
X134758000Y-109492115D01*
X134753525Y-109476876D01*
X134752135Y-109475671D01*
X134744452Y-109474000D01*
X133622115Y-109474000D01*
X133606876Y-109478475D01*
X133605671Y-109479865D01*
X133604000Y-109487548D01*
X133604000Y-110609884D01*
X133096000Y-110609884D01*
X133096000Y-108947885D01*
X133604000Y-108947885D01*
X133608475Y-108963124D01*
X133609865Y-108964329D01*
X133617548Y-108966000D01*
X134739884Y-108966000D01*
X134755123Y-108961525D01*
X134756328Y-108960135D01*
X134757999Y-108952452D01*
X134757999Y-108947885D01*
X135782000Y-108947885D01*
X135786475Y-108963124D01*
X135787865Y-108964329D01*
X135795548Y-108966000D01*
X136887885Y-108966000D01*
X136903124Y-108961525D01*
X136904329Y-108960135D01*
X136906000Y-108952452D01*
X136906000Y-107635116D01*
X136901525Y-107619877D01*
X136900135Y-107618672D01*
X136892452Y-107617001D01*
X136492905Y-107617001D01*
X136486386Y-107617338D01*
X136390794Y-107627257D01*
X136377400Y-107630149D01*
X136223216Y-107681588D01*
X136210038Y-107687761D01*
X136072193Y-107773063D01*
X136060792Y-107782099D01*
X135946261Y-107896829D01*
X135937249Y-107908240D01*
X135852184Y-108046243D01*
X135846037Y-108059424D01*
X135794862Y-108213710D01*
X135791995Y-108227086D01*
X135782328Y-108321438D01*
X135782000Y-108327855D01*
X135782000Y-108947885D01*
X134757999Y-108947885D01*
X134757999Y-108275331D01*
X134757629Y-108268505D01*
X134752105Y-108217648D01*
X134748479Y-108202396D01*
X134703324Y-108081946D01*
X134694786Y-108066351D01*
X134618285Y-107964276D01*
X134605724Y-107951715D01*
X134503649Y-107875214D01*
X134488054Y-107866676D01*
X134367606Y-107821522D01*
X134352351Y-107817895D01*
X134301486Y-107812369D01*
X134294672Y-107812000D01*
X133622115Y-107812000D01*
X133606876Y-107816475D01*
X133605671Y-107817865D01*
X133604000Y-107825548D01*
X133604000Y-108947885D01*
X133096000Y-108947885D01*
X133096000Y-107830116D01*
X133091525Y-107814877D01*
X133090135Y-107813672D01*
X133082452Y-107812001D01*
X132405331Y-107812001D01*
X132398510Y-107812371D01*
X132347648Y-107817895D01*
X132332396Y-107821521D01*
X132211946Y-107866676D01*
X132196351Y-107875214D01*
X132094276Y-107951715D01*
X132081715Y-107964276D01*
X132005214Y-108066351D01*
X131996675Y-108081948D01*
X131975934Y-108137275D01*
X131933293Y-108194040D01*
X131866731Y-108218740D01*
X131797383Y-108203533D01*
X131774388Y-108186909D01*
X131773887Y-108186358D01*
X131705730Y-108132531D01*
X131596178Y-108046012D01*
X131596175Y-108046010D01*
X131592123Y-108042810D01*
X131571313Y-108031322D01*
X131508607Y-107996707D01*
X131458636Y-107946274D01*
X131443500Y-107886398D01*
X131443500Y-101595000D01*
X134586502Y-101595000D01*
X134606457Y-101823087D01*
X134607881Y-101828400D01*
X134607881Y-101828402D01*
X134620953Y-101877185D01*
X134665716Y-102044243D01*
X134668039Y-102049224D01*
X134668039Y-102049225D01*
X134760151Y-102246762D01*
X134760154Y-102246767D01*
X134762477Y-102251749D01*
X134765634Y-102256257D01*
X134889699Y-102433440D01*
X134893802Y-102439300D01*
X135055700Y-102601198D01*
X135060208Y-102604355D01*
X135060211Y-102604357D01*
X135081402Y-102619195D01*
X135243251Y-102732523D01*
X135248233Y-102734846D01*
X135248238Y-102734849D01*
X135383717Y-102798023D01*
X135450757Y-102829284D01*
X135456065Y-102830706D01*
X135456067Y-102830707D01*
X135666598Y-102887119D01*
X135666600Y-102887119D01*
X135671913Y-102888543D01*
X135900000Y-102908498D01*
X136128087Y-102888543D01*
X136133400Y-102887119D01*
X136133402Y-102887119D01*
X136343933Y-102830707D01*
X136343935Y-102830706D01*
X136349243Y-102829284D01*
X136416283Y-102798023D01*
X136551762Y-102734849D01*
X136551767Y-102734846D01*
X136556749Y-102732523D01*
X136718598Y-102619195D01*
X136739789Y-102604357D01*
X136739792Y-102604355D01*
X136744300Y-102601198D01*
X136906198Y-102439300D01*
X136910302Y-102433440D01*
X137034366Y-102256257D01*
X137037523Y-102251749D01*
X137039846Y-102246767D01*
X137039849Y-102246762D01*
X137131961Y-102049225D01*
X137131961Y-102049224D01*
X137134284Y-102044243D01*
X137179048Y-101877185D01*
X137192119Y-101828402D01*
X137192119Y-101828400D01*
X137193543Y-101823087D01*
X137213498Y-101595000D01*
X142206502Y-101595000D01*
X142226457Y-101823087D01*
X142227881Y-101828400D01*
X142227881Y-101828402D01*
X142240953Y-101877185D01*
X142285716Y-102044243D01*
X142288039Y-102049224D01*
X142288039Y-102049225D01*
X142380151Y-102246762D01*
X142380154Y-102246767D01*
X142382477Y-102251749D01*
X142385634Y-102256257D01*
X142509699Y-102433440D01*
X142513802Y-102439300D01*
X142675700Y-102601198D01*
X142680208Y-102604355D01*
X142680211Y-102604357D01*
X142701402Y-102619195D01*
X142863251Y-102732523D01*
X142868233Y-102734846D01*
X142868238Y-102734849D01*
X143003717Y-102798023D01*
X143070757Y-102829284D01*
X143076065Y-102830706D01*
X143076067Y-102830707D01*
X143286598Y-102887119D01*
X143286600Y-102887119D01*
X143291913Y-102888543D01*
X143520000Y-102908498D01*
X143748087Y-102888543D01*
X143753400Y-102887119D01*
X143753402Y-102887119D01*
X143963933Y-102830707D01*
X143963935Y-102830706D01*
X143969243Y-102829284D01*
X144036283Y-102798023D01*
X144171762Y-102734849D01*
X144171767Y-102734846D01*
X144176749Y-102732523D01*
X144338598Y-102619195D01*
X144359789Y-102604357D01*
X144359792Y-102604355D01*
X144364300Y-102601198D01*
X144526198Y-102439300D01*
X144530302Y-102433440D01*
X144654366Y-102256257D01*
X144657523Y-102251749D01*
X144659846Y-102246767D01*
X144659849Y-102246762D01*
X144751961Y-102049225D01*
X144751961Y-102049224D01*
X144754284Y-102044243D01*
X144799048Y-101877185D01*
X144812119Y-101828402D01*
X144812119Y-101828400D01*
X144813543Y-101823087D01*
X144833498Y-101595000D01*
X144813543Y-101366913D01*
X144754284Y-101145757D01*
X144695184Y-101019016D01*
X144659849Y-100943238D01*
X144659846Y-100943233D01*
X144657523Y-100938251D01*
X144559881Y-100798804D01*
X144529357Y-100755211D01*
X144529355Y-100755208D01*
X144526198Y-100750700D01*
X144364300Y-100588802D01*
X144359792Y-100585645D01*
X144359789Y-100585643D01*
X144281611Y-100530902D01*
X144176749Y-100457477D01*
X144171767Y-100455154D01*
X144171762Y-100455151D01*
X144137543Y-100439195D01*
X144084258Y-100392278D01*
X144064797Y-100324001D01*
X144085339Y-100256041D01*
X144137543Y-100210805D01*
X144171762Y-100194849D01*
X144171767Y-100194846D01*
X144176749Y-100192523D01*
X144338598Y-100079195D01*
X144359789Y-100064357D01*
X144359792Y-100064355D01*
X144364300Y-100061198D01*
X144526198Y-99899300D01*
X144530302Y-99893440D01*
X144654366Y-99716257D01*
X144657523Y-99711749D01*
X144659846Y-99706767D01*
X144659849Y-99706762D01*
X144751961Y-99509225D01*
X144751961Y-99509224D01*
X144754284Y-99504243D01*
X144799048Y-99337185D01*
X144812119Y-99288402D01*
X144812119Y-99288400D01*
X144813543Y-99283087D01*
X144833498Y-99055000D01*
X144813543Y-98826913D01*
X144754284Y-98605757D01*
X144695184Y-98479016D01*
X144659849Y-98403238D01*
X144659846Y-98403233D01*
X144657523Y-98398251D01*
X144559881Y-98258804D01*
X144529357Y-98215211D01*
X144529355Y-98215208D01*
X144526198Y-98210700D01*
X144364300Y-98048802D01*
X144359792Y-98045645D01*
X144359789Y-98045643D01*
X144281611Y-97990902D01*
X144176749Y-97917477D01*
X144171767Y-97915154D01*
X144171762Y-97915151D01*
X144137543Y-97899195D01*
X144084258Y-97852278D01*
X144064797Y-97784001D01*
X144085339Y-97716041D01*
X144137543Y-97670805D01*
X144171762Y-97654849D01*
X144171767Y-97654846D01*
X144176749Y-97652523D01*
X144322571Y-97550417D01*
X144359789Y-97524357D01*
X144359792Y-97524355D01*
X144364300Y-97521198D01*
X144526198Y-97359300D01*
X144530302Y-97353440D01*
X144621571Y-97223093D01*
X144657523Y-97171749D01*
X144659846Y-97166767D01*
X144659849Y-97166762D01*
X144751961Y-96969225D01*
X144751961Y-96969224D01*
X144754284Y-96964243D01*
X144762590Y-96933247D01*
X144812119Y-96748402D01*
X144812119Y-96748400D01*
X144813543Y-96743087D01*
X144833498Y-96515000D01*
X144813543Y-96286913D01*
X144754284Y-96065757D01*
X144695184Y-95939016D01*
X144659849Y-95863238D01*
X144659846Y-95863233D01*
X144657523Y-95858251D01*
X144559881Y-95718804D01*
X144529357Y-95675211D01*
X144529355Y-95675208D01*
X144526198Y-95670700D01*
X144364300Y-95508802D01*
X144359792Y-95505645D01*
X144359789Y-95505643D01*
X144188398Y-95385634D01*
X144176749Y-95377477D01*
X144171767Y-95375154D01*
X144171762Y-95375151D01*
X144137543Y-95359195D01*
X144084258Y-95312278D01*
X144064797Y-95244001D01*
X144085339Y-95176041D01*
X144137543Y-95130805D01*
X144171762Y-95114849D01*
X144171767Y-95114846D01*
X144176749Y-95112523D01*
X144338598Y-94999195D01*
X144359789Y-94984357D01*
X144359792Y-94984355D01*
X144364300Y-94981198D01*
X144526198Y-94819300D01*
X144530302Y-94813440D01*
X144654366Y-94636257D01*
X144657523Y-94631749D01*
X144659846Y-94626767D01*
X144659849Y-94626762D01*
X144751961Y-94429225D01*
X144751961Y-94429224D01*
X144754284Y-94424243D01*
X144799048Y-94257185D01*
X144812119Y-94208402D01*
X144812119Y-94208400D01*
X144813543Y-94203087D01*
X144833498Y-93975000D01*
X144813543Y-93746913D01*
X144754284Y-93525757D01*
X144695184Y-93399016D01*
X144659849Y-93323238D01*
X144659846Y-93323233D01*
X144657523Y-93318251D01*
X144559881Y-93178804D01*
X144529357Y-93135211D01*
X144529355Y-93135208D01*
X144526198Y-93130700D01*
X144364300Y-92968802D01*
X144359792Y-92965645D01*
X144359789Y-92965643D01*
X144281611Y-92910902D01*
X144176749Y-92837477D01*
X144171767Y-92835154D01*
X144171762Y-92835151D01*
X144137543Y-92819195D01*
X144084258Y-92772278D01*
X144064797Y-92704001D01*
X144085339Y-92636041D01*
X144137543Y-92590805D01*
X144171762Y-92574849D01*
X144171767Y-92574846D01*
X144176749Y-92572523D01*
X144338598Y-92459195D01*
X144359789Y-92444357D01*
X144359792Y-92444355D01*
X144364300Y-92441198D01*
X144526198Y-92279300D01*
X144530302Y-92273440D01*
X144654366Y-92096257D01*
X144657523Y-92091749D01*
X144659846Y-92086767D01*
X144659849Y-92086762D01*
X144751961Y-91889225D01*
X144751961Y-91889224D01*
X144754284Y-91884243D01*
X144799048Y-91717185D01*
X144812119Y-91668402D01*
X144812119Y-91668400D01*
X144813543Y-91663087D01*
X144833498Y-91435000D01*
X144813543Y-91206913D01*
X144754284Y-90985757D01*
X144695184Y-90859016D01*
X144659849Y-90783238D01*
X144659846Y-90783233D01*
X144657523Y-90778251D01*
X144559881Y-90638804D01*
X144529357Y-90595211D01*
X144529355Y-90595208D01*
X144526198Y-90590700D01*
X144364300Y-90428802D01*
X144359792Y-90425645D01*
X144359789Y-90425643D01*
X144281611Y-90370902D01*
X144176749Y-90297477D01*
X144171767Y-90295154D01*
X144171762Y-90295151D01*
X144137543Y-90279195D01*
X144084258Y-90232278D01*
X144064797Y-90164001D01*
X144085339Y-90096041D01*
X144137543Y-90050805D01*
X144171762Y-90034849D01*
X144171767Y-90034846D01*
X144176749Y-90032523D01*
X144338598Y-89919195D01*
X144359789Y-89904357D01*
X144359792Y-89904355D01*
X144364300Y-89901198D01*
X144526198Y-89739300D01*
X144530302Y-89733440D01*
X144654366Y-89556257D01*
X144657523Y-89551749D01*
X144659846Y-89546767D01*
X144659849Y-89546762D01*
X144751961Y-89349225D01*
X144751961Y-89349224D01*
X144754284Y-89344243D01*
X144799048Y-89177185D01*
X144812119Y-89128402D01*
X144812119Y-89128400D01*
X144813543Y-89123087D01*
X144833498Y-88895000D01*
X144813543Y-88666913D01*
X144754284Y-88445757D01*
X144695184Y-88319016D01*
X144659849Y-88243238D01*
X144659846Y-88243233D01*
X144657523Y-88238251D01*
X144559881Y-88098804D01*
X144529357Y-88055211D01*
X144529355Y-88055208D01*
X144526198Y-88050700D01*
X144364300Y-87888802D01*
X144359792Y-87885645D01*
X144359789Y-87885643D01*
X144281611Y-87830902D01*
X144176749Y-87757477D01*
X144171767Y-87755154D01*
X144171762Y-87755151D01*
X144136951Y-87738919D01*
X144083666Y-87692002D01*
X144064205Y-87623725D01*
X144084747Y-87555765D01*
X144136951Y-87510529D01*
X144171511Y-87494414D01*
X144181007Y-87488931D01*
X144359467Y-87363972D01*
X144367875Y-87356916D01*
X144521916Y-87202875D01*
X144528972Y-87194467D01*
X144653931Y-87016007D01*
X144659414Y-87006511D01*
X144751490Y-86809053D01*
X144755236Y-86798761D01*
X144801394Y-86626497D01*
X144801058Y-86612401D01*
X144793116Y-86609000D01*
X142252033Y-86609000D01*
X142238502Y-86612973D01*
X142237273Y-86621522D01*
X142284764Y-86798761D01*
X142288510Y-86809053D01*
X142380586Y-87006511D01*
X142386069Y-87016007D01*
X142511028Y-87194467D01*
X142518084Y-87202875D01*
X142672125Y-87356916D01*
X142680533Y-87363972D01*
X142858993Y-87488931D01*
X142868489Y-87494414D01*
X142903049Y-87510529D01*
X142956334Y-87557446D01*
X142975795Y-87625723D01*
X142955253Y-87693683D01*
X142903049Y-87738919D01*
X142868238Y-87755151D01*
X142868233Y-87755154D01*
X142863251Y-87757477D01*
X142758389Y-87830902D01*
X142680211Y-87885643D01*
X142680208Y-87885645D01*
X142675700Y-87888802D01*
X142513802Y-88050700D01*
X142510645Y-88055208D01*
X142510643Y-88055211D01*
X142480119Y-88098804D01*
X142382477Y-88238251D01*
X142380154Y-88243233D01*
X142380151Y-88243238D01*
X142344816Y-88319016D01*
X142285716Y-88445757D01*
X142226457Y-88666913D01*
X142206502Y-88895000D01*
X142226457Y-89123087D01*
X142227881Y-89128400D01*
X142227881Y-89128402D01*
X142240953Y-89177185D01*
X142285716Y-89344243D01*
X142288039Y-89349224D01*
X142288039Y-89349225D01*
X142380151Y-89546762D01*
X142380154Y-89546767D01*
X142382477Y-89551749D01*
X142385634Y-89556257D01*
X142509699Y-89733440D01*
X142513802Y-89739300D01*
X142675700Y-89901198D01*
X142680208Y-89904355D01*
X142680211Y-89904357D01*
X142701402Y-89919195D01*
X142863251Y-90032523D01*
X142868233Y-90034846D01*
X142868238Y-90034849D01*
X142902457Y-90050805D01*
X142955742Y-90097722D01*
X142975203Y-90165999D01*
X142954661Y-90233959D01*
X142902457Y-90279195D01*
X142868238Y-90295151D01*
X142868233Y-90295154D01*
X142863251Y-90297477D01*
X142758389Y-90370902D01*
X142680211Y-90425643D01*
X142680208Y-90425645D01*
X142675700Y-90428802D01*
X142513802Y-90590700D01*
X142510645Y-90595208D01*
X142510643Y-90595211D01*
X142480119Y-90638804D01*
X142382477Y-90778251D01*
X142380154Y-90783233D01*
X142380151Y-90783238D01*
X142344816Y-90859016D01*
X142285716Y-90985757D01*
X142226457Y-91206913D01*
X142206502Y-91435000D01*
X142226457Y-91663087D01*
X142227881Y-91668400D01*
X142227881Y-91668402D01*
X142240953Y-91717185D01*
X142285716Y-91884243D01*
X142288039Y-91889224D01*
X142288039Y-91889225D01*
X142380151Y-92086762D01*
X142380154Y-92086767D01*
X142382477Y-92091749D01*
X142385634Y-92096257D01*
X142509699Y-92273440D01*
X142513802Y-92279300D01*
X142675700Y-92441198D01*
X142680208Y-92444355D01*
X142680211Y-92444357D01*
X142701402Y-92459195D01*
X142863251Y-92572523D01*
X142868233Y-92574846D01*
X142868238Y-92574849D01*
X142902457Y-92590805D01*
X142955742Y-92637722D01*
X142975203Y-92705999D01*
X142954661Y-92773959D01*
X142902457Y-92819195D01*
X142868238Y-92835151D01*
X142868233Y-92835154D01*
X142863251Y-92837477D01*
X142758389Y-92910902D01*
X142680211Y-92965643D01*
X142680208Y-92965645D01*
X142675700Y-92968802D01*
X142513802Y-93130700D01*
X142510645Y-93135208D01*
X142510643Y-93135211D01*
X142480119Y-93178804D01*
X142382477Y-93318251D01*
X142380154Y-93323233D01*
X142380151Y-93323238D01*
X142344816Y-93399016D01*
X142285716Y-93525757D01*
X142226457Y-93746913D01*
X142206502Y-93975000D01*
X142226457Y-94203087D01*
X142227881Y-94208400D01*
X142227881Y-94208402D01*
X142240953Y-94257185D01*
X142285716Y-94424243D01*
X142288039Y-94429224D01*
X142288039Y-94429225D01*
X142380151Y-94626762D01*
X142380154Y-94626767D01*
X142382477Y-94631749D01*
X142385634Y-94636257D01*
X142509699Y-94813440D01*
X142513802Y-94819300D01*
X142675700Y-94981198D01*
X142680208Y-94984355D01*
X142680211Y-94984357D01*
X142701402Y-94999195D01*
X142863251Y-95112523D01*
X142868233Y-95114846D01*
X142868238Y-95114849D01*
X142902457Y-95130805D01*
X142955742Y-95177722D01*
X142975203Y-95245999D01*
X142954661Y-95313959D01*
X142902457Y-95359195D01*
X142868238Y-95375151D01*
X142868233Y-95375154D01*
X142863251Y-95377477D01*
X142851602Y-95385634D01*
X142680211Y-95505643D01*
X142680208Y-95505645D01*
X142675700Y-95508802D01*
X142513802Y-95670700D01*
X142510645Y-95675208D01*
X142510643Y-95675211D01*
X142480119Y-95718804D01*
X142382477Y-95858251D01*
X142380154Y-95863233D01*
X142380151Y-95863238D01*
X142344816Y-95939016D01*
X142285716Y-96065757D01*
X142226457Y-96286913D01*
X142206502Y-96515000D01*
X142226457Y-96743087D01*
X142227881Y-96748400D01*
X142227881Y-96748402D01*
X142277411Y-96933247D01*
X142285716Y-96964243D01*
X142288039Y-96969224D01*
X142288039Y-96969225D01*
X142380151Y-97166762D01*
X142380154Y-97166767D01*
X142382477Y-97171749D01*
X142418429Y-97223093D01*
X142509699Y-97353440D01*
X142513802Y-97359300D01*
X142675700Y-97521198D01*
X142680208Y-97524355D01*
X142680211Y-97524357D01*
X142717429Y-97550417D01*
X142863251Y-97652523D01*
X142868233Y-97654846D01*
X142868238Y-97654849D01*
X142902457Y-97670805D01*
X142955742Y-97717722D01*
X142975203Y-97785999D01*
X142954661Y-97853959D01*
X142902457Y-97899195D01*
X142868238Y-97915151D01*
X142868233Y-97915154D01*
X142863251Y-97917477D01*
X142758389Y-97990902D01*
X142680211Y-98045643D01*
X142680208Y-98045645D01*
X142675700Y-98048802D01*
X142513802Y-98210700D01*
X142510645Y-98215208D01*
X142510643Y-98215211D01*
X142480119Y-98258804D01*
X142382477Y-98398251D01*
X142380154Y-98403233D01*
X142380151Y-98403238D01*
X142344816Y-98479016D01*
X142285716Y-98605757D01*
X142226457Y-98826913D01*
X142206502Y-99055000D01*
X142226457Y-99283087D01*
X142227881Y-99288400D01*
X142227881Y-99288402D01*
X142240953Y-99337185D01*
X142285716Y-99504243D01*
X142288039Y-99509224D01*
X142288039Y-99509225D01*
X142380151Y-99706762D01*
X142380154Y-99706767D01*
X142382477Y-99711749D01*
X142385634Y-99716257D01*
X142509699Y-99893440D01*
X142513802Y-99899300D01*
X142675700Y-100061198D01*
X142680208Y-100064355D01*
X142680211Y-100064357D01*
X142701402Y-100079195D01*
X142863251Y-100192523D01*
X142868233Y-100194846D01*
X142868238Y-100194849D01*
X142902457Y-100210805D01*
X142955742Y-100257722D01*
X142975203Y-100325999D01*
X142954661Y-100393959D01*
X142902457Y-100439195D01*
X142868238Y-100455151D01*
X142868233Y-100455154D01*
X142863251Y-100457477D01*
X142758389Y-100530902D01*
X142680211Y-100585643D01*
X142680208Y-100585645D01*
X142675700Y-100588802D01*
X142513802Y-100750700D01*
X142510645Y-100755208D01*
X142510643Y-100755211D01*
X142480119Y-100798804D01*
X142382477Y-100938251D01*
X142380154Y-100943233D01*
X142380151Y-100943238D01*
X142344816Y-101019016D01*
X142285716Y-101145757D01*
X142226457Y-101366913D01*
X142206502Y-101595000D01*
X137213498Y-101595000D01*
X137193543Y-101366913D01*
X137134284Y-101145757D01*
X137075184Y-101019016D01*
X137039849Y-100943238D01*
X137039846Y-100943233D01*
X137037523Y-100938251D01*
X136939881Y-100798804D01*
X136909357Y-100755211D01*
X136909355Y-100755208D01*
X136906198Y-100750700D01*
X136744300Y-100588802D01*
X136739792Y-100585645D01*
X136739789Y-100585643D01*
X136661611Y-100530902D01*
X136556749Y-100457477D01*
X136551767Y-100455154D01*
X136551762Y-100455151D01*
X136517543Y-100439195D01*
X136464258Y-100392278D01*
X136444797Y-100324001D01*
X136465339Y-100256041D01*
X136517543Y-100210805D01*
X136551762Y-100194849D01*
X136551767Y-100194846D01*
X136556749Y-100192523D01*
X136718598Y-100079195D01*
X136739789Y-100064357D01*
X136739792Y-100064355D01*
X136744300Y-100061198D01*
X136906198Y-99899300D01*
X136910302Y-99893440D01*
X137034366Y-99716257D01*
X137037523Y-99711749D01*
X137039846Y-99706767D01*
X137039849Y-99706762D01*
X137131961Y-99509225D01*
X137131961Y-99509224D01*
X137134284Y-99504243D01*
X137179048Y-99337185D01*
X137192119Y-99288402D01*
X137192119Y-99288400D01*
X137193543Y-99283087D01*
X137213498Y-99055000D01*
X137193543Y-98826913D01*
X137134284Y-98605757D01*
X137075184Y-98479016D01*
X137039849Y-98403238D01*
X137039846Y-98403233D01*
X137037523Y-98398251D01*
X136939881Y-98258804D01*
X136909357Y-98215211D01*
X136909355Y-98215208D01*
X136906198Y-98210700D01*
X136744300Y-98048802D01*
X136739792Y-98045645D01*
X136739789Y-98045643D01*
X136661611Y-97990902D01*
X136556749Y-97917477D01*
X136551767Y-97915154D01*
X136551762Y-97915151D01*
X136517543Y-97899195D01*
X136464258Y-97852278D01*
X136444797Y-97784001D01*
X136465339Y-97716041D01*
X136517543Y-97670805D01*
X136551762Y-97654849D01*
X136551767Y-97654846D01*
X136556749Y-97652523D01*
X136702571Y-97550417D01*
X136739789Y-97524357D01*
X136739792Y-97524355D01*
X136744300Y-97521198D01*
X136906198Y-97359300D01*
X136910302Y-97353440D01*
X137001571Y-97223093D01*
X137037523Y-97171749D01*
X137039846Y-97166767D01*
X137039849Y-97166762D01*
X137131961Y-96969225D01*
X137131961Y-96969224D01*
X137134284Y-96964243D01*
X137142590Y-96933247D01*
X137192119Y-96748402D01*
X137192119Y-96748400D01*
X137193543Y-96743087D01*
X137213498Y-96515000D01*
X137193543Y-96286913D01*
X137134284Y-96065757D01*
X137075184Y-95939016D01*
X137039849Y-95863238D01*
X137039846Y-95863233D01*
X137037523Y-95858251D01*
X136939881Y-95718804D01*
X136909357Y-95675211D01*
X136909355Y-95675208D01*
X136906198Y-95670700D01*
X136744300Y-95508802D01*
X136739792Y-95505645D01*
X136739789Y-95505643D01*
X136568398Y-95385634D01*
X136556749Y-95377477D01*
X136551767Y-95375154D01*
X136551762Y-95375151D01*
X136517543Y-95359195D01*
X136464258Y-95312278D01*
X136444797Y-95244001D01*
X136465339Y-95176041D01*
X136517543Y-95130805D01*
X136551762Y-95114849D01*
X136551767Y-95114846D01*
X136556749Y-95112523D01*
X136718598Y-94999195D01*
X136739789Y-94984357D01*
X136739792Y-94984355D01*
X136744300Y-94981198D01*
X136906198Y-94819300D01*
X136910302Y-94813440D01*
X137034366Y-94636257D01*
X137037523Y-94631749D01*
X137039846Y-94626767D01*
X137039849Y-94626762D01*
X137131961Y-94429225D01*
X137131961Y-94429224D01*
X137134284Y-94424243D01*
X137179048Y-94257185D01*
X137192119Y-94208402D01*
X137192119Y-94208400D01*
X137193543Y-94203087D01*
X137213498Y-93975000D01*
X137193543Y-93746913D01*
X137134284Y-93525757D01*
X137075184Y-93399016D01*
X137039849Y-93323238D01*
X137039846Y-93323233D01*
X137037523Y-93318251D01*
X136939881Y-93178804D01*
X136909357Y-93135211D01*
X136909355Y-93135208D01*
X136906198Y-93130700D01*
X136744300Y-92968802D01*
X136739792Y-92965645D01*
X136739789Y-92965643D01*
X136661611Y-92910902D01*
X136556749Y-92837477D01*
X136551767Y-92835154D01*
X136551762Y-92835151D01*
X136517543Y-92819195D01*
X136464258Y-92772278D01*
X136444797Y-92704001D01*
X136465339Y-92636041D01*
X136517543Y-92590805D01*
X136551762Y-92574849D01*
X136551767Y-92574846D01*
X136556749Y-92572523D01*
X136718598Y-92459195D01*
X136739789Y-92444357D01*
X136739792Y-92444355D01*
X136744300Y-92441198D01*
X136906198Y-92279300D01*
X136910302Y-92273440D01*
X137034366Y-92096257D01*
X137037523Y-92091749D01*
X137039846Y-92086767D01*
X137039849Y-92086762D01*
X137131961Y-91889225D01*
X137131961Y-91889224D01*
X137134284Y-91884243D01*
X137179048Y-91717185D01*
X137192119Y-91668402D01*
X137192119Y-91668400D01*
X137193543Y-91663087D01*
X137213498Y-91435000D01*
X137193543Y-91206913D01*
X137134284Y-90985757D01*
X137075184Y-90859016D01*
X137039849Y-90783238D01*
X137039846Y-90783233D01*
X137037523Y-90778251D01*
X136939881Y-90638804D01*
X136909357Y-90595211D01*
X136909355Y-90595208D01*
X136906198Y-90590700D01*
X136744300Y-90428802D01*
X136739792Y-90425645D01*
X136739789Y-90425643D01*
X136661611Y-90370902D01*
X136556749Y-90297477D01*
X136551767Y-90295154D01*
X136551762Y-90295151D01*
X136517543Y-90279195D01*
X136464258Y-90232278D01*
X136444797Y-90164001D01*
X136465339Y-90096041D01*
X136517543Y-90050805D01*
X136551762Y-90034849D01*
X136551767Y-90034846D01*
X136556749Y-90032523D01*
X136718598Y-89919195D01*
X136739789Y-89904357D01*
X136739792Y-89904355D01*
X136744300Y-89901198D01*
X136906198Y-89739300D01*
X136910302Y-89733440D01*
X137034366Y-89556257D01*
X137037523Y-89551749D01*
X137039846Y-89546767D01*
X137039849Y-89546762D01*
X137131961Y-89349225D01*
X137131961Y-89349224D01*
X137134284Y-89344243D01*
X137179048Y-89177185D01*
X137192119Y-89128402D01*
X137192119Y-89128400D01*
X137193543Y-89123087D01*
X137213498Y-88895000D01*
X137193543Y-88666913D01*
X137134284Y-88445757D01*
X137075184Y-88319016D01*
X137039849Y-88243238D01*
X137039846Y-88243233D01*
X137037523Y-88238251D01*
X136939881Y-88098804D01*
X136909357Y-88055211D01*
X136909355Y-88055208D01*
X136906198Y-88050700D01*
X136744300Y-87888802D01*
X136739789Y-87885643D01*
X136735576Y-87882108D01*
X136736527Y-87880974D01*
X136696529Y-87830929D01*
X136689224Y-87760310D01*
X136721258Y-87696951D01*
X136782462Y-87660970D01*
X136799517Y-87657918D01*
X136810316Y-87656745D01*
X136946705Y-87605615D01*
X137063261Y-87518261D01*
X137150615Y-87401705D01*
X137201745Y-87265316D01*
X137208500Y-87203134D01*
X137208500Y-86083503D01*
X142238606Y-86083503D01*
X142238942Y-86097599D01*
X142246884Y-86101000D01*
X143247885Y-86101000D01*
X143263124Y-86096525D01*
X143264329Y-86095135D01*
X143266000Y-86087452D01*
X143266000Y-86082885D01*
X143774000Y-86082885D01*
X143778475Y-86098124D01*
X143779865Y-86099329D01*
X143787548Y-86101000D01*
X144787967Y-86101000D01*
X144801498Y-86097027D01*
X144802727Y-86088478D01*
X144755236Y-85911239D01*
X144751490Y-85900947D01*
X144659414Y-85703489D01*
X144653931Y-85693993D01*
X144528972Y-85515533D01*
X144521916Y-85507125D01*
X144367875Y-85353084D01*
X144359467Y-85346028D01*
X144181007Y-85221069D01*
X144171511Y-85215586D01*
X143974053Y-85123510D01*
X143963761Y-85119764D01*
X143791497Y-85073606D01*
X143777401Y-85073942D01*
X143774000Y-85081884D01*
X143774000Y-86082885D01*
X143266000Y-86082885D01*
X143266000Y-85087033D01*
X143262027Y-85073502D01*
X143253478Y-85072273D01*
X143076239Y-85119764D01*
X143065947Y-85123510D01*
X142868489Y-85215586D01*
X142858993Y-85221069D01*
X142680533Y-85346028D01*
X142672125Y-85353084D01*
X142518084Y-85507125D01*
X142511028Y-85515533D01*
X142386069Y-85693993D01*
X142380586Y-85703489D01*
X142288510Y-85900947D01*
X142284764Y-85911239D01*
X142238606Y-86083503D01*
X137208500Y-86083503D01*
X137208500Y-85506866D01*
X137201745Y-85444684D01*
X137150615Y-85308295D01*
X137063261Y-85191739D01*
X136946705Y-85104385D01*
X136810316Y-85053255D01*
X136748134Y-85046500D01*
X135051866Y-85046500D01*
X134989684Y-85053255D01*
X134853295Y-85104385D01*
X134736739Y-85191739D01*
X134649385Y-85308295D01*
X134598255Y-85444684D01*
X134591500Y-85506866D01*
X134591500Y-87203134D01*
X134598255Y-87265316D01*
X134649385Y-87401705D01*
X134736739Y-87518261D01*
X134853295Y-87605615D01*
X134989684Y-87656745D01*
X135000474Y-87657917D01*
X135002606Y-87658803D01*
X135005222Y-87659425D01*
X135005121Y-87659848D01*
X135066035Y-87685155D01*
X135106463Y-87743517D01*
X135108922Y-87814471D01*
X135072629Y-87875490D01*
X135063969Y-87882489D01*
X135060207Y-87885646D01*
X135055700Y-87888802D01*
X134893802Y-88050700D01*
X134890645Y-88055208D01*
X134890643Y-88055211D01*
X134860119Y-88098804D01*
X134762477Y-88238251D01*
X134760154Y-88243233D01*
X134760151Y-88243238D01*
X134724816Y-88319016D01*
X134665716Y-88445757D01*
X134606457Y-88666913D01*
X134586502Y-88895000D01*
X134606457Y-89123087D01*
X134607881Y-89128400D01*
X134607881Y-89128402D01*
X134620953Y-89177185D01*
X134665716Y-89344243D01*
X134668039Y-89349224D01*
X134668039Y-89349225D01*
X134760151Y-89546762D01*
X134760154Y-89546767D01*
X134762477Y-89551749D01*
X134765634Y-89556257D01*
X134889699Y-89733440D01*
X134893802Y-89739300D01*
X135055700Y-89901198D01*
X135060208Y-89904355D01*
X135060211Y-89904357D01*
X135081402Y-89919195D01*
X135243251Y-90032523D01*
X135248233Y-90034846D01*
X135248238Y-90034849D01*
X135282457Y-90050805D01*
X135335742Y-90097722D01*
X135355203Y-90165999D01*
X135334661Y-90233959D01*
X135282457Y-90279195D01*
X135248238Y-90295151D01*
X135248233Y-90295154D01*
X135243251Y-90297477D01*
X135138389Y-90370902D01*
X135060211Y-90425643D01*
X135060208Y-90425645D01*
X135055700Y-90428802D01*
X134893802Y-90590700D01*
X134890645Y-90595208D01*
X134890643Y-90595211D01*
X134860119Y-90638804D01*
X134762477Y-90778251D01*
X134760154Y-90783233D01*
X134760151Y-90783238D01*
X134724816Y-90859016D01*
X134665716Y-90985757D01*
X134606457Y-91206913D01*
X134586502Y-91435000D01*
X134606457Y-91663087D01*
X134607881Y-91668400D01*
X134607881Y-91668402D01*
X134620953Y-91717185D01*
X134665716Y-91884243D01*
X134668039Y-91889224D01*
X134668039Y-91889225D01*
X134760151Y-92086762D01*
X134760154Y-92086767D01*
X134762477Y-92091749D01*
X134765634Y-92096257D01*
X134889699Y-92273440D01*
X134893802Y-92279300D01*
X135055700Y-92441198D01*
X135060208Y-92444355D01*
X135060211Y-92444357D01*
X135081402Y-92459195D01*
X135243251Y-92572523D01*
X135248233Y-92574846D01*
X135248238Y-92574849D01*
X135282457Y-92590805D01*
X135335742Y-92637722D01*
X135355203Y-92705999D01*
X135334661Y-92773959D01*
X135282457Y-92819195D01*
X135248238Y-92835151D01*
X135248233Y-92835154D01*
X135243251Y-92837477D01*
X135138389Y-92910902D01*
X135060211Y-92965643D01*
X135060208Y-92965645D01*
X135055700Y-92968802D01*
X134893802Y-93130700D01*
X134890645Y-93135208D01*
X134890643Y-93135211D01*
X134860119Y-93178804D01*
X134762477Y-93318251D01*
X134760154Y-93323233D01*
X134760151Y-93323238D01*
X134724816Y-93399016D01*
X134665716Y-93525757D01*
X134606457Y-93746913D01*
X134586502Y-93975000D01*
X134606457Y-94203087D01*
X134607881Y-94208400D01*
X134607881Y-94208402D01*
X134620953Y-94257185D01*
X134665716Y-94424243D01*
X134668039Y-94429224D01*
X134668039Y-94429225D01*
X134760151Y-94626762D01*
X134760154Y-94626767D01*
X134762477Y-94631749D01*
X134765634Y-94636257D01*
X134889699Y-94813440D01*
X134893802Y-94819300D01*
X135055700Y-94981198D01*
X135060208Y-94984355D01*
X135060211Y-94984357D01*
X135081402Y-94999195D01*
X135243251Y-95112523D01*
X135248233Y-95114846D01*
X135248238Y-95114849D01*
X135282457Y-95130805D01*
X135335742Y-95177722D01*
X135355203Y-95245999D01*
X135334661Y-95313959D01*
X135282457Y-95359195D01*
X135248238Y-95375151D01*
X135248233Y-95375154D01*
X135243251Y-95377477D01*
X135231602Y-95385634D01*
X135060211Y-95505643D01*
X135060208Y-95505645D01*
X135055700Y-95508802D01*
X134893802Y-95670700D01*
X134890645Y-95675208D01*
X134890643Y-95675211D01*
X134860119Y-95718804D01*
X134762477Y-95858251D01*
X134760154Y-95863233D01*
X134760151Y-95863238D01*
X134724816Y-95939016D01*
X134665716Y-96065757D01*
X134606457Y-96286913D01*
X134586502Y-96515000D01*
X134606457Y-96743087D01*
X134607881Y-96748400D01*
X134607881Y-96748402D01*
X134657411Y-96933247D01*
X134665716Y-96964243D01*
X134668039Y-96969224D01*
X134668039Y-96969225D01*
X134760151Y-97166762D01*
X134760154Y-97166767D01*
X134762477Y-97171749D01*
X134798429Y-97223093D01*
X134889699Y-97353440D01*
X134893802Y-97359300D01*
X135055700Y-97521198D01*
X135060208Y-97524355D01*
X135060211Y-97524357D01*
X135097429Y-97550417D01*
X135243251Y-97652523D01*
X135248233Y-97654846D01*
X135248238Y-97654849D01*
X135282457Y-97670805D01*
X135335742Y-97717722D01*
X135355203Y-97785999D01*
X135334661Y-97853959D01*
X135282457Y-97899195D01*
X135248238Y-97915151D01*
X135248233Y-97915154D01*
X135243251Y-97917477D01*
X135138389Y-97990902D01*
X135060211Y-98045643D01*
X135060208Y-98045645D01*
X135055700Y-98048802D01*
X134893802Y-98210700D01*
X134890645Y-98215208D01*
X134890643Y-98215211D01*
X134860119Y-98258804D01*
X134762477Y-98398251D01*
X134760154Y-98403233D01*
X134760151Y-98403238D01*
X134724816Y-98479016D01*
X134665716Y-98605757D01*
X134606457Y-98826913D01*
X134586502Y-99055000D01*
X134606457Y-99283087D01*
X134607881Y-99288400D01*
X134607881Y-99288402D01*
X134620953Y-99337185D01*
X134665716Y-99504243D01*
X134668039Y-99509224D01*
X134668039Y-99509225D01*
X134760151Y-99706762D01*
X134760154Y-99706767D01*
X134762477Y-99711749D01*
X134765634Y-99716257D01*
X134889699Y-99893440D01*
X134893802Y-99899300D01*
X135055700Y-100061198D01*
X135060208Y-100064355D01*
X135060211Y-100064357D01*
X135081402Y-100079195D01*
X135243251Y-100192523D01*
X135248233Y-100194846D01*
X135248238Y-100194849D01*
X135282457Y-100210805D01*
X135335742Y-100257722D01*
X135355203Y-100325999D01*
X135334661Y-100393959D01*
X135282457Y-100439195D01*
X135248238Y-100455151D01*
X135248233Y-100455154D01*
X135243251Y-100457477D01*
X135138389Y-100530902D01*
X135060211Y-100585643D01*
X135060208Y-100585645D01*
X135055700Y-100588802D01*
X134893802Y-100750700D01*
X134890645Y-100755208D01*
X134890643Y-100755211D01*
X134860119Y-100798804D01*
X134762477Y-100938251D01*
X134760154Y-100943233D01*
X134760151Y-100943238D01*
X134724816Y-101019016D01*
X134665716Y-101145757D01*
X134606457Y-101366913D01*
X134586502Y-101595000D01*
X131443500Y-101595000D01*
X131443500Y-98104594D01*
X131463502Y-98036473D01*
X131480405Y-98015499D01*
X131666752Y-97829152D01*
X131729064Y-97795126D01*
X131788459Y-97796541D01*
X131846591Y-97812118D01*
X131846602Y-97812120D01*
X131851913Y-97813543D01*
X132080000Y-97833498D01*
X132308087Y-97813543D01*
X132313400Y-97812119D01*
X132313402Y-97812119D01*
X132523933Y-97755707D01*
X132523935Y-97755706D01*
X132529243Y-97754284D01*
X132576693Y-97732158D01*
X132731762Y-97659849D01*
X132731767Y-97659846D01*
X132736749Y-97657523D01*
X132874558Y-97561028D01*
X132919789Y-97529357D01*
X132919792Y-97529355D01*
X132924300Y-97526198D01*
X133086198Y-97364300D01*
X133093803Y-97353440D01*
X133185072Y-97223093D01*
X133217523Y-97176749D01*
X133219846Y-97171767D01*
X133219849Y-97171762D01*
X133311961Y-96974225D01*
X133311961Y-96974224D01*
X133314284Y-96969243D01*
X133356541Y-96811541D01*
X133372119Y-96753402D01*
X133372120Y-96753398D01*
X133373543Y-96748087D01*
X133393498Y-96520000D01*
X133373543Y-96291913D01*
X133314284Y-96070757D01*
X133311961Y-96065775D01*
X133219849Y-95868238D01*
X133219846Y-95868233D01*
X133217523Y-95863251D01*
X133116380Y-95718804D01*
X133089357Y-95680211D01*
X133089355Y-95680208D01*
X133086198Y-95675700D01*
X132924300Y-95513802D01*
X132919792Y-95510645D01*
X132919789Y-95510643D01*
X132841611Y-95455902D01*
X132736749Y-95382477D01*
X132731767Y-95380154D01*
X132731762Y-95380151D01*
X132534225Y-95288039D01*
X132534224Y-95288039D01*
X132529243Y-95285716D01*
X132523935Y-95284294D01*
X132523933Y-95284293D01*
X132313402Y-95227881D01*
X132313400Y-95227881D01*
X132308087Y-95226457D01*
X132080000Y-95206502D01*
X131851913Y-95226457D01*
X131846600Y-95227881D01*
X131846598Y-95227881D01*
X131636067Y-95284293D01*
X131636065Y-95284294D01*
X131630757Y-95285716D01*
X131625776Y-95288039D01*
X131625775Y-95288039D01*
X131428238Y-95380151D01*
X131428233Y-95380154D01*
X131423251Y-95382477D01*
X131318389Y-95455902D01*
X131240211Y-95510643D01*
X131240208Y-95510645D01*
X131235700Y-95513802D01*
X131073802Y-95675700D01*
X131070645Y-95680208D01*
X131070643Y-95680211D01*
X131043620Y-95718804D01*
X130942477Y-95863251D01*
X130940154Y-95868233D01*
X130940151Y-95868238D01*
X130848039Y-96065775D01*
X130845716Y-96070757D01*
X130786457Y-96291913D01*
X130766502Y-96520000D01*
X130786457Y-96748087D01*
X130797069Y-96787689D01*
X130803460Y-96811541D01*
X130801770Y-96882518D01*
X130770848Y-96933247D01*
X130417747Y-97286348D01*
X130409461Y-97293888D01*
X130402982Y-97298000D01*
X130397557Y-97303777D01*
X130356357Y-97347651D01*
X130353602Y-97350493D01*
X130333865Y-97370230D01*
X130331385Y-97373427D01*
X130323682Y-97382447D01*
X130293414Y-97414679D01*
X130289595Y-97421625D01*
X130289593Y-97421628D01*
X130283652Y-97432434D01*
X130272801Y-97448953D01*
X130260386Y-97464959D01*
X130257241Y-97472228D01*
X130257238Y-97472232D01*
X130242826Y-97505537D01*
X130237609Y-97516187D01*
X130216305Y-97554940D01*
X130214334Y-97562615D01*
X130214334Y-97562616D01*
X130211267Y-97574562D01*
X130204863Y-97593266D01*
X130196819Y-97611855D01*
X130195580Y-97619678D01*
X130195577Y-97619688D01*
X130189901Y-97655524D01*
X130187495Y-97667144D01*
X130183845Y-97681362D01*
X130176500Y-97709970D01*
X130176500Y-97730224D01*
X130174949Y-97749934D01*
X130171780Y-97769943D01*
X130172526Y-97777835D01*
X130175941Y-97813961D01*
X130176500Y-97825819D01*
X130176500Y-107885319D01*
X130156498Y-107953440D01*
X130108679Y-107997083D01*
X130056872Y-108024052D01*
X130041999Y-108035219D01*
X129912392Y-108132531D01*
X129871655Y-108163117D01*
X129815088Y-108222311D01*
X129738643Y-108302306D01*
X129677119Y-108337736D01*
X129606206Y-108334279D01*
X129548420Y-108293033D01*
X129533354Y-108268505D01*
X129511814Y-108222311D01*
X129511811Y-108222306D01*
X129509488Y-108217324D01*
X129505330Y-108211386D01*
X129385136Y-108039730D01*
X129385134Y-108039727D01*
X129381977Y-108035219D01*
X129224781Y-107878023D01*
X129220273Y-107874866D01*
X129220270Y-107874864D01*
X129138867Y-107817865D01*
X129042677Y-107750512D01*
X129037695Y-107748189D01*
X129037690Y-107748186D01*
X128932627Y-107699195D01*
X128879342Y-107652278D01*
X128859881Y-107584001D01*
X128880423Y-107516041D01*
X128932627Y-107470805D01*
X129037690Y-107421814D01*
X129037695Y-107421811D01*
X129042677Y-107419488D01*
X129144505Y-107348187D01*
X129220270Y-107295136D01*
X129220273Y-107295134D01*
X129224781Y-107291977D01*
X129381977Y-107134781D01*
X129509488Y-106952676D01*
X129511811Y-106947694D01*
X129511814Y-106947689D01*
X129601117Y-106756178D01*
X129601118Y-106756177D01*
X129603440Y-106751196D01*
X129660978Y-106536463D01*
X129680353Y-106315000D01*
X129660978Y-106093537D01*
X129603440Y-105878804D01*
X129601117Y-105873822D01*
X129511814Y-105682311D01*
X129511811Y-105682306D01*
X129509488Y-105677324D01*
X129381977Y-105495219D01*
X129224781Y-105338023D01*
X129220273Y-105334866D01*
X129220270Y-105334864D01*
X129144505Y-105281813D01*
X129042677Y-105210512D01*
X129037695Y-105208189D01*
X129037690Y-105208186D01*
X128932627Y-105159195D01*
X128879342Y-105112278D01*
X128859881Y-105044001D01*
X128880423Y-104976041D01*
X128932627Y-104930805D01*
X129037690Y-104881814D01*
X129037695Y-104881811D01*
X129042677Y-104879488D01*
X129144505Y-104808187D01*
X129220270Y-104755136D01*
X129220273Y-104755134D01*
X129224781Y-104751977D01*
X129381977Y-104594781D01*
X129509488Y-104412676D01*
X129511811Y-104407694D01*
X129511814Y-104407689D01*
X129601117Y-104216178D01*
X129601118Y-104216177D01*
X129603440Y-104211196D01*
X129660978Y-103996463D01*
X129680353Y-103775000D01*
X129660978Y-103553537D01*
X129603440Y-103338804D01*
X129601117Y-103333822D01*
X129511814Y-103142311D01*
X129511811Y-103142306D01*
X129509488Y-103137324D01*
X129381977Y-102955219D01*
X129224781Y-102798023D01*
X129220273Y-102794866D01*
X129220270Y-102794864D01*
X129126729Y-102729366D01*
X129042677Y-102670512D01*
X129037695Y-102668189D01*
X129037690Y-102668186D01*
X128932627Y-102619195D01*
X128879342Y-102572278D01*
X128859881Y-102504001D01*
X128880423Y-102436041D01*
X128932627Y-102390805D01*
X129037690Y-102341814D01*
X129037695Y-102341811D01*
X129042677Y-102339488D01*
X129175103Y-102246762D01*
X129220270Y-102215136D01*
X129220273Y-102215134D01*
X129224781Y-102211977D01*
X129381977Y-102054781D01*
X129385868Y-102049225D01*
X129506331Y-101877185D01*
X129506332Y-101877183D01*
X129509488Y-101872676D01*
X129511811Y-101867694D01*
X129511814Y-101867689D01*
X129601117Y-101676178D01*
X129601118Y-101676177D01*
X129603440Y-101671196D01*
X129660978Y-101456463D01*
X129680353Y-101235000D01*
X129660978Y-101013537D01*
X129603440Y-100798804D01*
X129601117Y-100793822D01*
X129511814Y-100602311D01*
X129511811Y-100602306D01*
X129509488Y-100597324D01*
X129413777Y-100460634D01*
X129385136Y-100419730D01*
X129385134Y-100419727D01*
X129381977Y-100415219D01*
X129224781Y-100258023D01*
X129220273Y-100254866D01*
X129220270Y-100254864D01*
X129126729Y-100189366D01*
X129042677Y-100130512D01*
X129037695Y-100128189D01*
X129037690Y-100128186D01*
X128932627Y-100079195D01*
X128879342Y-100032278D01*
X128859881Y-99964001D01*
X128880423Y-99896041D01*
X128932627Y-99850805D01*
X129037690Y-99801814D01*
X129037695Y-99801811D01*
X129042677Y-99799488D01*
X129175103Y-99706762D01*
X129220270Y-99675136D01*
X129220273Y-99675134D01*
X129224781Y-99671977D01*
X129381977Y-99514781D01*
X129385868Y-99509225D01*
X129506331Y-99337185D01*
X129506332Y-99337183D01*
X129509488Y-99332676D01*
X129511811Y-99327694D01*
X129511814Y-99327689D01*
X129601117Y-99136178D01*
X129601118Y-99136177D01*
X129603440Y-99131196D01*
X129660978Y-98916463D01*
X129680353Y-98695000D01*
X129660978Y-98473537D01*
X129603440Y-98258804D01*
X129601117Y-98253822D01*
X129511814Y-98062311D01*
X129511811Y-98062306D01*
X129509488Y-98057324D01*
X129413777Y-97920634D01*
X129385136Y-97879730D01*
X129385134Y-97879727D01*
X129381977Y-97875219D01*
X129224781Y-97718023D01*
X129220273Y-97714866D01*
X129220270Y-97714864D01*
X129110771Y-97638192D01*
X129042677Y-97590512D01*
X129037695Y-97588189D01*
X129037690Y-97588186D01*
X128932627Y-97539195D01*
X128879342Y-97492278D01*
X128859881Y-97424001D01*
X128880423Y-97356041D01*
X128932627Y-97310805D01*
X129037690Y-97261814D01*
X129037695Y-97261811D01*
X129042677Y-97259488D01*
X129175103Y-97166762D01*
X129220270Y-97135136D01*
X129220273Y-97135134D01*
X129224781Y-97131977D01*
X129381977Y-96974781D01*
X129385868Y-96969225D01*
X129506331Y-96797185D01*
X129506332Y-96797183D01*
X129509488Y-96792676D01*
X129511811Y-96787694D01*
X129511814Y-96787689D01*
X129601117Y-96596178D01*
X129601118Y-96596177D01*
X129603440Y-96591196D01*
X129660978Y-96376463D01*
X129680353Y-96155000D01*
X129660978Y-95933537D01*
X129603440Y-95718804D01*
X129601117Y-95713822D01*
X129511814Y-95522311D01*
X129511811Y-95522306D01*
X129509488Y-95517324D01*
X129417278Y-95385634D01*
X129385136Y-95339730D01*
X129385134Y-95339727D01*
X129381977Y-95335219D01*
X129224781Y-95178023D01*
X129220273Y-95174866D01*
X129220270Y-95174864D01*
X129126729Y-95109366D01*
X129042677Y-95050512D01*
X129037695Y-95048189D01*
X129037690Y-95048186D01*
X128932627Y-94999195D01*
X128879342Y-94952278D01*
X128859881Y-94884001D01*
X128880423Y-94816041D01*
X128932627Y-94770805D01*
X129037690Y-94721814D01*
X129037695Y-94721811D01*
X129042677Y-94719488D01*
X129176500Y-94625784D01*
X129220270Y-94595136D01*
X129220273Y-94595134D01*
X129224781Y-94591977D01*
X129381977Y-94434781D01*
X129385868Y-94429225D01*
X129506331Y-94257185D01*
X129506332Y-94257183D01*
X129509488Y-94252676D01*
X129511811Y-94247694D01*
X129511814Y-94247689D01*
X129601117Y-94056178D01*
X129601118Y-94056177D01*
X129603440Y-94051196D01*
X129660978Y-93836463D01*
X129680353Y-93615000D01*
X129660978Y-93393537D01*
X129603440Y-93178804D01*
X129601117Y-93173822D01*
X129511814Y-92982311D01*
X129511811Y-92982306D01*
X129509488Y-92977324D01*
X129413777Y-92840634D01*
X129385136Y-92799730D01*
X129385134Y-92799727D01*
X129381977Y-92795219D01*
X129224781Y-92638023D01*
X129220273Y-92634866D01*
X129220270Y-92634864D01*
X129126729Y-92569366D01*
X129042677Y-92510512D01*
X129037695Y-92508189D01*
X129037690Y-92508186D01*
X128932627Y-92459195D01*
X128879342Y-92412278D01*
X128859881Y-92344001D01*
X128880423Y-92276041D01*
X128932627Y-92230805D01*
X129037690Y-92181814D01*
X129037695Y-92181811D01*
X129042677Y-92179488D01*
X129176500Y-92085784D01*
X129220270Y-92055136D01*
X129220273Y-92055134D01*
X129224781Y-92051977D01*
X129381977Y-91894781D01*
X129385868Y-91889225D01*
X129506331Y-91717185D01*
X129506332Y-91717183D01*
X129509488Y-91712676D01*
X129511811Y-91707694D01*
X129511814Y-91707689D01*
X129601117Y-91516178D01*
X129601118Y-91516177D01*
X129603440Y-91511196D01*
X129660978Y-91296463D01*
X129680353Y-91075000D01*
X129660978Y-90853537D01*
X129603440Y-90638804D01*
X129601117Y-90633822D01*
X129511814Y-90442311D01*
X129511811Y-90442306D01*
X129509488Y-90437324D01*
X129413777Y-90300634D01*
X129385136Y-90259730D01*
X129385134Y-90259727D01*
X129381977Y-90255219D01*
X129224781Y-90098023D01*
X129220273Y-90094866D01*
X129220270Y-90094864D01*
X129126729Y-90029366D01*
X129042677Y-89970512D01*
X129037695Y-89968189D01*
X129037690Y-89968186D01*
X128932627Y-89919195D01*
X128879342Y-89872278D01*
X128859881Y-89804001D01*
X128880423Y-89736041D01*
X128932627Y-89690805D01*
X129037690Y-89641814D01*
X129037695Y-89641811D01*
X129042677Y-89639488D01*
X129176500Y-89545784D01*
X129220270Y-89515136D01*
X129220273Y-89515134D01*
X129224781Y-89511977D01*
X129381977Y-89354781D01*
X129385868Y-89349225D01*
X129506331Y-89177185D01*
X129506332Y-89177183D01*
X129509488Y-89172676D01*
X129511811Y-89167694D01*
X129511814Y-89167689D01*
X129601117Y-88976178D01*
X129601118Y-88976177D01*
X129603440Y-88971196D01*
X129660978Y-88756463D01*
X129680353Y-88535000D01*
X129660978Y-88313537D01*
X129603440Y-88098804D01*
X129601117Y-88093822D01*
X129511814Y-87902311D01*
X129511811Y-87902306D01*
X129509488Y-87897324D01*
X129501309Y-87885643D01*
X129385136Y-87719730D01*
X129385134Y-87719727D01*
X129381977Y-87715219D01*
X129224781Y-87558023D01*
X129220273Y-87554866D01*
X129220270Y-87554864D01*
X129126108Y-87488931D01*
X129042677Y-87430512D01*
X129037695Y-87428189D01*
X129037690Y-87428186D01*
X128932627Y-87379195D01*
X128879342Y-87332278D01*
X128859881Y-87264001D01*
X128880423Y-87196041D01*
X128932627Y-87150805D01*
X129037690Y-87101814D01*
X129037695Y-87101811D01*
X129042677Y-87099488D01*
X129167962Y-87011762D01*
X129220270Y-86975136D01*
X129220273Y-86975134D01*
X129224781Y-86971977D01*
X129381977Y-86814781D01*
X129393195Y-86798761D01*
X129506331Y-86637185D01*
X129506332Y-86637183D01*
X129509488Y-86632676D01*
X129511811Y-86627694D01*
X129511814Y-86627689D01*
X129601117Y-86436178D01*
X129601118Y-86436177D01*
X129603440Y-86431196D01*
X129622517Y-86360000D01*
X130766502Y-86360000D01*
X130786457Y-86588087D01*
X130787881Y-86593400D01*
X130787881Y-86593402D01*
X130813557Y-86689223D01*
X130845716Y-86809243D01*
X130848039Y-86814224D01*
X130848039Y-86814225D01*
X130940151Y-87011762D01*
X130940154Y-87011767D01*
X130942477Y-87016749D01*
X130969071Y-87054729D01*
X131069003Y-87197446D01*
X131073802Y-87204300D01*
X131235700Y-87366198D01*
X131240208Y-87369355D01*
X131240211Y-87369357D01*
X131271135Y-87391010D01*
X131423251Y-87497523D01*
X131428233Y-87499846D01*
X131428238Y-87499849D01*
X131625775Y-87591961D01*
X131630757Y-87594284D01*
X131636065Y-87595706D01*
X131636067Y-87595707D01*
X131846598Y-87652119D01*
X131846600Y-87652119D01*
X131851913Y-87653543D01*
X132080000Y-87673498D01*
X132308087Y-87653543D01*
X132313400Y-87652119D01*
X132313402Y-87652119D01*
X132523933Y-87595707D01*
X132523935Y-87595706D01*
X132529243Y-87594284D01*
X132534225Y-87591961D01*
X132731762Y-87499849D01*
X132731767Y-87499846D01*
X132736749Y-87497523D01*
X132888865Y-87391010D01*
X132919789Y-87369357D01*
X132919792Y-87369355D01*
X132924300Y-87366198D01*
X133086198Y-87204300D01*
X133090998Y-87197446D01*
X133190929Y-87054729D01*
X133217523Y-87016749D01*
X133219846Y-87011767D01*
X133219849Y-87011762D01*
X133311961Y-86814225D01*
X133311961Y-86814224D01*
X133314284Y-86809243D01*
X133346444Y-86689223D01*
X133372119Y-86593402D01*
X133372119Y-86593400D01*
X133373543Y-86588087D01*
X133393498Y-86360000D01*
X133373543Y-86131913D01*
X133361630Y-86087452D01*
X133315707Y-85916067D01*
X133315706Y-85916065D01*
X133314284Y-85910757D01*
X133247860Y-85768309D01*
X133219849Y-85708238D01*
X133219846Y-85708233D01*
X133217523Y-85703251D01*
X133113011Y-85553993D01*
X133089357Y-85520211D01*
X133089355Y-85520208D01*
X133086198Y-85515700D01*
X132924300Y-85353802D01*
X132919792Y-85350645D01*
X132919789Y-85350643D01*
X132841611Y-85295902D01*
X132736749Y-85222477D01*
X132731767Y-85220154D01*
X132731762Y-85220151D01*
X132534225Y-85128039D01*
X132534224Y-85128039D01*
X132529243Y-85125716D01*
X132523935Y-85124294D01*
X132523933Y-85124293D01*
X132313402Y-85067881D01*
X132313400Y-85067881D01*
X132308087Y-85066457D01*
X132080000Y-85046502D01*
X131851913Y-85066457D01*
X131846600Y-85067881D01*
X131846598Y-85067881D01*
X131636067Y-85124293D01*
X131636065Y-85124294D01*
X131630757Y-85125716D01*
X131625776Y-85128039D01*
X131625775Y-85128039D01*
X131428238Y-85220151D01*
X131428233Y-85220154D01*
X131423251Y-85222477D01*
X131318389Y-85295902D01*
X131240211Y-85350643D01*
X131240208Y-85350645D01*
X131235700Y-85353802D01*
X131073802Y-85515700D01*
X131070645Y-85520208D01*
X131070643Y-85520211D01*
X131046989Y-85553993D01*
X130942477Y-85703251D01*
X130940154Y-85708233D01*
X130940151Y-85708238D01*
X130912140Y-85768309D01*
X130845716Y-85910757D01*
X130844294Y-85916065D01*
X130844293Y-85916067D01*
X130798370Y-86087452D01*
X130786457Y-86131913D01*
X130766502Y-86360000D01*
X129622517Y-86360000D01*
X129660978Y-86216463D01*
X129680353Y-85995000D01*
X129660978Y-85773537D01*
X129603440Y-85558804D01*
X129583340Y-85515700D01*
X129511814Y-85362311D01*
X129511811Y-85362306D01*
X129509488Y-85357324D01*
X129504810Y-85350643D01*
X129385136Y-85179730D01*
X129385134Y-85179727D01*
X129381977Y-85175219D01*
X129224781Y-85018023D01*
X129220273Y-85014866D01*
X129220270Y-85014864D01*
X129144505Y-84961813D01*
X129042677Y-84890512D01*
X129037695Y-84888189D01*
X129037690Y-84888186D01*
X128932627Y-84839195D01*
X128879342Y-84792278D01*
X128859881Y-84724001D01*
X128880423Y-84656041D01*
X128932627Y-84610805D01*
X129037690Y-84561814D01*
X129037695Y-84561811D01*
X129042677Y-84559488D01*
X129176500Y-84465784D01*
X129220270Y-84435136D01*
X129220273Y-84435134D01*
X129224781Y-84431977D01*
X129381977Y-84274781D01*
X129509488Y-84092676D01*
X129511811Y-84087694D01*
X129511814Y-84087689D01*
X129601117Y-83896178D01*
X129601118Y-83896177D01*
X129603440Y-83891196D01*
X129660978Y-83676463D01*
X129680353Y-83455000D01*
X129660978Y-83233537D01*
X129610306Y-83044429D01*
X129604863Y-83024114D01*
X129604862Y-83024112D01*
X129603440Y-83018804D01*
X129601117Y-83013822D01*
X129532275Y-82866190D01*
X129521614Y-82795998D01*
X129550594Y-82731186D01*
X129610014Y-82692329D01*
X129646470Y-82686940D01*
X131227793Y-82686940D01*
X131238976Y-82687467D01*
X131246469Y-82689142D01*
X131254395Y-82688893D01*
X131254396Y-82688893D01*
X131314546Y-82687002D01*
X131318505Y-82686940D01*
X131346416Y-82686940D01*
X131350351Y-82686443D01*
X131350416Y-82686435D01*
X131362253Y-82685502D01*
X131394511Y-82684488D01*
X131398530Y-82684362D01*
X131406449Y-82684113D01*
X131425903Y-82678461D01*
X131445260Y-82674453D01*
X131457490Y-82672908D01*
X131457491Y-82672908D01*
X131465357Y-82671914D01*
X131472728Y-82668995D01*
X131472730Y-82668995D01*
X131506472Y-82655636D01*
X131517702Y-82651791D01*
X131552543Y-82641669D01*
X131552544Y-82641669D01*
X131560153Y-82639458D01*
X131566972Y-82635425D01*
X131566977Y-82635423D01*
X131577588Y-82629147D01*
X131595336Y-82620452D01*
X131614177Y-82612992D01*
X131649947Y-82587004D01*
X131659867Y-82580488D01*
X131691095Y-82562020D01*
X131691098Y-82562018D01*
X131697922Y-82557982D01*
X131712243Y-82543661D01*
X131727277Y-82530820D01*
X131737254Y-82523571D01*
X131743667Y-82518912D01*
X131771858Y-82484835D01*
X131779848Y-82476056D01*
X133971235Y-80284669D01*
X137692001Y-80284669D01*
X137692371Y-80291490D01*
X137697895Y-80342352D01*
X137701521Y-80357604D01*
X137746676Y-80478054D01*
X137755214Y-80493649D01*
X137831715Y-80595724D01*
X137844276Y-80608285D01*
X137946351Y-80684786D01*
X137961946Y-80693324D01*
X138082394Y-80738478D01*
X138097649Y-80742105D01*
X138148514Y-80747631D01*
X138155328Y-80748000D01*
X139427885Y-80748000D01*
X139443124Y-80743525D01*
X139444329Y-80742135D01*
X139446000Y-80734452D01*
X139446000Y-80729884D01*
X139954000Y-80729884D01*
X139958475Y-80745123D01*
X139959865Y-80746328D01*
X139967548Y-80747999D01*
X141244669Y-80747999D01*
X141251490Y-80747629D01*
X141302352Y-80742105D01*
X141317604Y-80738479D01*
X141438054Y-80693324D01*
X141453649Y-80684786D01*
X141555724Y-80608285D01*
X141568285Y-80595724D01*
X141644786Y-80493649D01*
X141653324Y-80478054D01*
X141698478Y-80357606D01*
X141702105Y-80342351D01*
X141707631Y-80291486D01*
X141708000Y-80284672D01*
X141708000Y-79012115D01*
X141703525Y-78996876D01*
X141702135Y-78995671D01*
X141694452Y-78994000D01*
X139972115Y-78994000D01*
X139956876Y-78998475D01*
X139955671Y-78999865D01*
X139954000Y-79007548D01*
X139954000Y-80729884D01*
X139446000Y-80729884D01*
X139446000Y-79012115D01*
X139441525Y-78996876D01*
X139440135Y-78995671D01*
X139432452Y-78994000D01*
X137710116Y-78994000D01*
X137694877Y-78998475D01*
X137693672Y-78999865D01*
X137692001Y-79007548D01*
X137692001Y-80284669D01*
X133971235Y-80284669D01*
X135788019Y-78467885D01*
X137692000Y-78467885D01*
X137696475Y-78483124D01*
X137697865Y-78484329D01*
X137705548Y-78486000D01*
X139427885Y-78486000D01*
X139443124Y-78481525D01*
X139444329Y-78480135D01*
X139446000Y-78472452D01*
X139446000Y-78467885D01*
X139954000Y-78467885D01*
X139958475Y-78483124D01*
X139959865Y-78484329D01*
X139967548Y-78486000D01*
X141689884Y-78486000D01*
X141705123Y-78481525D01*
X141706328Y-78480135D01*
X141707999Y-78472452D01*
X141707999Y-77195331D01*
X141707629Y-77188510D01*
X141702105Y-77137648D01*
X141698479Y-77122396D01*
X141653324Y-77001946D01*
X141644786Y-76986351D01*
X141568285Y-76884276D01*
X141555724Y-76871715D01*
X141453649Y-76795214D01*
X141438054Y-76786676D01*
X141317606Y-76741522D01*
X141302351Y-76737895D01*
X141251486Y-76732369D01*
X141244672Y-76732000D01*
X139972115Y-76732000D01*
X139956876Y-76736475D01*
X139955671Y-76737865D01*
X139954000Y-76745548D01*
X139954000Y-78467885D01*
X139446000Y-78467885D01*
X139446000Y-76750116D01*
X139441525Y-76734877D01*
X139440135Y-76733672D01*
X139432452Y-76732001D01*
X138155331Y-76732001D01*
X138148510Y-76732371D01*
X138097648Y-76737895D01*
X138082396Y-76741521D01*
X137961946Y-76786676D01*
X137946351Y-76795214D01*
X137844276Y-76871715D01*
X137831715Y-76884276D01*
X137755214Y-76986351D01*
X137746676Y-77001946D01*
X137701522Y-77122394D01*
X137697895Y-77137649D01*
X137692369Y-77188514D01*
X137692000Y-77195328D01*
X137692000Y-78467885D01*
X135788019Y-78467885D01*
X138737382Y-75518522D01*
X138799694Y-75484496D01*
X138870509Y-75489561D01*
X138878328Y-75492780D01*
X138994345Y-75545164D01*
X138994349Y-75545166D01*
X138998257Y-75546930D01*
X139002377Y-75548150D01*
X139002376Y-75548150D01*
X139256723Y-75623491D01*
X139256727Y-75623492D01*
X139260836Y-75624709D01*
X139265070Y-75625357D01*
X139265075Y-75625358D01*
X139527298Y-75665483D01*
X139527300Y-75665483D01*
X139531540Y-75666132D01*
X139670912Y-75668322D01*
X139801071Y-75670367D01*
X139801077Y-75670367D01*
X139805362Y-75670434D01*
X140077235Y-75637534D01*
X140342127Y-75568041D01*
X140346087Y-75566401D01*
X140346092Y-75566399D01*
X140468632Y-75515641D01*
X140595136Y-75463241D01*
X140831582Y-75325073D01*
X141047089Y-75156094D01*
X141237669Y-74959431D01*
X141240202Y-74955983D01*
X141240206Y-74955978D01*
X141397257Y-74742178D01*
X141399795Y-74738723D01*
X141496766Y-74560126D01*
X141528418Y-74501830D01*
X141528419Y-74501828D01*
X141530468Y-74498054D01*
X141627269Y-74241877D01*
X141688407Y-73974933D01*
X141712751Y-73702161D01*
X141713193Y-73660000D01*
X141694567Y-73386778D01*
X141639032Y-73118612D01*
X141547617Y-72860465D01*
X141422013Y-72617112D01*
X141412040Y-72602921D01*
X141267008Y-72396562D01*
X141264545Y-72393057D01*
X141078125Y-72192445D01*
X141074810Y-72189731D01*
X141074806Y-72189728D01*
X140869523Y-72021706D01*
X140866205Y-72018990D01*
X140632704Y-71875901D01*
X140628768Y-71874173D01*
X140385873Y-71767549D01*
X140385869Y-71767548D01*
X140381945Y-71765825D01*
X140118566Y-71690800D01*
X140114324Y-71690196D01*
X140114318Y-71690195D01*
X139913834Y-71661662D01*
X139847443Y-71652213D01*
X139703589Y-71651460D01*
X139577877Y-71650802D01*
X139577871Y-71650802D01*
X139573591Y-71650780D01*
X139569347Y-71651339D01*
X139569343Y-71651339D01*
X139450302Y-71667011D01*
X139302078Y-71686525D01*
X139297938Y-71687658D01*
X139297936Y-71687658D01*
X139225008Y-71707609D01*
X139037928Y-71758788D01*
X139033980Y-71760472D01*
X138789982Y-71864546D01*
X138789978Y-71864548D01*
X138786030Y-71866232D01*
X138766125Y-71878145D01*
X138554725Y-72004664D01*
X138554721Y-72004667D01*
X138551043Y-72006868D01*
X138337318Y-72178094D01*
X138148808Y-72376742D01*
X137989002Y-72599136D01*
X137860857Y-72841161D01*
X137859385Y-72845184D01*
X137859383Y-72845188D01*
X137852314Y-72864506D01*
X137766743Y-73098337D01*
X137708404Y-73365907D01*
X137686917Y-73638918D01*
X137702682Y-73912320D01*
X137703507Y-73916525D01*
X137703508Y-73916533D01*
X137714127Y-73970657D01*
X137755405Y-74181053D01*
X137756792Y-74185103D01*
X137756793Y-74185108D01*
X137777605Y-74245895D01*
X137844112Y-74440144D01*
X137846037Y-74443971D01*
X137846041Y-74443981D01*
X137863387Y-74478468D01*
X137876127Y-74548312D01*
X137849083Y-74613956D01*
X137839918Y-74624178D01*
X131081060Y-81383035D01*
X131018748Y-81417061D01*
X130991965Y-81419940D01*
X129749227Y-81419940D01*
X129681106Y-81399938D01*
X129634613Y-81346282D01*
X129624509Y-81276008D01*
X129627520Y-81261329D01*
X129659554Y-81141776D01*
X129660978Y-81136463D01*
X129680353Y-80915000D01*
X129660978Y-80693537D01*
X129603440Y-80478804D01*
X129601117Y-80473822D01*
X129511814Y-80282311D01*
X129511811Y-80282306D01*
X129509488Y-80277324D01*
X129381977Y-80095219D01*
X129224781Y-79938023D01*
X129220273Y-79934866D01*
X129220270Y-79934864D01*
X129144505Y-79881813D01*
X129042677Y-79810512D01*
X129037695Y-79808189D01*
X129037690Y-79808186D01*
X128932627Y-79759195D01*
X128879342Y-79712278D01*
X128859881Y-79644001D01*
X128880423Y-79576041D01*
X128932627Y-79530805D01*
X129037690Y-79481814D01*
X129037695Y-79481811D01*
X129042677Y-79479488D01*
X129144505Y-79408187D01*
X129220270Y-79355136D01*
X129220273Y-79355134D01*
X129224781Y-79351977D01*
X129381977Y-79194781D01*
X129509488Y-79012676D01*
X129511811Y-79007694D01*
X129511814Y-79007689D01*
X129601117Y-78816178D01*
X129601118Y-78816177D01*
X129603440Y-78811196D01*
X129660978Y-78596463D01*
X129680353Y-78375000D01*
X129660978Y-78153537D01*
X129603440Y-77938804D01*
X129601117Y-77933822D01*
X129511814Y-77742311D01*
X129511811Y-77742306D01*
X129509488Y-77737324D01*
X129381977Y-77555219D01*
X129224781Y-77398023D01*
X129220273Y-77394866D01*
X129220270Y-77394864D01*
X129144505Y-77341813D01*
X129042677Y-77270512D01*
X129037695Y-77268189D01*
X129037690Y-77268186D01*
X128932627Y-77219195D01*
X128879342Y-77172278D01*
X128859881Y-77104001D01*
X128880423Y-77036041D01*
X128932627Y-76990805D01*
X129037690Y-76941814D01*
X129037695Y-76941811D01*
X129042677Y-76939488D01*
X129144505Y-76868187D01*
X129220270Y-76815136D01*
X129220273Y-76815134D01*
X129224781Y-76811977D01*
X129381977Y-76654781D01*
X129509488Y-76472676D01*
X129511811Y-76467694D01*
X129511814Y-76467689D01*
X129601117Y-76276178D01*
X129601118Y-76276177D01*
X129603440Y-76271196D01*
X129660978Y-76056463D01*
X129680353Y-75835000D01*
X129660978Y-75613537D01*
X129603440Y-75398804D01*
X129601117Y-75393822D01*
X129511814Y-75202311D01*
X129511811Y-75202306D01*
X129509488Y-75197324D01*
X129381977Y-75015219D01*
X129224781Y-74858023D01*
X129220273Y-74854866D01*
X129220270Y-74854864D01*
X129144505Y-74801813D01*
X129042677Y-74730512D01*
X129037695Y-74728189D01*
X129037690Y-74728186D01*
X128846178Y-74638883D01*
X128846177Y-74638882D01*
X128841196Y-74636560D01*
X128835888Y-74635138D01*
X128835886Y-74635137D01*
X128756837Y-74613956D01*
X128626463Y-74579022D01*
X128405000Y-74559647D01*
X128183537Y-74579022D01*
X128053163Y-74613956D01*
X127974114Y-74635137D01*
X127974112Y-74635138D01*
X127968804Y-74636560D01*
X127963823Y-74638882D01*
X127963822Y-74638883D01*
X127772311Y-74728186D01*
X127772306Y-74728189D01*
X127767324Y-74730512D01*
X127762817Y-74733668D01*
X127762815Y-74733669D01*
X127589730Y-74854864D01*
X127589727Y-74854866D01*
X127585219Y-74858023D01*
X127428023Y-75015219D01*
X127300512Y-75197324D01*
X127298189Y-75202306D01*
X127298186Y-75202311D01*
X127208883Y-75393822D01*
X127206560Y-75398804D01*
X127149022Y-75613537D01*
X127129647Y-75835000D01*
X127149022Y-76056463D01*
X127206560Y-76271196D01*
X127208882Y-76276177D01*
X127208883Y-76276178D01*
X127298186Y-76467689D01*
X127298189Y-76467694D01*
X127300512Y-76472676D01*
X127428023Y-76654781D01*
X127585219Y-76811977D01*
X127589727Y-76815134D01*
X127589730Y-76815136D01*
X127665495Y-76868187D01*
X127767323Y-76939488D01*
X127772305Y-76941811D01*
X127772310Y-76941814D01*
X127877373Y-76990805D01*
X127930658Y-77037722D01*
X127950119Y-77105999D01*
X127929577Y-77173959D01*
X127877373Y-77219195D01*
X127772311Y-77268186D01*
X127772306Y-77268189D01*
X127767324Y-77270512D01*
X127762817Y-77273668D01*
X127762815Y-77273669D01*
X127589730Y-77394864D01*
X127589727Y-77394866D01*
X127585219Y-77398023D01*
X127428023Y-77555219D01*
X127300512Y-77737324D01*
X127298189Y-77742306D01*
X127298186Y-77742311D01*
X127208883Y-77933822D01*
X127206560Y-77938804D01*
X127149022Y-78153537D01*
X127129647Y-78375000D01*
X127149022Y-78596463D01*
X127206560Y-78811196D01*
X127208882Y-78816177D01*
X127208883Y-78816178D01*
X127298186Y-79007689D01*
X127298189Y-79007694D01*
X127300512Y-79012676D01*
X127428023Y-79194781D01*
X127585219Y-79351977D01*
X127589727Y-79355134D01*
X127589730Y-79355136D01*
X127665495Y-79408187D01*
X127767323Y-79479488D01*
X127772305Y-79481811D01*
X127772310Y-79481814D01*
X127877373Y-79530805D01*
X127930658Y-79577722D01*
X127950119Y-79645999D01*
X127929577Y-79713959D01*
X127877373Y-79759195D01*
X127772311Y-79808186D01*
X127772306Y-79808189D01*
X127767324Y-79810512D01*
X127762817Y-79813668D01*
X127762815Y-79813669D01*
X127589730Y-79934864D01*
X127589727Y-79934866D01*
X127585219Y-79938023D01*
X127428023Y-80095219D01*
X127300512Y-80277324D01*
X127298189Y-80282306D01*
X127298186Y-80282311D01*
X127208883Y-80473822D01*
X127206560Y-80478804D01*
X127149022Y-80693537D01*
X127129647Y-80915000D01*
X127149022Y-81136463D01*
X127206560Y-81351196D01*
X127208882Y-81356177D01*
X127208883Y-81356178D01*
X127298186Y-81547689D01*
X127298189Y-81547694D01*
X127300512Y-81552676D01*
X127428023Y-81734781D01*
X127471293Y-81778051D01*
X127505319Y-81840363D01*
X127500254Y-81911178D01*
X127471293Y-81956241D01*
X126607742Y-82819792D01*
X126599462Y-82827327D01*
X126592982Y-82831440D01*
X126560350Y-82866190D01*
X126546357Y-82881091D01*
X126543602Y-82883933D01*
X126523865Y-82903670D01*
X126521385Y-82906867D01*
X126513682Y-82915887D01*
X126483414Y-82948119D01*
X126479595Y-82955065D01*
X126479593Y-82955068D01*
X126473652Y-82965874D01*
X126462801Y-82982393D01*
X126450386Y-82998399D01*
X126447241Y-83005668D01*
X126447238Y-83005672D01*
X126432826Y-83038977D01*
X126427609Y-83049627D01*
X126406305Y-83088380D01*
X126404334Y-83096055D01*
X126404334Y-83096056D01*
X126401267Y-83108002D01*
X126394863Y-83126706D01*
X126386819Y-83145295D01*
X126385580Y-83153118D01*
X126385577Y-83153128D01*
X126379901Y-83188964D01*
X126377495Y-83200584D01*
X126366500Y-83243410D01*
X126366500Y-83263664D01*
X126364949Y-83283374D01*
X126361780Y-83303383D01*
X114427089Y-83303383D01*
X114420978Y-83233537D01*
X114370306Y-83044429D01*
X114364863Y-83024114D01*
X114364862Y-83024112D01*
X114363440Y-83018804D01*
X114361117Y-83013822D01*
X114271814Y-82822311D01*
X114271811Y-82822306D01*
X114269488Y-82817324D01*
X114266331Y-82812815D01*
X114145136Y-82639730D01*
X114145134Y-82639727D01*
X114141977Y-82635219D01*
X113984781Y-82478023D01*
X113980273Y-82474866D01*
X113980270Y-82474864D01*
X113904505Y-82421813D01*
X113802677Y-82350512D01*
X113797695Y-82348189D01*
X113797690Y-82348186D01*
X113692627Y-82299195D01*
X113639342Y-82252278D01*
X113619881Y-82184001D01*
X113640423Y-82116041D01*
X113692627Y-82070805D01*
X113797690Y-82021814D01*
X113797695Y-82021811D01*
X113802677Y-82019488D01*
X113904505Y-81948187D01*
X113980270Y-81895136D01*
X113980273Y-81895134D01*
X113984781Y-81891977D01*
X114141977Y-81734781D01*
X114269488Y-81552676D01*
X114271811Y-81547694D01*
X114271814Y-81547689D01*
X114361117Y-81356178D01*
X114361118Y-81356177D01*
X114363440Y-81351196D01*
X114420978Y-81136463D01*
X114440353Y-80915000D01*
X114420978Y-80693537D01*
X114363440Y-80478804D01*
X114361117Y-80473822D01*
X114271814Y-80282311D01*
X114271811Y-80282306D01*
X114269488Y-80277324D01*
X114141977Y-80095219D01*
X113984781Y-79938023D01*
X113980273Y-79934866D01*
X113980270Y-79934864D01*
X113904505Y-79881813D01*
X113802677Y-79810512D01*
X113797695Y-79808189D01*
X113797690Y-79808186D01*
X113692627Y-79759195D01*
X113639342Y-79712278D01*
X113619881Y-79644001D01*
X113640423Y-79576041D01*
X113692627Y-79530805D01*
X113797690Y-79481814D01*
X113797695Y-79481811D01*
X113802677Y-79479488D01*
X113904505Y-79408187D01*
X113980270Y-79355136D01*
X113980273Y-79355134D01*
X113984781Y-79351977D01*
X114141977Y-79194781D01*
X114269488Y-79012676D01*
X114271811Y-79007694D01*
X114271814Y-79007689D01*
X114361117Y-78816178D01*
X114361118Y-78816177D01*
X114363440Y-78811196D01*
X114420978Y-78596463D01*
X114440353Y-78375000D01*
X114420978Y-78153537D01*
X114363440Y-77938804D01*
X114361117Y-77933822D01*
X114271814Y-77742311D01*
X114271811Y-77742306D01*
X114269488Y-77737324D01*
X114141977Y-77555219D01*
X113984781Y-77398023D01*
X113980273Y-77394866D01*
X113980270Y-77394864D01*
X113904505Y-77341813D01*
X113802677Y-77270512D01*
X113797695Y-77268189D01*
X113797690Y-77268186D01*
X113692627Y-77219195D01*
X113639342Y-77172278D01*
X113619881Y-77104001D01*
X113640423Y-77036041D01*
X113692627Y-76990805D01*
X113797690Y-76941814D01*
X113797695Y-76941811D01*
X113802677Y-76939488D01*
X113904505Y-76868187D01*
X113980270Y-76815136D01*
X113980273Y-76815134D01*
X113984781Y-76811977D01*
X114141977Y-76654781D01*
X114269488Y-76472676D01*
X114271811Y-76467694D01*
X114271814Y-76467689D01*
X114361117Y-76276178D01*
X114361118Y-76276177D01*
X114363440Y-76271196D01*
X114420978Y-76056463D01*
X114440353Y-75835000D01*
X114420978Y-75613537D01*
X114363440Y-75398804D01*
X114361117Y-75393822D01*
X114271814Y-75202311D01*
X114271811Y-75202306D01*
X114269488Y-75197324D01*
X114141977Y-75015219D01*
X113984781Y-74858023D01*
X113980273Y-74854866D01*
X113980270Y-74854864D01*
X113904505Y-74801813D01*
X113802677Y-74730512D01*
X113797695Y-74728189D01*
X113797690Y-74728186D01*
X113606178Y-74638883D01*
X113606177Y-74638882D01*
X113601196Y-74636560D01*
X113595888Y-74635138D01*
X113595886Y-74635137D01*
X113516837Y-74613956D01*
X113386463Y-74579022D01*
X113165000Y-74559647D01*
X112943537Y-74579022D01*
X112813163Y-74613956D01*
X112734114Y-74635137D01*
X112734112Y-74635138D01*
X112728804Y-74636560D01*
X112723823Y-74638882D01*
X112723822Y-74638883D01*
X112532311Y-74728186D01*
X112532306Y-74728189D01*
X112527324Y-74730512D01*
X112522817Y-74733668D01*
X112522815Y-74733669D01*
X112349730Y-74854864D01*
X112349727Y-74854866D01*
X112345219Y-74858023D01*
X112188023Y-75015219D01*
X112060512Y-75197324D01*
X112058189Y-75202306D01*
X112058186Y-75202311D01*
X112025026Y-75273424D01*
X112000942Y-75325073D01*
X112000195Y-75326674D01*
X111953278Y-75379959D01*
X111885000Y-75399420D01*
X111817040Y-75378878D01*
X111770975Y-75324855D01*
X111760000Y-75273424D01*
X111760000Y-69976000D01*
X111780002Y-69907879D01*
X111833658Y-69861386D01*
X111886000Y-69850000D01*
X145924000Y-69850000D01*
X145992121Y-69870002D01*
G37*
%TD.AperFunction*%
M02*
