%FSLAX45Y45*%
G04 Gerber Fmt 4.5, Leading zero omitted, Abs format (unit mm)*
G04 Created by KiCad (PCBNEW (6.0.4)) date 2022-04-18 10:49:24*
%MOMM*%
%LPD*%
G01*
G04 APERTURE LIST*
%TA.AperFunction,Profile*%
%ADD10C,0.100000*%
%TD*%
%ADD11C,0.200000*%
%ADD12C,0.076200*%
%ADD13C,0.080000*%
%ADD14C,0.090000*%
%ADD15C,0.119000*%
%ADD16C,0.152000*%
G04 APERTURE END LIST*
D10*
X11049000Y-6477000D02*
X14732000Y-6477000D01*
X14732000Y-6477000D02*
X14732000Y-11938000D01*
X14732000Y-11938000D02*
X11049000Y-11938000D01*
X11049000Y-11938000D02*
X11049000Y-6477000D01*
X14605000Y-11684000D02*
G75*
G03*
X14605000Y-11684000I-127000J0D01*
G01*
X14605000Y-6731000D02*
G75*
G03*
X14605000Y-6731000I-127000J0D01*
G01*
X11430000Y-6731000D02*
G75*
G03*
X11430000Y-6731000I-127000J0D01*
G01*
X11430000Y-11684000D02*
G75*
G03*
X11430000Y-11684000I-127000J0D01*
G01*
D11*
D12*
X11278400Y-7545400D02*
X11354600Y-7621600D01*
X11354600Y-7545400D02*
X11278400Y-7621600D01*
X11278400Y-7799400D02*
X11354600Y-7875600D01*
X11354600Y-7799400D02*
X11278400Y-7875600D01*
X11278400Y-8053400D02*
X11354600Y-8129600D01*
X11354600Y-8053400D02*
X11278400Y-8129600D01*
X11278400Y-8307400D02*
X11354600Y-8383600D01*
X11354600Y-8307400D02*
X11278400Y-8383600D01*
X11278400Y-8561400D02*
X11354600Y-8637600D01*
X11354600Y-8561400D02*
X11278400Y-8637600D01*
X11278400Y-8815400D02*
X11354600Y-8891600D01*
X11354600Y-8815400D02*
X11278400Y-8891600D01*
X11278400Y-9069400D02*
X11354600Y-9145600D01*
X11354600Y-9069400D02*
X11278400Y-9145600D01*
X11278400Y-9323400D02*
X11354600Y-9399600D01*
X11354600Y-9323400D02*
X11278400Y-9399600D01*
X11278400Y-9577400D02*
X11354600Y-9653600D01*
X11354600Y-9577400D02*
X11278400Y-9653600D01*
X11278400Y-9831400D02*
X11354600Y-9907600D01*
X11354600Y-9831400D02*
X11278400Y-9907600D01*
X11278400Y-10085400D02*
X11354600Y-10161600D01*
X11354600Y-10085400D02*
X11278400Y-10161600D01*
X11278400Y-10339400D02*
X11354600Y-10415600D01*
X11354600Y-10339400D02*
X11278400Y-10415600D01*
X11278400Y-10593400D02*
X11354600Y-10669600D01*
X11354600Y-10593400D02*
X11278400Y-10669600D01*
X11278400Y-10847400D02*
X11354600Y-10923600D01*
X11354600Y-10847400D02*
X11278400Y-10923600D01*
X12802400Y-7545400D02*
X12878600Y-7621600D01*
X12878600Y-7545400D02*
X12802400Y-7621600D01*
X12802400Y-7799400D02*
X12878600Y-7875600D01*
X12878600Y-7799400D02*
X12802400Y-7875600D01*
X12802400Y-8053400D02*
X12878600Y-8129600D01*
X12878600Y-8053400D02*
X12802400Y-8129600D01*
X12802400Y-8307400D02*
X12878600Y-8383600D01*
X12878600Y-8307400D02*
X12802400Y-8383600D01*
X12802400Y-8561400D02*
X12878600Y-8637600D01*
X12878600Y-8561400D02*
X12802400Y-8637600D01*
X12802400Y-8815400D02*
X12878600Y-8891600D01*
X12878600Y-8815400D02*
X12802400Y-8891600D01*
X12802400Y-9069400D02*
X12878600Y-9145600D01*
X12878600Y-9069400D02*
X12802400Y-9145600D01*
X12802400Y-9323400D02*
X12878600Y-9399600D01*
X12878600Y-9323400D02*
X12802400Y-9399600D01*
X12802400Y-9577400D02*
X12878600Y-9653600D01*
X12878600Y-9577400D02*
X12802400Y-9653600D01*
X12802400Y-9831400D02*
X12878600Y-9907600D01*
X12878600Y-9831400D02*
X12802400Y-9907600D01*
X12802400Y-10085400D02*
X12878600Y-10161600D01*
X12878600Y-10085400D02*
X12802400Y-10161600D01*
X12802400Y-10339400D02*
X12878600Y-10415600D01*
X12878600Y-10339400D02*
X12802400Y-10415600D01*
X12802400Y-10593400D02*
X12878600Y-10669600D01*
X12878600Y-10593400D02*
X12802400Y-10669600D01*
X12802400Y-10847400D02*
X12878600Y-10923600D01*
X12878600Y-10847400D02*
X12802400Y-10923600D01*
D13*
X13248000Y-8636000D02*
G75*
G03*
X13248000Y-8636000I-40000J0D01*
G01*
X13248000Y-9652000D02*
G75*
G03*
X13248000Y-9652000I-40000J0D01*
G01*
X13630000Y-8635500D02*
G75*
G03*
X13630000Y-8635500I-40000J0D01*
G01*
X13630000Y-8889500D02*
G75*
G03*
X13630000Y-8889500I-40000J0D01*
G01*
X13630000Y-9143500D02*
G75*
G03*
X13630000Y-9143500I-40000J0D01*
G01*
X13630000Y-9397500D02*
G75*
G03*
X13630000Y-9397500I-40000J0D01*
G01*
X13630000Y-9651500D02*
G75*
G03*
X13630000Y-9651500I-40000J0D01*
G01*
X13630000Y-9905500D02*
G75*
G03*
X13630000Y-9905500I-40000J0D01*
G01*
X13630000Y-10159500D02*
G75*
G03*
X13630000Y-10159500I-40000J0D01*
G01*
X14392000Y-8635500D02*
G75*
G03*
X14392000Y-8635500I-40000J0D01*
G01*
X14392000Y-8889500D02*
G75*
G03*
X14392000Y-8889500I-40000J0D01*
G01*
X14392000Y-9143500D02*
G75*
G03*
X14392000Y-9143500I-40000J0D01*
G01*
X14392000Y-9397500D02*
G75*
G03*
X14392000Y-9397500I-40000J0D01*
G01*
X14392000Y-9651500D02*
G75*
G03*
X14392000Y-9651500I-40000J0D01*
G01*
X14392000Y-9905500D02*
G75*
G03*
X14392000Y-9905500I-40000J0D01*
G01*
X14392000Y-10159500D02*
G75*
G03*
X14392000Y-10159500I-40000J0D01*
G01*
D14*
X13081000Y-10877000D02*
X13081000Y-10967000D01*
X13036000Y-10922000D02*
X13126000Y-10922000D01*
X13335000Y-10877000D02*
X13335000Y-10967000D01*
X13290000Y-10922000D02*
X13380000Y-10922000D01*
D15*
X13758073Y-10964073D02*
X13758073Y-10879927D01*
X13673927Y-10879927D01*
X13673927Y-10964073D01*
X13758073Y-10964073D01*
X14012073Y-10964073D02*
X14012073Y-10879927D01*
X13927927Y-10879927D01*
X13927927Y-10964073D01*
X14012073Y-10964073D01*
X14266073Y-10964073D02*
X14266073Y-10879927D01*
X14181927Y-10879927D01*
X14181927Y-10964073D01*
X14266073Y-10964073D01*
D16*
X13970000Y-7442000D02*
X14046000Y-7366000D01*
X13970000Y-7290000D01*
X13894000Y-7366000D01*
X13970000Y-7442000D01*
X13970000Y-7950000D02*
X14046000Y-7874000D01*
X13970000Y-7798000D01*
X13894000Y-7874000D01*
X13970000Y-7950000D01*
D11*
X11301619Y-12253476D02*
X11301619Y-12053476D01*
X11349238Y-12053476D01*
X11377809Y-12063000D01*
X11396857Y-12082048D01*
X11406381Y-12101095D01*
X11415905Y-12139190D01*
X11415905Y-12167762D01*
X11406381Y-12205857D01*
X11396857Y-12224905D01*
X11377809Y-12243952D01*
X11349238Y-12253476D01*
X11301619Y-12253476D01*
X11501619Y-12253476D02*
X11501619Y-12120143D01*
X11501619Y-12158238D02*
X11511143Y-12139190D01*
X11520667Y-12129667D01*
X11539714Y-12120143D01*
X11558762Y-12120143D01*
X11625428Y-12253476D02*
X11625428Y-12120143D01*
X11625428Y-12053476D02*
X11615905Y-12063000D01*
X11625428Y-12072524D01*
X11634952Y-12063000D01*
X11625428Y-12053476D01*
X11625428Y-12072524D01*
X11749238Y-12253476D02*
X11730190Y-12243952D01*
X11720667Y-12224905D01*
X11720667Y-12053476D01*
X11854000Y-12253476D02*
X11834952Y-12243952D01*
X11825428Y-12224905D01*
X11825428Y-12053476D01*
X12082571Y-12253476D02*
X12082571Y-12053476D01*
X12149238Y-12196333D01*
X12215905Y-12053476D01*
X12215905Y-12253476D01*
X12396857Y-12253476D02*
X12396857Y-12148714D01*
X12387333Y-12129667D01*
X12368286Y-12120143D01*
X12330190Y-12120143D01*
X12311143Y-12129667D01*
X12396857Y-12243952D02*
X12377809Y-12253476D01*
X12330190Y-12253476D01*
X12311143Y-12243952D01*
X12301619Y-12224905D01*
X12301619Y-12205857D01*
X12311143Y-12186809D01*
X12330190Y-12177286D01*
X12377809Y-12177286D01*
X12396857Y-12167762D01*
X12492095Y-12120143D02*
X12492095Y-12320143D01*
X12492095Y-12129667D02*
X12511143Y-12120143D01*
X12549238Y-12120143D01*
X12568286Y-12129667D01*
X12577809Y-12139190D01*
X12587333Y-12158238D01*
X12587333Y-12215381D01*
X12577809Y-12234428D01*
X12568286Y-12243952D01*
X12549238Y-12253476D01*
X12511143Y-12253476D01*
X12492095Y-12243952D01*
X12673048Y-12234428D02*
X12682571Y-12243952D01*
X12673048Y-12253476D01*
X12663524Y-12243952D01*
X12673048Y-12234428D01*
X12673048Y-12253476D01*
X12673048Y-12129667D02*
X12682571Y-12139190D01*
X12673048Y-12148714D01*
X12663524Y-12139190D01*
X12673048Y-12129667D01*
X12673048Y-12148714D01*
D12*
X10967800Y-12544900D02*
X11044000Y-12621100D01*
X11044000Y-12544900D02*
X10967800Y-12621100D01*
D11*
X11339714Y-12473476D02*
X11358762Y-12473476D01*
X11377809Y-12483000D01*
X11387333Y-12492524D01*
X11396857Y-12511571D01*
X11406381Y-12549667D01*
X11406381Y-12597286D01*
X11396857Y-12635381D01*
X11387333Y-12654428D01*
X11377809Y-12663952D01*
X11358762Y-12673476D01*
X11339714Y-12673476D01*
X11320667Y-12663952D01*
X11311143Y-12654428D01*
X11301619Y-12635381D01*
X11292095Y-12597286D01*
X11292095Y-12549667D01*
X11301619Y-12511571D01*
X11311143Y-12492524D01*
X11320667Y-12483000D01*
X11339714Y-12473476D01*
X11492095Y-12654428D02*
X11501619Y-12663952D01*
X11492095Y-12673476D01*
X11482571Y-12663952D01*
X11492095Y-12654428D01*
X11492095Y-12673476D01*
X11568286Y-12473476D02*
X11701619Y-12473476D01*
X11615905Y-12673476D01*
X11863524Y-12473476D02*
X11825428Y-12473476D01*
X11806381Y-12483000D01*
X11796857Y-12492524D01*
X11777809Y-12521095D01*
X11768286Y-12559190D01*
X11768286Y-12635381D01*
X11777809Y-12654428D01*
X11787333Y-12663952D01*
X11806381Y-12673476D01*
X11844476Y-12673476D01*
X11863524Y-12663952D01*
X11873048Y-12654428D01*
X11882571Y-12635381D01*
X11882571Y-12587762D01*
X11873048Y-12568714D01*
X11863524Y-12559190D01*
X11844476Y-12549667D01*
X11806381Y-12549667D01*
X11787333Y-12559190D01*
X11777809Y-12568714D01*
X11768286Y-12587762D01*
X11958762Y-12492524D02*
X11968286Y-12483000D01*
X11987333Y-12473476D01*
X12034952Y-12473476D01*
X12054000Y-12483000D01*
X12063524Y-12492524D01*
X12073048Y-12511571D01*
X12073048Y-12530619D01*
X12063524Y-12559190D01*
X11949238Y-12673476D01*
X12073048Y-12673476D01*
X12158762Y-12673476D02*
X12158762Y-12540143D01*
X12158762Y-12559190D02*
X12168286Y-12549667D01*
X12187333Y-12540143D01*
X12215905Y-12540143D01*
X12234952Y-12549667D01*
X12244476Y-12568714D01*
X12244476Y-12673476D01*
X12244476Y-12568714D02*
X12254000Y-12549667D01*
X12273048Y-12540143D01*
X12301619Y-12540143D01*
X12320667Y-12549667D01*
X12330190Y-12568714D01*
X12330190Y-12673476D01*
X12425428Y-12673476D02*
X12425428Y-12540143D01*
X12425428Y-12559190D02*
X12434952Y-12549667D01*
X12454000Y-12540143D01*
X12482571Y-12540143D01*
X12501619Y-12549667D01*
X12511143Y-12568714D01*
X12511143Y-12673476D01*
X12511143Y-12568714D02*
X12520667Y-12549667D01*
X12539714Y-12540143D01*
X12568286Y-12540143D01*
X12587333Y-12549667D01*
X12596857Y-12568714D01*
X12596857Y-12673476D01*
X12987333Y-12463952D02*
X12815905Y-12721095D01*
X13244476Y-12473476D02*
X13263524Y-12473476D01*
X13282571Y-12483000D01*
X13292095Y-12492524D01*
X13301619Y-12511571D01*
X13311143Y-12549667D01*
X13311143Y-12597286D01*
X13301619Y-12635381D01*
X13292095Y-12654428D01*
X13282571Y-12663952D01*
X13263524Y-12673476D01*
X13244476Y-12673476D01*
X13225428Y-12663952D01*
X13215905Y-12654428D01*
X13206381Y-12635381D01*
X13196857Y-12597286D01*
X13196857Y-12549667D01*
X13206381Y-12511571D01*
X13215905Y-12492524D01*
X13225428Y-12483000D01*
X13244476Y-12473476D01*
X13396857Y-12654428D02*
X13406381Y-12663952D01*
X13396857Y-12673476D01*
X13387333Y-12663952D01*
X13396857Y-12654428D01*
X13396857Y-12673476D01*
X13530190Y-12473476D02*
X13549238Y-12473476D01*
X13568286Y-12483000D01*
X13577809Y-12492524D01*
X13587333Y-12511571D01*
X13596857Y-12549667D01*
X13596857Y-12597286D01*
X13587333Y-12635381D01*
X13577809Y-12654428D01*
X13568286Y-12663952D01*
X13549238Y-12673476D01*
X13530190Y-12673476D01*
X13511143Y-12663952D01*
X13501619Y-12654428D01*
X13492095Y-12635381D01*
X13482571Y-12597286D01*
X13482571Y-12549667D01*
X13492095Y-12511571D01*
X13501619Y-12492524D01*
X13511143Y-12483000D01*
X13530190Y-12473476D01*
X13663524Y-12473476D02*
X13787333Y-12473476D01*
X13720667Y-12549667D01*
X13749238Y-12549667D01*
X13768286Y-12559190D01*
X13777809Y-12568714D01*
X13787333Y-12587762D01*
X13787333Y-12635381D01*
X13777809Y-12654428D01*
X13768286Y-12663952D01*
X13749238Y-12673476D01*
X13692095Y-12673476D01*
X13673048Y-12663952D01*
X13663524Y-12654428D01*
X13911143Y-12473476D02*
X13930190Y-12473476D01*
X13949238Y-12483000D01*
X13958762Y-12492524D01*
X13968286Y-12511571D01*
X13977809Y-12549667D01*
X13977809Y-12597286D01*
X13968286Y-12635381D01*
X13958762Y-12654428D01*
X13949238Y-12663952D01*
X13930190Y-12673476D01*
X13911143Y-12673476D01*
X13892095Y-12663952D01*
X13882571Y-12654428D01*
X13873048Y-12635381D01*
X13863524Y-12597286D01*
X13863524Y-12549667D01*
X13873048Y-12511571D01*
X13882571Y-12492524D01*
X13892095Y-12483000D01*
X13911143Y-12473476D01*
X14101619Y-12473476D02*
X14120667Y-12473476D01*
X14139714Y-12483000D01*
X14149238Y-12492524D01*
X14158762Y-12511571D01*
X14168286Y-12549667D01*
X14168286Y-12597286D01*
X14158762Y-12635381D01*
X14149238Y-12654428D01*
X14139714Y-12663952D01*
X14120667Y-12673476D01*
X14101619Y-12673476D01*
X14082571Y-12663952D01*
X14073048Y-12654428D01*
X14063524Y-12635381D01*
X14054000Y-12597286D01*
X14054000Y-12549667D01*
X14063524Y-12511571D01*
X14073048Y-12492524D01*
X14082571Y-12483000D01*
X14101619Y-12473476D01*
X14244476Y-12473476D02*
X14244476Y-12511571D01*
X14320667Y-12473476D02*
X14320667Y-12511571D01*
X14615905Y-12749667D02*
X14606381Y-12740143D01*
X14587333Y-12711571D01*
X14577809Y-12692524D01*
X14568286Y-12663952D01*
X14558762Y-12616333D01*
X14558762Y-12578238D01*
X14568286Y-12530619D01*
X14577809Y-12502048D01*
X14587333Y-12483000D01*
X14606381Y-12454428D01*
X14615905Y-12444905D01*
X14682571Y-12492524D02*
X14692095Y-12483000D01*
X14711143Y-12473476D01*
X14758762Y-12473476D01*
X14777809Y-12483000D01*
X14787333Y-12492524D01*
X14796857Y-12511571D01*
X14796857Y-12530619D01*
X14787333Y-12559190D01*
X14673048Y-12673476D01*
X14796857Y-12673476D01*
X14911143Y-12559190D02*
X14892095Y-12549667D01*
X14882571Y-12540143D01*
X14873048Y-12521095D01*
X14873048Y-12511571D01*
X14882571Y-12492524D01*
X14892095Y-12483000D01*
X14911143Y-12473476D01*
X14949238Y-12473476D01*
X14968286Y-12483000D01*
X14977809Y-12492524D01*
X14987333Y-12511571D01*
X14987333Y-12521095D01*
X14977809Y-12540143D01*
X14968286Y-12549667D01*
X14949238Y-12559190D01*
X14911143Y-12559190D01*
X14892095Y-12568714D01*
X14882571Y-12578238D01*
X14873048Y-12597286D01*
X14873048Y-12635381D01*
X14882571Y-12654428D01*
X14892095Y-12663952D01*
X14911143Y-12673476D01*
X14949238Y-12673476D01*
X14968286Y-12663952D01*
X14977809Y-12654428D01*
X14987333Y-12635381D01*
X14987333Y-12597286D01*
X14977809Y-12578238D01*
X14968286Y-12568714D01*
X14949238Y-12559190D01*
X15225428Y-12673476D02*
X15225428Y-12473476D01*
X15311143Y-12673476D02*
X15311143Y-12568714D01*
X15301619Y-12549667D01*
X15282571Y-12540143D01*
X15254000Y-12540143D01*
X15234952Y-12549667D01*
X15225428Y-12559190D01*
X15434952Y-12673476D02*
X15415905Y-12663952D01*
X15406381Y-12654428D01*
X15396857Y-12635381D01*
X15396857Y-12578238D01*
X15406381Y-12559190D01*
X15415905Y-12549667D01*
X15434952Y-12540143D01*
X15463524Y-12540143D01*
X15482571Y-12549667D01*
X15492095Y-12559190D01*
X15501619Y-12578238D01*
X15501619Y-12635381D01*
X15492095Y-12654428D01*
X15482571Y-12663952D01*
X15463524Y-12673476D01*
X15434952Y-12673476D01*
X15615905Y-12673476D02*
X15596857Y-12663952D01*
X15587333Y-12644905D01*
X15587333Y-12473476D01*
X15768286Y-12663952D02*
X15749238Y-12673476D01*
X15711143Y-12673476D01*
X15692095Y-12663952D01*
X15682571Y-12644905D01*
X15682571Y-12568714D01*
X15692095Y-12549667D01*
X15711143Y-12540143D01*
X15749238Y-12540143D01*
X15768286Y-12549667D01*
X15777809Y-12568714D01*
X15777809Y-12587762D01*
X15682571Y-12606809D01*
X15854000Y-12663952D02*
X15873048Y-12673476D01*
X15911143Y-12673476D01*
X15930190Y-12663952D01*
X15939714Y-12644905D01*
X15939714Y-12635381D01*
X15930190Y-12616333D01*
X15911143Y-12606809D01*
X15882571Y-12606809D01*
X15863524Y-12597286D01*
X15854000Y-12578238D01*
X15854000Y-12568714D01*
X15863524Y-12549667D01*
X15882571Y-12540143D01*
X15911143Y-12540143D01*
X15930190Y-12549667D01*
X16006381Y-12749667D02*
X16015905Y-12740143D01*
X16034952Y-12711571D01*
X16044476Y-12692524D01*
X16054000Y-12663952D01*
X16063524Y-12616333D01*
X16063524Y-12578238D01*
X16054000Y-12530619D01*
X16044476Y-12502048D01*
X16034952Y-12483000D01*
X16015905Y-12454428D01*
X16006381Y-12444905D01*
D13*
X11044000Y-12847000D02*
G75*
G03*
X11044000Y-12847000I-40000J0D01*
G01*
D11*
X11339714Y-12737476D02*
X11358762Y-12737476D01*
X11377809Y-12747000D01*
X11387333Y-12756524D01*
X11396857Y-12775571D01*
X11406381Y-12813667D01*
X11406381Y-12861286D01*
X11396857Y-12899381D01*
X11387333Y-12918428D01*
X11377809Y-12927952D01*
X11358762Y-12937476D01*
X11339714Y-12937476D01*
X11320667Y-12927952D01*
X11311143Y-12918428D01*
X11301619Y-12899381D01*
X11292095Y-12861286D01*
X11292095Y-12813667D01*
X11301619Y-12775571D01*
X11311143Y-12756524D01*
X11320667Y-12747000D01*
X11339714Y-12737476D01*
X11492095Y-12918428D02*
X11501619Y-12927952D01*
X11492095Y-12937476D01*
X11482571Y-12927952D01*
X11492095Y-12918428D01*
X11492095Y-12937476D01*
X11615905Y-12823190D02*
X11596857Y-12813667D01*
X11587333Y-12804143D01*
X11577809Y-12785095D01*
X11577809Y-12775571D01*
X11587333Y-12756524D01*
X11596857Y-12747000D01*
X11615905Y-12737476D01*
X11654000Y-12737476D01*
X11673048Y-12747000D01*
X11682571Y-12756524D01*
X11692095Y-12775571D01*
X11692095Y-12785095D01*
X11682571Y-12804143D01*
X11673048Y-12813667D01*
X11654000Y-12823190D01*
X11615905Y-12823190D01*
X11596857Y-12832714D01*
X11587333Y-12842238D01*
X11577809Y-12861286D01*
X11577809Y-12899381D01*
X11587333Y-12918428D01*
X11596857Y-12927952D01*
X11615905Y-12937476D01*
X11654000Y-12937476D01*
X11673048Y-12927952D01*
X11682571Y-12918428D01*
X11692095Y-12899381D01*
X11692095Y-12861286D01*
X11682571Y-12842238D01*
X11673048Y-12832714D01*
X11654000Y-12823190D01*
X11815905Y-12737476D02*
X11834952Y-12737476D01*
X11854000Y-12747000D01*
X11863524Y-12756524D01*
X11873048Y-12775571D01*
X11882571Y-12813667D01*
X11882571Y-12861286D01*
X11873048Y-12899381D01*
X11863524Y-12918428D01*
X11854000Y-12927952D01*
X11834952Y-12937476D01*
X11815905Y-12937476D01*
X11796857Y-12927952D01*
X11787333Y-12918428D01*
X11777809Y-12899381D01*
X11768286Y-12861286D01*
X11768286Y-12813667D01*
X11777809Y-12775571D01*
X11787333Y-12756524D01*
X11796857Y-12747000D01*
X11815905Y-12737476D01*
X12006381Y-12737476D02*
X12025428Y-12737476D01*
X12044476Y-12747000D01*
X12054000Y-12756524D01*
X12063524Y-12775571D01*
X12073048Y-12813667D01*
X12073048Y-12861286D01*
X12063524Y-12899381D01*
X12054000Y-12918428D01*
X12044476Y-12927952D01*
X12025428Y-12937476D01*
X12006381Y-12937476D01*
X11987333Y-12927952D01*
X11977809Y-12918428D01*
X11968286Y-12899381D01*
X11958762Y-12861286D01*
X11958762Y-12813667D01*
X11968286Y-12775571D01*
X11977809Y-12756524D01*
X11987333Y-12747000D01*
X12006381Y-12737476D01*
X12158762Y-12937476D02*
X12158762Y-12804143D01*
X12158762Y-12823190D02*
X12168286Y-12813667D01*
X12187333Y-12804143D01*
X12215905Y-12804143D01*
X12234952Y-12813667D01*
X12244476Y-12832714D01*
X12244476Y-12937476D01*
X12244476Y-12832714D02*
X12254000Y-12813667D01*
X12273048Y-12804143D01*
X12301619Y-12804143D01*
X12320667Y-12813667D01*
X12330190Y-12832714D01*
X12330190Y-12937476D01*
X12425428Y-12937476D02*
X12425428Y-12804143D01*
X12425428Y-12823190D02*
X12434952Y-12813667D01*
X12454000Y-12804143D01*
X12482571Y-12804143D01*
X12501619Y-12813667D01*
X12511143Y-12832714D01*
X12511143Y-12937476D01*
X12511143Y-12832714D02*
X12520667Y-12813667D01*
X12539714Y-12804143D01*
X12568286Y-12804143D01*
X12587333Y-12813667D01*
X12596857Y-12832714D01*
X12596857Y-12937476D01*
X12987333Y-12727952D02*
X12815905Y-12985095D01*
X13244476Y-12737476D02*
X13263524Y-12737476D01*
X13282571Y-12747000D01*
X13292095Y-12756524D01*
X13301619Y-12775571D01*
X13311143Y-12813667D01*
X13311143Y-12861286D01*
X13301619Y-12899381D01*
X13292095Y-12918428D01*
X13282571Y-12927952D01*
X13263524Y-12937476D01*
X13244476Y-12937476D01*
X13225428Y-12927952D01*
X13215905Y-12918428D01*
X13206381Y-12899381D01*
X13196857Y-12861286D01*
X13196857Y-12813667D01*
X13206381Y-12775571D01*
X13215905Y-12756524D01*
X13225428Y-12747000D01*
X13244476Y-12737476D01*
X13396857Y-12918428D02*
X13406381Y-12927952D01*
X13396857Y-12937476D01*
X13387333Y-12927952D01*
X13396857Y-12918428D01*
X13396857Y-12937476D01*
X13530190Y-12737476D02*
X13549238Y-12737476D01*
X13568286Y-12747000D01*
X13577809Y-12756524D01*
X13587333Y-12775571D01*
X13596857Y-12813667D01*
X13596857Y-12861286D01*
X13587333Y-12899381D01*
X13577809Y-12918428D01*
X13568286Y-12927952D01*
X13549238Y-12937476D01*
X13530190Y-12937476D01*
X13511143Y-12927952D01*
X13501619Y-12918428D01*
X13492095Y-12899381D01*
X13482571Y-12861286D01*
X13482571Y-12813667D01*
X13492095Y-12775571D01*
X13501619Y-12756524D01*
X13511143Y-12747000D01*
X13530190Y-12737476D01*
X13663524Y-12737476D02*
X13787333Y-12737476D01*
X13720667Y-12813667D01*
X13749238Y-12813667D01*
X13768286Y-12823190D01*
X13777809Y-12832714D01*
X13787333Y-12851762D01*
X13787333Y-12899381D01*
X13777809Y-12918428D01*
X13768286Y-12927952D01*
X13749238Y-12937476D01*
X13692095Y-12937476D01*
X13673048Y-12927952D01*
X13663524Y-12918428D01*
X13977809Y-12937476D02*
X13863524Y-12937476D01*
X13920667Y-12937476D02*
X13920667Y-12737476D01*
X13901619Y-12766048D01*
X13882571Y-12785095D01*
X13863524Y-12794619D01*
X14158762Y-12737476D02*
X14063524Y-12737476D01*
X14054000Y-12832714D01*
X14063524Y-12823190D01*
X14082571Y-12813667D01*
X14130190Y-12813667D01*
X14149238Y-12823190D01*
X14158762Y-12832714D01*
X14168286Y-12851762D01*
X14168286Y-12899381D01*
X14158762Y-12918428D01*
X14149238Y-12927952D01*
X14130190Y-12937476D01*
X14082571Y-12937476D01*
X14063524Y-12927952D01*
X14054000Y-12918428D01*
X14244476Y-12737476D02*
X14244476Y-12775571D01*
X14320667Y-12737476D02*
X14320667Y-12775571D01*
X14615905Y-13013667D02*
X14606381Y-13004143D01*
X14587333Y-12975571D01*
X14577809Y-12956524D01*
X14568286Y-12927952D01*
X14558762Y-12880333D01*
X14558762Y-12842238D01*
X14568286Y-12794619D01*
X14577809Y-12766048D01*
X14587333Y-12747000D01*
X14606381Y-12718428D01*
X14615905Y-12708905D01*
X14796857Y-12937476D02*
X14682571Y-12937476D01*
X14739714Y-12937476D02*
X14739714Y-12737476D01*
X14720667Y-12766048D01*
X14701619Y-12785095D01*
X14682571Y-12794619D01*
X14968286Y-12737476D02*
X14930190Y-12737476D01*
X14911143Y-12747000D01*
X14901619Y-12756524D01*
X14882571Y-12785095D01*
X14873048Y-12823190D01*
X14873048Y-12899381D01*
X14882571Y-12918428D01*
X14892095Y-12927952D01*
X14911143Y-12937476D01*
X14949238Y-12937476D01*
X14968286Y-12927952D01*
X14977809Y-12918428D01*
X14987333Y-12899381D01*
X14987333Y-12851762D01*
X14977809Y-12832714D01*
X14968286Y-12823190D01*
X14949238Y-12813667D01*
X14911143Y-12813667D01*
X14892095Y-12823190D01*
X14882571Y-12832714D01*
X14873048Y-12851762D01*
X15225428Y-12937476D02*
X15225428Y-12737476D01*
X15311143Y-12937476D02*
X15311143Y-12832714D01*
X15301619Y-12813667D01*
X15282571Y-12804143D01*
X15254000Y-12804143D01*
X15234952Y-12813667D01*
X15225428Y-12823190D01*
X15434952Y-12937476D02*
X15415905Y-12927952D01*
X15406381Y-12918428D01*
X15396857Y-12899381D01*
X15396857Y-12842238D01*
X15406381Y-12823190D01*
X15415905Y-12813667D01*
X15434952Y-12804143D01*
X15463524Y-12804143D01*
X15482571Y-12813667D01*
X15492095Y-12823190D01*
X15501619Y-12842238D01*
X15501619Y-12899381D01*
X15492095Y-12918428D01*
X15482571Y-12927952D01*
X15463524Y-12937476D01*
X15434952Y-12937476D01*
X15615905Y-12937476D02*
X15596857Y-12927952D01*
X15587333Y-12908905D01*
X15587333Y-12737476D01*
X15768286Y-12927952D02*
X15749238Y-12937476D01*
X15711143Y-12937476D01*
X15692095Y-12927952D01*
X15682571Y-12908905D01*
X15682571Y-12832714D01*
X15692095Y-12813667D01*
X15711143Y-12804143D01*
X15749238Y-12804143D01*
X15768286Y-12813667D01*
X15777809Y-12832714D01*
X15777809Y-12851762D01*
X15682571Y-12870809D01*
X15854000Y-12927952D02*
X15873048Y-12937476D01*
X15911143Y-12937476D01*
X15930190Y-12927952D01*
X15939714Y-12908905D01*
X15939714Y-12899381D01*
X15930190Y-12880333D01*
X15911143Y-12870809D01*
X15882571Y-12870809D01*
X15863524Y-12861286D01*
X15854000Y-12842238D01*
X15854000Y-12832714D01*
X15863524Y-12813667D01*
X15882571Y-12804143D01*
X15911143Y-12804143D01*
X15930190Y-12813667D01*
X16006381Y-13013667D02*
X16015905Y-13004143D01*
X16034952Y-12975571D01*
X16044476Y-12956524D01*
X16054000Y-12927952D01*
X16063524Y-12880333D01*
X16063524Y-12842238D01*
X16054000Y-12794619D01*
X16044476Y-12766048D01*
X16034952Y-12747000D01*
X16015905Y-12718428D01*
X16006381Y-12708905D01*
D14*
X10999000Y-13066000D02*
X10999000Y-13156000D01*
X10954000Y-13111000D02*
X11044000Y-13111000D01*
D11*
X11339714Y-13001476D02*
X11358762Y-13001476D01*
X11377809Y-13011000D01*
X11387333Y-13020524D01*
X11396857Y-13039571D01*
X11406381Y-13077667D01*
X11406381Y-13125286D01*
X11396857Y-13163381D01*
X11387333Y-13182428D01*
X11377809Y-13191952D01*
X11358762Y-13201476D01*
X11339714Y-13201476D01*
X11320667Y-13191952D01*
X11311143Y-13182428D01*
X11301619Y-13163381D01*
X11292095Y-13125286D01*
X11292095Y-13077667D01*
X11301619Y-13039571D01*
X11311143Y-13020524D01*
X11320667Y-13011000D01*
X11339714Y-13001476D01*
X11492095Y-13182428D02*
X11501619Y-13191952D01*
X11492095Y-13201476D01*
X11482571Y-13191952D01*
X11492095Y-13182428D01*
X11492095Y-13201476D01*
X11596857Y-13201476D02*
X11634952Y-13201476D01*
X11654000Y-13191952D01*
X11663524Y-13182428D01*
X11682571Y-13153857D01*
X11692095Y-13115762D01*
X11692095Y-13039571D01*
X11682571Y-13020524D01*
X11673048Y-13011000D01*
X11654000Y-13001476D01*
X11615905Y-13001476D01*
X11596857Y-13011000D01*
X11587333Y-13020524D01*
X11577809Y-13039571D01*
X11577809Y-13087190D01*
X11587333Y-13106238D01*
X11596857Y-13115762D01*
X11615905Y-13125286D01*
X11654000Y-13125286D01*
X11673048Y-13115762D01*
X11682571Y-13106238D01*
X11692095Y-13087190D01*
X11815905Y-13001476D02*
X11834952Y-13001476D01*
X11854000Y-13011000D01*
X11863524Y-13020524D01*
X11873048Y-13039571D01*
X11882571Y-13077667D01*
X11882571Y-13125286D01*
X11873048Y-13163381D01*
X11863524Y-13182428D01*
X11854000Y-13191952D01*
X11834952Y-13201476D01*
X11815905Y-13201476D01*
X11796857Y-13191952D01*
X11787333Y-13182428D01*
X11777809Y-13163381D01*
X11768286Y-13125286D01*
X11768286Y-13077667D01*
X11777809Y-13039571D01*
X11787333Y-13020524D01*
X11796857Y-13011000D01*
X11815905Y-13001476D01*
X12006381Y-13001476D02*
X12025428Y-13001476D01*
X12044476Y-13011000D01*
X12054000Y-13020524D01*
X12063524Y-13039571D01*
X12073048Y-13077667D01*
X12073048Y-13125286D01*
X12063524Y-13163381D01*
X12054000Y-13182428D01*
X12044476Y-13191952D01*
X12025428Y-13201476D01*
X12006381Y-13201476D01*
X11987333Y-13191952D01*
X11977809Y-13182428D01*
X11968286Y-13163381D01*
X11958762Y-13125286D01*
X11958762Y-13077667D01*
X11968286Y-13039571D01*
X11977809Y-13020524D01*
X11987333Y-13011000D01*
X12006381Y-13001476D01*
X12158762Y-13201476D02*
X12158762Y-13068143D01*
X12158762Y-13087190D02*
X12168286Y-13077667D01*
X12187333Y-13068143D01*
X12215905Y-13068143D01*
X12234952Y-13077667D01*
X12244476Y-13096714D01*
X12244476Y-13201476D01*
X12244476Y-13096714D02*
X12254000Y-13077667D01*
X12273048Y-13068143D01*
X12301619Y-13068143D01*
X12320667Y-13077667D01*
X12330190Y-13096714D01*
X12330190Y-13201476D01*
X12425428Y-13201476D02*
X12425428Y-13068143D01*
X12425428Y-13087190D02*
X12434952Y-13077667D01*
X12454000Y-13068143D01*
X12482571Y-13068143D01*
X12501619Y-13077667D01*
X12511143Y-13096714D01*
X12511143Y-13201476D01*
X12511143Y-13096714D02*
X12520667Y-13077667D01*
X12539714Y-13068143D01*
X12568286Y-13068143D01*
X12587333Y-13077667D01*
X12596857Y-13096714D01*
X12596857Y-13201476D01*
X12987333Y-12991952D02*
X12815905Y-13249095D01*
X13244476Y-13001476D02*
X13263524Y-13001476D01*
X13282571Y-13011000D01*
X13292095Y-13020524D01*
X13301619Y-13039571D01*
X13311143Y-13077667D01*
X13311143Y-13125286D01*
X13301619Y-13163381D01*
X13292095Y-13182428D01*
X13282571Y-13191952D01*
X13263524Y-13201476D01*
X13244476Y-13201476D01*
X13225428Y-13191952D01*
X13215905Y-13182428D01*
X13206381Y-13163381D01*
X13196857Y-13125286D01*
X13196857Y-13077667D01*
X13206381Y-13039571D01*
X13215905Y-13020524D01*
X13225428Y-13011000D01*
X13244476Y-13001476D01*
X13396857Y-13182428D02*
X13406381Y-13191952D01*
X13396857Y-13201476D01*
X13387333Y-13191952D01*
X13396857Y-13182428D01*
X13396857Y-13201476D01*
X13530190Y-13001476D02*
X13549238Y-13001476D01*
X13568286Y-13011000D01*
X13577809Y-13020524D01*
X13587333Y-13039571D01*
X13596857Y-13077667D01*
X13596857Y-13125286D01*
X13587333Y-13163381D01*
X13577809Y-13182428D01*
X13568286Y-13191952D01*
X13549238Y-13201476D01*
X13530190Y-13201476D01*
X13511143Y-13191952D01*
X13501619Y-13182428D01*
X13492095Y-13163381D01*
X13482571Y-13125286D01*
X13482571Y-13077667D01*
X13492095Y-13039571D01*
X13501619Y-13020524D01*
X13511143Y-13011000D01*
X13530190Y-13001476D01*
X13663524Y-13001476D02*
X13787333Y-13001476D01*
X13720667Y-13077667D01*
X13749238Y-13077667D01*
X13768286Y-13087190D01*
X13777809Y-13096714D01*
X13787333Y-13115762D01*
X13787333Y-13163381D01*
X13777809Y-13182428D01*
X13768286Y-13191952D01*
X13749238Y-13201476D01*
X13692095Y-13201476D01*
X13673048Y-13191952D01*
X13663524Y-13182428D01*
X13968286Y-13001476D02*
X13873048Y-13001476D01*
X13863524Y-13096714D01*
X13873048Y-13087190D01*
X13892095Y-13077667D01*
X13939714Y-13077667D01*
X13958762Y-13087190D01*
X13968286Y-13096714D01*
X13977809Y-13115762D01*
X13977809Y-13163381D01*
X13968286Y-13182428D01*
X13958762Y-13191952D01*
X13939714Y-13201476D01*
X13892095Y-13201476D01*
X13873048Y-13191952D01*
X13863524Y-13182428D01*
X14149238Y-13068143D02*
X14149238Y-13201476D01*
X14101619Y-12991952D02*
X14054000Y-13134809D01*
X14177809Y-13134809D01*
X14244476Y-13001476D02*
X14244476Y-13039571D01*
X14320667Y-13001476D02*
X14320667Y-13039571D01*
X14615905Y-13277667D02*
X14606381Y-13268143D01*
X14587333Y-13239571D01*
X14577809Y-13220524D01*
X14568286Y-13191952D01*
X14558762Y-13144333D01*
X14558762Y-13106238D01*
X14568286Y-13058619D01*
X14577809Y-13030048D01*
X14587333Y-13011000D01*
X14606381Y-12982428D01*
X14615905Y-12972905D01*
X14682571Y-13020524D02*
X14692095Y-13011000D01*
X14711143Y-13001476D01*
X14758762Y-13001476D01*
X14777809Y-13011000D01*
X14787333Y-13020524D01*
X14796857Y-13039571D01*
X14796857Y-13058619D01*
X14787333Y-13087190D01*
X14673048Y-13201476D01*
X14796857Y-13201476D01*
X15034952Y-13201476D02*
X15034952Y-13001476D01*
X15120667Y-13201476D02*
X15120667Y-13096714D01*
X15111143Y-13077667D01*
X15092095Y-13068143D01*
X15063524Y-13068143D01*
X15044476Y-13077667D01*
X15034952Y-13087190D01*
X15244476Y-13201476D02*
X15225428Y-13191952D01*
X15215905Y-13182428D01*
X15206381Y-13163381D01*
X15206381Y-13106238D01*
X15215905Y-13087190D01*
X15225428Y-13077667D01*
X15244476Y-13068143D01*
X15273048Y-13068143D01*
X15292095Y-13077667D01*
X15301619Y-13087190D01*
X15311143Y-13106238D01*
X15311143Y-13163381D01*
X15301619Y-13182428D01*
X15292095Y-13191952D01*
X15273048Y-13201476D01*
X15244476Y-13201476D01*
X15425428Y-13201476D02*
X15406381Y-13191952D01*
X15396857Y-13172905D01*
X15396857Y-13001476D01*
X15577809Y-13191952D02*
X15558762Y-13201476D01*
X15520667Y-13201476D01*
X15501619Y-13191952D01*
X15492095Y-13172905D01*
X15492095Y-13096714D01*
X15501619Y-13077667D01*
X15520667Y-13068143D01*
X15558762Y-13068143D01*
X15577809Y-13077667D01*
X15587333Y-13096714D01*
X15587333Y-13115762D01*
X15492095Y-13134809D01*
X15663524Y-13191952D02*
X15682571Y-13201476D01*
X15720667Y-13201476D01*
X15739714Y-13191952D01*
X15749238Y-13172905D01*
X15749238Y-13163381D01*
X15739714Y-13144333D01*
X15720667Y-13134809D01*
X15692095Y-13134809D01*
X15673048Y-13125286D01*
X15663524Y-13106238D01*
X15663524Y-13096714D01*
X15673048Y-13077667D01*
X15692095Y-13068143D01*
X15720667Y-13068143D01*
X15739714Y-13077667D01*
X15815905Y-13277667D02*
X15825428Y-13268143D01*
X15844476Y-13239571D01*
X15854000Y-13220524D01*
X15863524Y-13191952D01*
X15873048Y-13144333D01*
X15873048Y-13106238D01*
X15863524Y-13058619D01*
X15854000Y-13030048D01*
X15844476Y-13011000D01*
X15825428Y-12982428D01*
X15815905Y-12972905D01*
D15*
X11026573Y-13417073D02*
X11026573Y-13332927D01*
X10942427Y-13332927D01*
X10942427Y-13417073D01*
X11026573Y-13417073D01*
D11*
X11406381Y-13465476D02*
X11292095Y-13465476D01*
X11349238Y-13465476D02*
X11349238Y-13265476D01*
X11330190Y-13294048D01*
X11311143Y-13313095D01*
X11292095Y-13322619D01*
X11492095Y-13446428D02*
X11501619Y-13455952D01*
X11492095Y-13465476D01*
X11482571Y-13455952D01*
X11492095Y-13446428D01*
X11492095Y-13465476D01*
X11692095Y-13465476D02*
X11577809Y-13465476D01*
X11634952Y-13465476D02*
X11634952Y-13265476D01*
X11615905Y-13294048D01*
X11596857Y-13313095D01*
X11577809Y-13322619D01*
X11787333Y-13465476D02*
X11825428Y-13465476D01*
X11844476Y-13455952D01*
X11854000Y-13446428D01*
X11873048Y-13417857D01*
X11882571Y-13379762D01*
X11882571Y-13303571D01*
X11873048Y-13284524D01*
X11863524Y-13275000D01*
X11844476Y-13265476D01*
X11806381Y-13265476D01*
X11787333Y-13275000D01*
X11777809Y-13284524D01*
X11768286Y-13303571D01*
X11768286Y-13351190D01*
X11777809Y-13370238D01*
X11787333Y-13379762D01*
X11806381Y-13389286D01*
X11844476Y-13389286D01*
X11863524Y-13379762D01*
X11873048Y-13370238D01*
X11882571Y-13351190D01*
X12006381Y-13265476D02*
X12025428Y-13265476D01*
X12044476Y-13275000D01*
X12054000Y-13284524D01*
X12063524Y-13303571D01*
X12073048Y-13341667D01*
X12073048Y-13389286D01*
X12063524Y-13427381D01*
X12054000Y-13446428D01*
X12044476Y-13455952D01*
X12025428Y-13465476D01*
X12006381Y-13465476D01*
X11987333Y-13455952D01*
X11977809Y-13446428D01*
X11968286Y-13427381D01*
X11958762Y-13389286D01*
X11958762Y-13341667D01*
X11968286Y-13303571D01*
X11977809Y-13284524D01*
X11987333Y-13275000D01*
X12006381Y-13265476D01*
X12158762Y-13465476D02*
X12158762Y-13332143D01*
X12158762Y-13351190D02*
X12168286Y-13341667D01*
X12187333Y-13332143D01*
X12215905Y-13332143D01*
X12234952Y-13341667D01*
X12244476Y-13360714D01*
X12244476Y-13465476D01*
X12244476Y-13360714D02*
X12254000Y-13341667D01*
X12273048Y-13332143D01*
X12301619Y-13332143D01*
X12320667Y-13341667D01*
X12330190Y-13360714D01*
X12330190Y-13465476D01*
X12425428Y-13465476D02*
X12425428Y-13332143D01*
X12425428Y-13351190D02*
X12434952Y-13341667D01*
X12454000Y-13332143D01*
X12482571Y-13332143D01*
X12501619Y-13341667D01*
X12511143Y-13360714D01*
X12511143Y-13465476D01*
X12511143Y-13360714D02*
X12520667Y-13341667D01*
X12539714Y-13332143D01*
X12568286Y-13332143D01*
X12587333Y-13341667D01*
X12596857Y-13360714D01*
X12596857Y-13465476D01*
X12987333Y-13255952D02*
X12815905Y-13513095D01*
X13244476Y-13265476D02*
X13263524Y-13265476D01*
X13282571Y-13275000D01*
X13292095Y-13284524D01*
X13301619Y-13303571D01*
X13311143Y-13341667D01*
X13311143Y-13389286D01*
X13301619Y-13427381D01*
X13292095Y-13446428D01*
X13282571Y-13455952D01*
X13263524Y-13465476D01*
X13244476Y-13465476D01*
X13225428Y-13455952D01*
X13215905Y-13446428D01*
X13206381Y-13427381D01*
X13196857Y-13389286D01*
X13196857Y-13341667D01*
X13206381Y-13303571D01*
X13215905Y-13284524D01*
X13225428Y-13275000D01*
X13244476Y-13265476D01*
X13396857Y-13446428D02*
X13406381Y-13455952D01*
X13396857Y-13465476D01*
X13387333Y-13455952D01*
X13396857Y-13446428D01*
X13396857Y-13465476D01*
X13530190Y-13265476D02*
X13549238Y-13265476D01*
X13568286Y-13275000D01*
X13577809Y-13284524D01*
X13587333Y-13303571D01*
X13596857Y-13341667D01*
X13596857Y-13389286D01*
X13587333Y-13427381D01*
X13577809Y-13446428D01*
X13568286Y-13455952D01*
X13549238Y-13465476D01*
X13530190Y-13465476D01*
X13511143Y-13455952D01*
X13501619Y-13446428D01*
X13492095Y-13427381D01*
X13482571Y-13389286D01*
X13482571Y-13341667D01*
X13492095Y-13303571D01*
X13501619Y-13284524D01*
X13511143Y-13275000D01*
X13530190Y-13265476D01*
X13768286Y-13332143D02*
X13768286Y-13465476D01*
X13720667Y-13255952D02*
X13673048Y-13398809D01*
X13796857Y-13398809D01*
X13958762Y-13265476D02*
X13920667Y-13265476D01*
X13901619Y-13275000D01*
X13892095Y-13284524D01*
X13873048Y-13313095D01*
X13863524Y-13351190D01*
X13863524Y-13427381D01*
X13873048Y-13446428D01*
X13882571Y-13455952D01*
X13901619Y-13465476D01*
X13939714Y-13465476D01*
X13958762Y-13455952D01*
X13968286Y-13446428D01*
X13977809Y-13427381D01*
X13977809Y-13379762D01*
X13968286Y-13360714D01*
X13958762Y-13351190D01*
X13939714Y-13341667D01*
X13901619Y-13341667D01*
X13882571Y-13351190D01*
X13873048Y-13360714D01*
X13863524Y-13379762D01*
X14073048Y-13465476D02*
X14111143Y-13465476D01*
X14130190Y-13455952D01*
X14139714Y-13446428D01*
X14158762Y-13417857D01*
X14168286Y-13379762D01*
X14168286Y-13303571D01*
X14158762Y-13284524D01*
X14149238Y-13275000D01*
X14130190Y-13265476D01*
X14092095Y-13265476D01*
X14073048Y-13275000D01*
X14063524Y-13284524D01*
X14054000Y-13303571D01*
X14054000Y-13351190D01*
X14063524Y-13370238D01*
X14073048Y-13379762D01*
X14092095Y-13389286D01*
X14130190Y-13389286D01*
X14149238Y-13379762D01*
X14158762Y-13370238D01*
X14168286Y-13351190D01*
X14244476Y-13265476D02*
X14244476Y-13303571D01*
X14320667Y-13265476D02*
X14320667Y-13303571D01*
X14615905Y-13541667D02*
X14606381Y-13532143D01*
X14587333Y-13503571D01*
X14577809Y-13484524D01*
X14568286Y-13455952D01*
X14558762Y-13408333D01*
X14558762Y-13370238D01*
X14568286Y-13322619D01*
X14577809Y-13294048D01*
X14587333Y-13275000D01*
X14606381Y-13246428D01*
X14615905Y-13236905D01*
X14673048Y-13265476D02*
X14796857Y-13265476D01*
X14730190Y-13341667D01*
X14758762Y-13341667D01*
X14777809Y-13351190D01*
X14787333Y-13360714D01*
X14796857Y-13379762D01*
X14796857Y-13427381D01*
X14787333Y-13446428D01*
X14777809Y-13455952D01*
X14758762Y-13465476D01*
X14701619Y-13465476D01*
X14682571Y-13455952D01*
X14673048Y-13446428D01*
X15034952Y-13465476D02*
X15034952Y-13265476D01*
X15120667Y-13465476D02*
X15120667Y-13360714D01*
X15111143Y-13341667D01*
X15092095Y-13332143D01*
X15063524Y-13332143D01*
X15044476Y-13341667D01*
X15034952Y-13351190D01*
X15244476Y-13465476D02*
X15225428Y-13455952D01*
X15215905Y-13446428D01*
X15206381Y-13427381D01*
X15206381Y-13370238D01*
X15215905Y-13351190D01*
X15225428Y-13341667D01*
X15244476Y-13332143D01*
X15273048Y-13332143D01*
X15292095Y-13341667D01*
X15301619Y-13351190D01*
X15311143Y-13370238D01*
X15311143Y-13427381D01*
X15301619Y-13446428D01*
X15292095Y-13455952D01*
X15273048Y-13465476D01*
X15244476Y-13465476D01*
X15425428Y-13465476D02*
X15406381Y-13455952D01*
X15396857Y-13436905D01*
X15396857Y-13265476D01*
X15577809Y-13455952D02*
X15558762Y-13465476D01*
X15520667Y-13465476D01*
X15501619Y-13455952D01*
X15492095Y-13436905D01*
X15492095Y-13360714D01*
X15501619Y-13341667D01*
X15520667Y-13332143D01*
X15558762Y-13332143D01*
X15577809Y-13341667D01*
X15587333Y-13360714D01*
X15587333Y-13379762D01*
X15492095Y-13398809D01*
X15663524Y-13455952D02*
X15682571Y-13465476D01*
X15720667Y-13465476D01*
X15739714Y-13455952D01*
X15749238Y-13436905D01*
X15749238Y-13427381D01*
X15739714Y-13408333D01*
X15720667Y-13398809D01*
X15692095Y-13398809D01*
X15673048Y-13389286D01*
X15663524Y-13370238D01*
X15663524Y-13360714D01*
X15673048Y-13341667D01*
X15692095Y-13332143D01*
X15720667Y-13332143D01*
X15739714Y-13341667D01*
X15815905Y-13541667D02*
X15825428Y-13532143D01*
X15844476Y-13503571D01*
X15854000Y-13484524D01*
X15863524Y-13455952D01*
X15873048Y-13408333D01*
X15873048Y-13370238D01*
X15863524Y-13322619D01*
X15854000Y-13294048D01*
X15844476Y-13275000D01*
X15825428Y-13246428D01*
X15815905Y-13236905D01*
D16*
X10968000Y-13715000D02*
X11044000Y-13639000D01*
X10968000Y-13563000D01*
X10892000Y-13639000D01*
X10968000Y-13715000D01*
D11*
X11406381Y-13729476D02*
X11292095Y-13729476D01*
X11349238Y-13729476D02*
X11349238Y-13529476D01*
X11330190Y-13558048D01*
X11311143Y-13577095D01*
X11292095Y-13586619D01*
X11492095Y-13710428D02*
X11501619Y-13719952D01*
X11492095Y-13729476D01*
X11482571Y-13719952D01*
X11492095Y-13710428D01*
X11492095Y-13729476D01*
X11682571Y-13529476D02*
X11587333Y-13529476D01*
X11577809Y-13624714D01*
X11587333Y-13615190D01*
X11606381Y-13605667D01*
X11654000Y-13605667D01*
X11673048Y-13615190D01*
X11682571Y-13624714D01*
X11692095Y-13643762D01*
X11692095Y-13691381D01*
X11682571Y-13710428D01*
X11673048Y-13719952D01*
X11654000Y-13729476D01*
X11606381Y-13729476D01*
X11587333Y-13719952D01*
X11577809Y-13710428D01*
X11768286Y-13548524D02*
X11777809Y-13539000D01*
X11796857Y-13529476D01*
X11844476Y-13529476D01*
X11863524Y-13539000D01*
X11873048Y-13548524D01*
X11882571Y-13567571D01*
X11882571Y-13586619D01*
X11873048Y-13615190D01*
X11758762Y-13729476D01*
X11882571Y-13729476D01*
X12006381Y-13529476D02*
X12025428Y-13529476D01*
X12044476Y-13539000D01*
X12054000Y-13548524D01*
X12063524Y-13567571D01*
X12073048Y-13605667D01*
X12073048Y-13653286D01*
X12063524Y-13691381D01*
X12054000Y-13710428D01*
X12044476Y-13719952D01*
X12025428Y-13729476D01*
X12006381Y-13729476D01*
X11987333Y-13719952D01*
X11977809Y-13710428D01*
X11968286Y-13691381D01*
X11958762Y-13653286D01*
X11958762Y-13605667D01*
X11968286Y-13567571D01*
X11977809Y-13548524D01*
X11987333Y-13539000D01*
X12006381Y-13529476D01*
X12158762Y-13729476D02*
X12158762Y-13596143D01*
X12158762Y-13615190D02*
X12168286Y-13605667D01*
X12187333Y-13596143D01*
X12215905Y-13596143D01*
X12234952Y-13605667D01*
X12244476Y-13624714D01*
X12244476Y-13729476D01*
X12244476Y-13624714D02*
X12254000Y-13605667D01*
X12273048Y-13596143D01*
X12301619Y-13596143D01*
X12320667Y-13605667D01*
X12330190Y-13624714D01*
X12330190Y-13729476D01*
X12425428Y-13729476D02*
X12425428Y-13596143D01*
X12425428Y-13615190D02*
X12434952Y-13605667D01*
X12454000Y-13596143D01*
X12482571Y-13596143D01*
X12501619Y-13605667D01*
X12511143Y-13624714D01*
X12511143Y-13729476D01*
X12511143Y-13624714D02*
X12520667Y-13605667D01*
X12539714Y-13596143D01*
X12568286Y-13596143D01*
X12587333Y-13605667D01*
X12596857Y-13624714D01*
X12596857Y-13729476D01*
X12987333Y-13519952D02*
X12815905Y-13777095D01*
X13244476Y-13529476D02*
X13263524Y-13529476D01*
X13282571Y-13539000D01*
X13292095Y-13548524D01*
X13301619Y-13567571D01*
X13311143Y-13605667D01*
X13311143Y-13653286D01*
X13301619Y-13691381D01*
X13292095Y-13710428D01*
X13282571Y-13719952D01*
X13263524Y-13729476D01*
X13244476Y-13729476D01*
X13225428Y-13719952D01*
X13215905Y-13710428D01*
X13206381Y-13691381D01*
X13196857Y-13653286D01*
X13196857Y-13605667D01*
X13206381Y-13567571D01*
X13215905Y-13548524D01*
X13225428Y-13539000D01*
X13244476Y-13529476D01*
X13396857Y-13710428D02*
X13406381Y-13719952D01*
X13396857Y-13729476D01*
X13387333Y-13719952D01*
X13396857Y-13710428D01*
X13396857Y-13729476D01*
X13530190Y-13529476D02*
X13549238Y-13529476D01*
X13568286Y-13539000D01*
X13577809Y-13548524D01*
X13587333Y-13567571D01*
X13596857Y-13605667D01*
X13596857Y-13653286D01*
X13587333Y-13691381D01*
X13577809Y-13710428D01*
X13568286Y-13719952D01*
X13549238Y-13729476D01*
X13530190Y-13729476D01*
X13511143Y-13719952D01*
X13501619Y-13710428D01*
X13492095Y-13691381D01*
X13482571Y-13653286D01*
X13482571Y-13605667D01*
X13492095Y-13567571D01*
X13501619Y-13548524D01*
X13511143Y-13539000D01*
X13530190Y-13529476D01*
X13777809Y-13529476D02*
X13682571Y-13529476D01*
X13673048Y-13624714D01*
X13682571Y-13615190D01*
X13701619Y-13605667D01*
X13749238Y-13605667D01*
X13768286Y-13615190D01*
X13777809Y-13624714D01*
X13787333Y-13643762D01*
X13787333Y-13691381D01*
X13777809Y-13710428D01*
X13768286Y-13719952D01*
X13749238Y-13729476D01*
X13701619Y-13729476D01*
X13682571Y-13719952D01*
X13673048Y-13710428D01*
X13882571Y-13729476D02*
X13920667Y-13729476D01*
X13939714Y-13719952D01*
X13949238Y-13710428D01*
X13968286Y-13681857D01*
X13977809Y-13643762D01*
X13977809Y-13567571D01*
X13968286Y-13548524D01*
X13958762Y-13539000D01*
X13939714Y-13529476D01*
X13901619Y-13529476D01*
X13882571Y-13539000D01*
X13873048Y-13548524D01*
X13863524Y-13567571D01*
X13863524Y-13615190D01*
X13873048Y-13634238D01*
X13882571Y-13643762D01*
X13901619Y-13653286D01*
X13939714Y-13653286D01*
X13958762Y-13643762D01*
X13968286Y-13634238D01*
X13977809Y-13615190D01*
X14092095Y-13615190D02*
X14073048Y-13605667D01*
X14063524Y-13596143D01*
X14054000Y-13577095D01*
X14054000Y-13567571D01*
X14063524Y-13548524D01*
X14073048Y-13539000D01*
X14092095Y-13529476D01*
X14130190Y-13529476D01*
X14149238Y-13539000D01*
X14158762Y-13548524D01*
X14168286Y-13567571D01*
X14168286Y-13577095D01*
X14158762Y-13596143D01*
X14149238Y-13605667D01*
X14130190Y-13615190D01*
X14092095Y-13615190D01*
X14073048Y-13624714D01*
X14063524Y-13634238D01*
X14054000Y-13653286D01*
X14054000Y-13691381D01*
X14063524Y-13710428D01*
X14073048Y-13719952D01*
X14092095Y-13729476D01*
X14130190Y-13729476D01*
X14149238Y-13719952D01*
X14158762Y-13710428D01*
X14168286Y-13691381D01*
X14168286Y-13653286D01*
X14158762Y-13634238D01*
X14149238Y-13624714D01*
X14130190Y-13615190D01*
X14244476Y-13529476D02*
X14244476Y-13567571D01*
X14320667Y-13529476D02*
X14320667Y-13567571D01*
X14615905Y-13805667D02*
X14606381Y-13796143D01*
X14587333Y-13767571D01*
X14577809Y-13748524D01*
X14568286Y-13719952D01*
X14558762Y-13672333D01*
X14558762Y-13634238D01*
X14568286Y-13586619D01*
X14577809Y-13558048D01*
X14587333Y-13539000D01*
X14606381Y-13510428D01*
X14615905Y-13500905D01*
X14682571Y-13548524D02*
X14692095Y-13539000D01*
X14711143Y-13529476D01*
X14758762Y-13529476D01*
X14777809Y-13539000D01*
X14787333Y-13548524D01*
X14796857Y-13567571D01*
X14796857Y-13586619D01*
X14787333Y-13615190D01*
X14673048Y-13729476D01*
X14796857Y-13729476D01*
X15034952Y-13729476D02*
X15034952Y-13529476D01*
X15120667Y-13729476D02*
X15120667Y-13624714D01*
X15111143Y-13605667D01*
X15092095Y-13596143D01*
X15063524Y-13596143D01*
X15044476Y-13605667D01*
X15034952Y-13615190D01*
X15244476Y-13729476D02*
X15225428Y-13719952D01*
X15215905Y-13710428D01*
X15206381Y-13691381D01*
X15206381Y-13634238D01*
X15215905Y-13615190D01*
X15225428Y-13605667D01*
X15244476Y-13596143D01*
X15273048Y-13596143D01*
X15292095Y-13605667D01*
X15301619Y-13615190D01*
X15311143Y-13634238D01*
X15311143Y-13691381D01*
X15301619Y-13710428D01*
X15292095Y-13719952D01*
X15273048Y-13729476D01*
X15244476Y-13729476D01*
X15425428Y-13729476D02*
X15406381Y-13719952D01*
X15396857Y-13700905D01*
X15396857Y-13529476D01*
X15577809Y-13719952D02*
X15558762Y-13729476D01*
X15520667Y-13729476D01*
X15501619Y-13719952D01*
X15492095Y-13700905D01*
X15492095Y-13624714D01*
X15501619Y-13605667D01*
X15520667Y-13596143D01*
X15558762Y-13596143D01*
X15577809Y-13605667D01*
X15587333Y-13624714D01*
X15587333Y-13643762D01*
X15492095Y-13662809D01*
X15663524Y-13719952D02*
X15682571Y-13729476D01*
X15720667Y-13729476D01*
X15739714Y-13719952D01*
X15749238Y-13700905D01*
X15749238Y-13691381D01*
X15739714Y-13672333D01*
X15720667Y-13662809D01*
X15692095Y-13662809D01*
X15673048Y-13653286D01*
X15663524Y-13634238D01*
X15663524Y-13624714D01*
X15673048Y-13605667D01*
X15692095Y-13596143D01*
X15720667Y-13596143D01*
X15739714Y-13605667D01*
X15815905Y-13805667D02*
X15825428Y-13796143D01*
X15844476Y-13767571D01*
X15854000Y-13748524D01*
X15863524Y-13719952D01*
X15873048Y-13672333D01*
X15873048Y-13634238D01*
X15863524Y-13586619D01*
X15854000Y-13558048D01*
X15844476Y-13539000D01*
X15825428Y-13510428D01*
X15815905Y-13500905D01*
M02*
