%TF.GenerationSoftware,KiCad,Pcbnew,(6.0.4)*%
%TF.CreationDate,2022-04-18T10:48:46-05:00*%
%TF.ProjectId,broken-heart,62726f6b-656e-42d6-9865-6172742e6b69,rev?*%
%TF.SameCoordinates,Original*%
%TF.FileFunction,Legend,Top*%
%TF.FilePolarity,Positive*%
%FSLAX46Y46*%
G04 Gerber Fmt 4.6, Leading zero omitted, Abs format (unit mm)*
G04 Created by KiCad (PCBNEW (6.0.4)) date 2022-04-18 10:48:46*
%MOMM*%
%LPD*%
G01*
G04 APERTURE LIST*
G04 Aperture macros list*
%AMRoundRect*
0 Rectangle with rounded corners*
0 $1 Rounding radius*
0 $2 $3 $4 $5 $6 $7 $8 $9 X,Y pos of 4 corners*
0 Add a 4 corners polygon primitive as box body*
4,1,4,$2,$3,$4,$5,$6,$7,$8,$9,$2,$3,0*
0 Add four circle primitives for the rounded corners*
1,1,$1+$1,$2,$3*
1,1,$1+$1,$4,$5*
1,1,$1+$1,$6,$7*
1,1,$1+$1,$8,$9*
0 Add four rect primitives between the rounded corners*
20,1,$1+$1,$2,$3,$4,$5,0*
20,1,$1+$1,$4,$5,$6,$7,0*
20,1,$1+$1,$6,$7,$8,$9,0*
20,1,$1+$1,$8,$9,$2,$3,0*%
G04 Aperture macros list end*
%ADD10C,0.150000*%
%ADD11C,0.120000*%
%ADD12C,1.600000*%
%ADD13O,1.600000X1.600000*%
%ADD14RoundRect,0.250000X-0.620000X-0.845000X0.620000X-0.845000X0.620000X0.845000X-0.620000X0.845000X0*%
%ADD15O,1.740000X2.190000*%
%ADD16C,1.524000*%
%ADD17R,1.600000X1.600000*%
%ADD18R,1.800000X1.800000*%
%ADD19C,1.800000*%
%ADD20R,3.000000X3.000000*%
%ADD21C,3.000000*%
G04 APERTURE END LIST*
D10*
X130037500Y-66696500D02*
X129804166Y-66696500D01*
X129804166Y-67063166D02*
X129804166Y-66363166D01*
X130137500Y-66363166D01*
X130404166Y-67063166D02*
X130404166Y-66596500D01*
X130404166Y-66363166D02*
X130370833Y-66396500D01*
X130404166Y-66429833D01*
X130437500Y-66396500D01*
X130404166Y-66363166D01*
X130404166Y-66429833D01*
X130670833Y-67063166D02*
X131037500Y-66596500D01*
X130670833Y-66596500D02*
X131037500Y-67063166D01*
X131304166Y-67063166D02*
X131304166Y-66596500D01*
X131304166Y-66363166D02*
X131270833Y-66396500D01*
X131304166Y-66429833D01*
X131337500Y-66396500D01*
X131304166Y-66363166D01*
X131304166Y-66429833D01*
X131637500Y-66596500D02*
X131637500Y-67063166D01*
X131637500Y-66663166D02*
X131670833Y-66629833D01*
X131737500Y-66596500D01*
X131837500Y-66596500D01*
X131904166Y-66629833D01*
X131937500Y-66696500D01*
X131937500Y-67063166D01*
X132570833Y-66596500D02*
X132570833Y-67163166D01*
X132537500Y-67229833D01*
X132504166Y-67263166D01*
X132437500Y-67296500D01*
X132337500Y-67296500D01*
X132270833Y-67263166D01*
X132570833Y-67029833D02*
X132504166Y-67063166D01*
X132370833Y-67063166D01*
X132304166Y-67029833D01*
X132270833Y-66996500D01*
X132237500Y-66929833D01*
X132237500Y-66729833D01*
X132270833Y-66663166D01*
X132304166Y-66629833D01*
X132370833Y-66596500D01*
X132504166Y-66596500D01*
X132570833Y-66629833D01*
X133404166Y-66863166D02*
X133737500Y-66863166D01*
X133337500Y-67063166D02*
X133570833Y-66363166D01*
X133804166Y-67063166D01*
X134804166Y-66696500D02*
X134904166Y-66729833D01*
X134937500Y-66763166D01*
X134970833Y-66829833D01*
X134970833Y-66929833D01*
X134937500Y-66996500D01*
X134904166Y-67029833D01*
X134837500Y-67063166D01*
X134570833Y-67063166D01*
X134570833Y-66363166D01*
X134804166Y-66363166D01*
X134870833Y-66396500D01*
X134904166Y-66429833D01*
X134937500Y-66496500D01*
X134937500Y-66563166D01*
X134904166Y-66629833D01*
X134870833Y-66663166D01*
X134804166Y-66696500D01*
X134570833Y-66696500D01*
X135270833Y-67063166D02*
X135270833Y-66596500D01*
X135270833Y-66729833D02*
X135304166Y-66663166D01*
X135337500Y-66629833D01*
X135404166Y-66596500D01*
X135470833Y-66596500D01*
X135804166Y-67063166D02*
X135737500Y-67029833D01*
X135704166Y-66996500D01*
X135670833Y-66929833D01*
X135670833Y-66729833D01*
X135704166Y-66663166D01*
X135737500Y-66629833D01*
X135804166Y-66596500D01*
X135904166Y-66596500D01*
X135970833Y-66629833D01*
X136004166Y-66663166D01*
X136037500Y-66729833D01*
X136037500Y-66929833D01*
X136004166Y-66996500D01*
X135970833Y-67029833D01*
X135904166Y-67063166D01*
X135804166Y-67063166D01*
X136337500Y-67063166D02*
X136337500Y-66363166D01*
X136404166Y-66796500D02*
X136604166Y-67063166D01*
X136604166Y-66596500D02*
X136337500Y-66863166D01*
X137170833Y-67029833D02*
X137104166Y-67063166D01*
X136970833Y-67063166D01*
X136904166Y-67029833D01*
X136870833Y-66963166D01*
X136870833Y-66696500D01*
X136904166Y-66629833D01*
X136970833Y-66596500D01*
X137104166Y-66596500D01*
X137170833Y-66629833D01*
X137204166Y-66696500D01*
X137204166Y-66763166D01*
X136870833Y-66829833D01*
X137504166Y-66596500D02*
X137504166Y-67063166D01*
X137504166Y-66663166D02*
X137537500Y-66629833D01*
X137604166Y-66596500D01*
X137704166Y-66596500D01*
X137770833Y-66629833D01*
X137804166Y-66696500D01*
X137804166Y-67063166D01*
X138670833Y-67063166D02*
X138670833Y-66363166D01*
X138670833Y-66696500D02*
X139070833Y-66696500D01*
X139070833Y-67063166D02*
X139070833Y-66363166D01*
X139670833Y-67029833D02*
X139604166Y-67063166D01*
X139470833Y-67063166D01*
X139404166Y-67029833D01*
X139370833Y-66963166D01*
X139370833Y-66696500D01*
X139404166Y-66629833D01*
X139470833Y-66596500D01*
X139604166Y-66596500D01*
X139670833Y-66629833D01*
X139704166Y-66696500D01*
X139704166Y-66763166D01*
X139370833Y-66829833D01*
X140304166Y-67063166D02*
X140304166Y-66696500D01*
X140270833Y-66629833D01*
X140204166Y-66596500D01*
X140070833Y-66596500D01*
X140004166Y-66629833D01*
X140304166Y-67029833D02*
X140237500Y-67063166D01*
X140070833Y-67063166D01*
X140004166Y-67029833D01*
X139970833Y-66963166D01*
X139970833Y-66896500D01*
X140004166Y-66829833D01*
X140070833Y-66796500D01*
X140237500Y-66796500D01*
X140304166Y-66763166D01*
X140637500Y-67063166D02*
X140637500Y-66596500D01*
X140637500Y-66729833D02*
X140670833Y-66663166D01*
X140704166Y-66629833D01*
X140770833Y-66596500D01*
X140837500Y-66596500D01*
X140970833Y-66596500D02*
X141237500Y-66596500D01*
X141070833Y-66363166D02*
X141070833Y-66963166D01*
X141104166Y-67029833D01*
X141170833Y-67063166D01*
X141237500Y-67063166D01*
X129770833Y-67990166D02*
X130104166Y-67990166D01*
X129704166Y-68190166D02*
X129937500Y-67490166D01*
X130170833Y-68190166D01*
X130404166Y-68190166D02*
X130404166Y-67723500D01*
X130404166Y-67856833D02*
X130437500Y-67790166D01*
X130470833Y-67756833D01*
X130537500Y-67723500D01*
X130604166Y-67723500D01*
X131137500Y-68190166D02*
X131137500Y-67490166D01*
X131137500Y-68156833D02*
X131070833Y-68190166D01*
X130937500Y-68190166D01*
X130870833Y-68156833D01*
X130837500Y-68123500D01*
X130804166Y-68056833D01*
X130804166Y-67856833D01*
X130837500Y-67790166D01*
X130870833Y-67756833D01*
X130937500Y-67723500D01*
X131070833Y-67723500D01*
X131137500Y-67756833D01*
X131770833Y-67723500D02*
X131770833Y-68190166D01*
X131470833Y-67723500D02*
X131470833Y-68090166D01*
X131504166Y-68156833D01*
X131570833Y-68190166D01*
X131670833Y-68190166D01*
X131737500Y-68156833D01*
X131770833Y-68123500D01*
X132104166Y-68190166D02*
X132104166Y-67723500D01*
X132104166Y-67490166D02*
X132070833Y-67523500D01*
X132104166Y-67556833D01*
X132137500Y-67523500D01*
X132104166Y-67490166D01*
X132104166Y-67556833D01*
X132437500Y-67723500D02*
X132437500Y-68190166D01*
X132437500Y-67790166D02*
X132470833Y-67756833D01*
X132537500Y-67723500D01*
X132637500Y-67723500D01*
X132704166Y-67756833D01*
X132737500Y-67823500D01*
X132737500Y-68190166D01*
X133170833Y-68190166D02*
X133104166Y-68156833D01*
X133070833Y-68123500D01*
X133037500Y-68056833D01*
X133037500Y-67856833D01*
X133070833Y-67790166D01*
X133104166Y-67756833D01*
X133170833Y-67723500D01*
X133270833Y-67723500D01*
X133337500Y-67756833D01*
X133370833Y-67790166D01*
X133404166Y-67856833D01*
X133404166Y-68056833D01*
X133370833Y-68123500D01*
X133337500Y-68156833D01*
X133270833Y-68190166D01*
X133170833Y-68190166D01*
X134470833Y-67823500D02*
X134570833Y-67856833D01*
X134604166Y-67890166D01*
X134637500Y-67956833D01*
X134637500Y-68056833D01*
X134604166Y-68123500D01*
X134570833Y-68156833D01*
X134504166Y-68190166D01*
X134237500Y-68190166D01*
X134237500Y-67490166D01*
X134470833Y-67490166D01*
X134537500Y-67523500D01*
X134570833Y-67556833D01*
X134604166Y-67623500D01*
X134604166Y-67690166D01*
X134570833Y-67756833D01*
X134537500Y-67790166D01*
X134470833Y-67823500D01*
X134237500Y-67823500D01*
X135037500Y-68190166D02*
X134970833Y-68156833D01*
X134937500Y-68123500D01*
X134904166Y-68056833D01*
X134904166Y-67856833D01*
X134937500Y-67790166D01*
X134970833Y-67756833D01*
X135037500Y-67723500D01*
X135137500Y-67723500D01*
X135204166Y-67756833D01*
X135237500Y-67790166D01*
X135270833Y-67856833D01*
X135270833Y-68056833D01*
X135237500Y-68123500D01*
X135204166Y-68156833D01*
X135137500Y-68190166D01*
X135037500Y-68190166D01*
X135870833Y-68190166D02*
X135870833Y-67823500D01*
X135837500Y-67756833D01*
X135770833Y-67723500D01*
X135637500Y-67723500D01*
X135570833Y-67756833D01*
X135870833Y-68156833D02*
X135804166Y-68190166D01*
X135637500Y-68190166D01*
X135570833Y-68156833D01*
X135537500Y-68090166D01*
X135537500Y-68023500D01*
X135570833Y-67956833D01*
X135637500Y-67923500D01*
X135804166Y-67923500D01*
X135870833Y-67890166D01*
X136204166Y-68190166D02*
X136204166Y-67723500D01*
X136204166Y-67856833D02*
X136237500Y-67790166D01*
X136270833Y-67756833D01*
X136337500Y-67723500D01*
X136404166Y-67723500D01*
X136937500Y-68190166D02*
X136937500Y-67490166D01*
X136937500Y-68156833D02*
X136870833Y-68190166D01*
X136737500Y-68190166D01*
X136670833Y-68156833D01*
X136637500Y-68123500D01*
X136604166Y-68056833D01*
X136604166Y-67856833D01*
X136637500Y-67790166D01*
X136670833Y-67756833D01*
X136737500Y-67723500D01*
X136870833Y-67723500D01*
X136937500Y-67756833D01*
X131913333Y-84272380D02*
X131580000Y-83796190D01*
X131341904Y-84272380D02*
X131341904Y-83272380D01*
X131722857Y-83272380D01*
X131818095Y-83320000D01*
X131865714Y-83367619D01*
X131913333Y-83462857D01*
X131913333Y-83605714D01*
X131865714Y-83700952D01*
X131818095Y-83748571D01*
X131722857Y-83796190D01*
X131341904Y-83796190D01*
X132865714Y-84272380D02*
X132294285Y-84272380D01*
X132580000Y-84272380D02*
X132580000Y-83272380D01*
X132484761Y-83415238D01*
X132389523Y-83510476D01*
X132294285Y-83558095D01*
X139366666Y-104552380D02*
X139366666Y-105266666D01*
X139319047Y-105409523D01*
X139223809Y-105504761D01*
X139080952Y-105552380D01*
X138985714Y-105552380D01*
X140366666Y-105552380D02*
X139795238Y-105552380D01*
X140080952Y-105552380D02*
X140080952Y-104552380D01*
X139985714Y-104695238D01*
X139890476Y-104790476D01*
X139795238Y-104838095D01*
X120023095Y-115022380D02*
X120023095Y-115831904D01*
X120070714Y-115927142D01*
X120118333Y-115974761D01*
X120213571Y-116022380D01*
X120404047Y-116022380D01*
X120499285Y-115974761D01*
X120546904Y-115927142D01*
X120594523Y-115831904D01*
X120594523Y-115022380D01*
X121023095Y-115117619D02*
X121070714Y-115070000D01*
X121165952Y-115022380D01*
X121404047Y-115022380D01*
X121499285Y-115070000D01*
X121546904Y-115117619D01*
X121594523Y-115212857D01*
X121594523Y-115308095D01*
X121546904Y-115450952D01*
X120975476Y-116022380D01*
X121594523Y-116022380D01*
X138948095Y-83477380D02*
X138948095Y-84286904D01*
X138995714Y-84382142D01*
X139043333Y-84429761D01*
X139138571Y-84477380D01*
X139329047Y-84477380D01*
X139424285Y-84429761D01*
X139471904Y-84382142D01*
X139519523Y-84286904D01*
X139519523Y-83477380D01*
X140519523Y-84477380D02*
X139948095Y-84477380D01*
X140233809Y-84477380D02*
X140233809Y-83477380D01*
X140138571Y-83620238D01*
X140043333Y-83715476D01*
X139948095Y-83763095D01*
X131341904Y-112632380D02*
X131341904Y-111632380D01*
X131580000Y-111632380D01*
X131722857Y-111680000D01*
X131818095Y-111775238D01*
X131865714Y-111870476D01*
X131913333Y-112060952D01*
X131913333Y-112203809D01*
X131865714Y-112394285D01*
X131818095Y-112489523D01*
X131722857Y-112584761D01*
X131580000Y-112632380D01*
X131341904Y-112632380D01*
X132865714Y-112632380D02*
X132294285Y-112632380D01*
X132580000Y-112632380D02*
X132580000Y-111632380D01*
X132484761Y-111775238D01*
X132389523Y-111870476D01*
X132294285Y-111918095D01*
X134072380Y-76533333D02*
X134786666Y-76533333D01*
X134929523Y-76580952D01*
X135024761Y-76676190D01*
X135072380Y-76819047D01*
X135072380Y-76914285D01*
X134167619Y-76104761D02*
X134120000Y-76057142D01*
X134072380Y-75961904D01*
X134072380Y-75723809D01*
X134120000Y-75628571D01*
X134167619Y-75580952D01*
X134262857Y-75533333D01*
X134358095Y-75533333D01*
X134500952Y-75580952D01*
X135072380Y-76152380D01*
X135072380Y-75533333D01*
D11*
X133450000Y-88170000D02*
X130710000Y-88170000D01*
X130710000Y-88170000D02*
X130710000Y-94710000D01*
X132080000Y-87400000D02*
X132080000Y-88170000D01*
X130710000Y-94710000D02*
X133450000Y-94710000D01*
X132080000Y-95480000D02*
X132080000Y-94710000D01*
X133450000Y-94710000D02*
X133450000Y-88170000D01*
X141440000Y-106190000D02*
X141440000Y-106790000D01*
X137960000Y-106790000D02*
X137960000Y-106190000D01*
X137410000Y-110680000D02*
X141990000Y-110680000D01*
X140500000Y-106790000D02*
X140500000Y-106190000D01*
X141990000Y-112210000D02*
X141990000Y-111210000D01*
X143620000Y-112210000D02*
X143620000Y-106190000D01*
X143620000Y-106190000D02*
X135780000Y-106190000D01*
X135780000Y-106190000D02*
X135780000Y-112210000D01*
X141440000Y-106790000D02*
X143040000Y-106790000D01*
X135780000Y-112210000D02*
X143620000Y-112210000D01*
X137410000Y-112210000D02*
X137410000Y-111210000D01*
X136360000Y-106790000D02*
X137960000Y-106790000D01*
X143040000Y-106790000D02*
X143040000Y-106190000D01*
X138900000Y-106790000D02*
X140500000Y-106790000D01*
X137160000Y-112210000D02*
X137160000Y-111210000D01*
X136360000Y-106190000D02*
X136360000Y-106790000D01*
X135490000Y-107220000D02*
X135490000Y-111220000D01*
X142240000Y-111210000D02*
X142240000Y-112210000D01*
X141990000Y-110680000D02*
X142240000Y-111210000D01*
X138900000Y-106190000D02*
X138900000Y-106790000D01*
X137160000Y-111210000D02*
X137410000Y-110680000D01*
X137160000Y-111210000D02*
X142240000Y-111210000D01*
X129675000Y-113935000D02*
X129675000Y-70755000D01*
X111895000Y-70755000D02*
X111895000Y-113935000D01*
X129675000Y-70755000D02*
X111895000Y-70755000D01*
X111895000Y-113935000D02*
X129675000Y-113935000D01*
X142360000Y-85025000D02*
X140710000Y-85025000D01*
X134570000Y-84965000D02*
X134570000Y-102985000D01*
X144850000Y-102985000D02*
X144850000Y-84965000D01*
X142360000Y-102925000D02*
X142360000Y-85025000D01*
X144850000Y-84965000D02*
X134570000Y-84965000D01*
X134570000Y-102985000D02*
X144850000Y-102985000D01*
X138710000Y-85025000D02*
X137060000Y-85025000D01*
X137060000Y-85025000D02*
X137060000Y-102925000D01*
X137060000Y-102925000D02*
X142360000Y-102925000D01*
X138710000Y-85025000D02*
G75*
G03*
X140710000Y-85025000I1000000J0D01*
G01*
G36*
X121256086Y-66071592D02*
G01*
X121359748Y-66073276D01*
X121456734Y-66076238D01*
X121543470Y-66080476D01*
X121616386Y-66085992D01*
X121638141Y-66088243D01*
X121854965Y-66117779D01*
X122056475Y-66155616D01*
X122242367Y-66201664D01*
X122412335Y-66255830D01*
X122566076Y-66318022D01*
X122703283Y-66388151D01*
X122766637Y-66426841D01*
X122832257Y-66474158D01*
X122896171Y-66528937D01*
X122954910Y-66587615D01*
X123005006Y-66646626D01*
X123042989Y-66702405D01*
X123053182Y-66721315D01*
X123090171Y-66813724D01*
X123109221Y-66906309D01*
X123110861Y-67002155D01*
X123107434Y-67036935D01*
X123082868Y-67159452D01*
X123040080Y-67283797D01*
X122979407Y-67409554D01*
X122901189Y-67536304D01*
X122805764Y-67663632D01*
X122693471Y-67791119D01*
X122564648Y-67918350D01*
X122419635Y-68044905D01*
X122258771Y-68170369D01*
X122091286Y-68288362D01*
X121834644Y-68453698D01*
X121575986Y-68606369D01*
X121317364Y-68745291D01*
X121060830Y-68869382D01*
X120808437Y-68977558D01*
X120721984Y-69011259D01*
X120662006Y-69033377D01*
X120594637Y-69057120D01*
X120522345Y-69081721D01*
X120447600Y-69106410D01*
X120372872Y-69130416D01*
X120300631Y-69152971D01*
X120233346Y-69173306D01*
X120173487Y-69190650D01*
X120123525Y-69204234D01*
X120085927Y-69213288D01*
X120063166Y-69217044D01*
X120061317Y-69217103D01*
X120052150Y-69208285D01*
X120048893Y-69182136D01*
X120048888Y-69180700D01*
X120050854Y-69132144D01*
X120056198Y-69071965D01*
X120064088Y-69006756D01*
X120073691Y-68943112D01*
X120084176Y-68887625D01*
X120087936Y-68871207D01*
X120115999Y-68772321D01*
X120150705Y-68682079D01*
X120194197Y-68596524D01*
X120248617Y-68511700D01*
X120316110Y-68423650D01*
X120355652Y-68376921D01*
X120399984Y-68322082D01*
X120431297Y-68272742D01*
X120451843Y-68223616D01*
X120463874Y-68169416D01*
X120469387Y-68110005D01*
X120474247Y-68017224D01*
X120623824Y-67959425D01*
X120854375Y-67866528D01*
X121066315Y-67773205D01*
X121259626Y-67679465D01*
X121434291Y-67585318D01*
X121590291Y-67490773D01*
X121678105Y-67431623D01*
X121726523Y-67394800D01*
X121779824Y-67349642D01*
X121834600Y-67299473D01*
X121887447Y-67247619D01*
X121934959Y-67197402D01*
X121973731Y-67152148D01*
X121997257Y-67120089D01*
X122044182Y-67033706D01*
X122075066Y-66944847D01*
X122089647Y-66855698D01*
X122087660Y-66768444D01*
X122068843Y-66685270D01*
X122054164Y-66648329D01*
X122016111Y-66586917D01*
X121960908Y-66530245D01*
X121889614Y-66478804D01*
X121803286Y-66433083D01*
X121702982Y-66393570D01*
X121589760Y-66360755D01*
X121464679Y-66335128D01*
X121340774Y-66318396D01*
X121288156Y-66314561D01*
X121220819Y-66312192D01*
X121142675Y-66311209D01*
X121057640Y-66311535D01*
X120969626Y-66313089D01*
X120882548Y-66315794D01*
X120800319Y-66319569D01*
X120726852Y-66324337D01*
X120666062Y-66330018D01*
X120647195Y-66332387D01*
X120479232Y-66358967D01*
X120311151Y-66392159D01*
X120145179Y-66431242D01*
X119983540Y-66475497D01*
X119828462Y-66524203D01*
X119682171Y-66576639D01*
X119546891Y-66632085D01*
X119424851Y-66689822D01*
X119318275Y-66749128D01*
X119276070Y-66776059D01*
X119192161Y-66838662D01*
X119125760Y-66902355D01*
X119077091Y-66966757D01*
X119046380Y-67031483D01*
X119033853Y-67096151D01*
X119039735Y-67160378D01*
X119042771Y-67171880D01*
X119066412Y-67225687D01*
X119103744Y-67270202D01*
X119155475Y-67305807D01*
X119222310Y-67332885D01*
X119304956Y-67351815D01*
X119395158Y-67362334D01*
X119479153Y-67364231D01*
X119577024Y-67358868D01*
X119685717Y-67346917D01*
X119802175Y-67329047D01*
X119923344Y-67305929D01*
X120046166Y-67278233D01*
X120167587Y-67246628D01*
X120284552Y-67211784D01*
X120394003Y-67174373D01*
X120492886Y-67135063D01*
X120549035Y-67109306D01*
X120638375Y-67060477D01*
X120710734Y-67009726D01*
X120765734Y-66957447D01*
X120802997Y-66904038D01*
X120822144Y-66849893D01*
X120824818Y-66820718D01*
X120816735Y-66768173D01*
X120792609Y-66725010D01*
X120752624Y-66691325D01*
X120696966Y-66667214D01*
X120625818Y-66652770D01*
X120539365Y-66648090D01*
X120492944Y-66649317D01*
X120401967Y-66657347D01*
X120309122Y-66672137D01*
X120216874Y-66692785D01*
X120127688Y-66718386D01*
X120044032Y-66748036D01*
X119968370Y-66780832D01*
X119903168Y-66815870D01*
X119850893Y-66852246D01*
X119814010Y-66889056D01*
X119805552Y-66901284D01*
X119788730Y-66939328D01*
X119789090Y-66970033D01*
X119806596Y-66993352D01*
X119841212Y-67009238D01*
X119892302Y-67017595D01*
X119933560Y-67018169D01*
X119981113Y-67014591D01*
X120031540Y-67007638D01*
X120081419Y-66998085D01*
X120127331Y-66986707D01*
X120165855Y-66974280D01*
X120193569Y-66961580D01*
X120207053Y-66949381D01*
X120207813Y-66946069D01*
X120200044Y-66943474D01*
X120179452Y-66948149D01*
X120162360Y-66954247D01*
X120117338Y-66969141D01*
X120063409Y-66982756D01*
X120007818Y-66993604D01*
X119957812Y-67000197D01*
X119932125Y-67001498D01*
X119891758Y-66997833D01*
X119857650Y-66987992D01*
X119833883Y-66973701D01*
X119824539Y-66956689D01*
X119824523Y-66955949D01*
X119833543Y-66928612D01*
X119859657Y-66899390D01*
X119901445Y-66869013D01*
X119957487Y-66838210D01*
X120026365Y-66807712D01*
X120106657Y-66778247D01*
X120196945Y-66750547D01*
X120253224Y-66735603D01*
X120352673Y-66713156D01*
X120438154Y-66699581D01*
X120512055Y-66694696D01*
X120576767Y-66698318D01*
X120624197Y-66707392D01*
X120678390Y-66728055D01*
X120716440Y-66756751D01*
X120738152Y-66791755D01*
X120743332Y-66831344D01*
X120731784Y-66873792D01*
X120703315Y-66917375D01*
X120657730Y-66960368D01*
X120653128Y-66963888D01*
X120594711Y-67001601D01*
X120519819Y-67039750D01*
X120430635Y-67077598D01*
X120329344Y-67114408D01*
X120218131Y-67149441D01*
X120099180Y-67181960D01*
X119974674Y-67211226D01*
X119846800Y-67236503D01*
X119845171Y-67236794D01*
X119781813Y-67246000D01*
X119710246Y-67252904D01*
X119634165Y-67257469D01*
X119557264Y-67259662D01*
X119483238Y-67259448D01*
X119415781Y-67256791D01*
X119358590Y-67251658D01*
X119315358Y-67244012D01*
X119307629Y-67241849D01*
X119258635Y-67220942D01*
X119217540Y-67192298D01*
X119187977Y-67159063D01*
X119173854Y-67125952D01*
X119173520Y-67075092D01*
X119191532Y-67023718D01*
X119227930Y-66971804D01*
X119282753Y-66919325D01*
X119356038Y-66866253D01*
X119447824Y-66812564D01*
X119558151Y-66758231D01*
X119687057Y-66703229D01*
X119834580Y-66647532D01*
X119946054Y-66609080D01*
X120147051Y-66547222D01*
X120338673Y-66499138D01*
X120523684Y-66464378D01*
X120704847Y-66442494D01*
X120884925Y-66433039D01*
X121025811Y-66433985D01*
X121165813Y-66442400D01*
X121294344Y-66458192D01*
X121410687Y-66480998D01*
X121514124Y-66510452D01*
X121603938Y-66546191D01*
X121679411Y-66587850D01*
X121739825Y-66635066D01*
X121784463Y-66687474D01*
X121812606Y-66744709D01*
X121823538Y-66806409D01*
X121822393Y-66838175D01*
X121812383Y-66889266D01*
X121792119Y-66939003D01*
X121759926Y-66990216D01*
X121714128Y-67045734D01*
X121675594Y-67086149D01*
X121587698Y-67165743D01*
X121484975Y-67242493D01*
X121366451Y-67317012D01*
X121231157Y-67389911D01*
X121081903Y-67460131D01*
X120889893Y-67540798D01*
X120700228Y-67611436D01*
X120509797Y-67672850D01*
X120315487Y-67725848D01*
X120114186Y-67771234D01*
X119902783Y-67809816D01*
X119678165Y-67842398D01*
X119544067Y-67858479D01*
X119479827Y-67864306D01*
X119403850Y-67868966D01*
X119319192Y-67872460D01*
X119228908Y-67874787D01*
X119136054Y-67875946D01*
X119043687Y-67875935D01*
X118954864Y-67874756D01*
X118872639Y-67872406D01*
X118800069Y-67868886D01*
X118740210Y-67864194D01*
X118698023Y-67858673D01*
X118580391Y-67833418D01*
X118479753Y-67801925D01*
X118395300Y-67763675D01*
X118326223Y-67718146D01*
X118271716Y-67664818D01*
X118230969Y-67603169D01*
X118205806Y-67541471D01*
X118191985Y-67476295D01*
X118191726Y-67410244D01*
X118205451Y-67340321D01*
X118233583Y-67263528D01*
X118250091Y-67227903D01*
X118308007Y-67128381D01*
X118383804Y-67029723D01*
X118476665Y-66932532D01*
X118585778Y-66837410D01*
X118710326Y-66744959D01*
X118849495Y-66655781D01*
X119002471Y-66570479D01*
X119168437Y-66489654D01*
X119346580Y-66413909D01*
X119357096Y-66409753D01*
X119564473Y-66332942D01*
X119769774Y-66267004D01*
X119976797Y-66211024D01*
X120189344Y-66164090D01*
X120411214Y-66125286D01*
X120646207Y-66093699D01*
X120693938Y-66088297D01*
X120762646Y-66082322D01*
X120846110Y-66077624D01*
X120940759Y-66074201D01*
X121043019Y-66072055D01*
X121149318Y-66071185D01*
X121256086Y-66071592D01*
G37*
G36*
X126639613Y-67523976D02*
G01*
X126640644Y-67548383D01*
X126646312Y-67559401D01*
X126660478Y-67562322D01*
X126667659Y-67562411D01*
X126689524Y-67566315D01*
X126695705Y-67577048D01*
X126689500Y-67602963D01*
X126674089Y-67621947D01*
X126657631Y-67627850D01*
X126648886Y-67629090D01*
X126643573Y-67635154D01*
X126641039Y-67649561D01*
X126640631Y-67675830D01*
X126641600Y-67714325D01*
X126644288Y-67800799D01*
X126669042Y-67799169D01*
X126688314Y-67801734D01*
X126697224Y-67816391D01*
X126698599Y-67822541D01*
X126700951Y-67842146D01*
X126699759Y-67851231D01*
X126689131Y-67854179D01*
X126666069Y-67857601D01*
X126649865Y-67859365D01*
X126619983Y-67860776D01*
X126600527Y-67856288D01*
X126583596Y-67843697D01*
X126579545Y-67839740D01*
X126568543Y-67827532D01*
X126561525Y-67814580D01*
X126557602Y-67796524D01*
X126555883Y-67769002D01*
X126555479Y-67727652D01*
X126555476Y-67721761D01*
X126555016Y-67678054D01*
X126553330Y-67649958D01*
X126549960Y-67634403D01*
X126544447Y-67628320D01*
X126541454Y-67627850D01*
X126530373Y-67619579D01*
X126527431Y-67599511D01*
X126531816Y-67576584D01*
X126541454Y-67565791D01*
X126551892Y-67553214D01*
X126555476Y-67533917D01*
X126556800Y-67514766D01*
X126563844Y-67503751D01*
X126581215Y-67496952D01*
X126604627Y-67492105D01*
X126639613Y-67485541D01*
X126639613Y-67523976D01*
G37*
G36*
X124917168Y-65747331D02*
G01*
X124955353Y-65697608D01*
X125004185Y-65662038D01*
X125062727Y-65641608D01*
X125112068Y-65636815D01*
X125181167Y-65643447D01*
X125238092Y-65664015D01*
X125283027Y-65698718D01*
X125316157Y-65747755D01*
X125337664Y-65811325D01*
X125347735Y-65889626D01*
X125347821Y-65891358D01*
X125351801Y-65973158D01*
X125041012Y-65973158D01*
X125041012Y-65996993D01*
X125048908Y-66036582D01*
X125070674Y-66066796D01*
X125103431Y-66086566D01*
X125144298Y-66094822D01*
X125190393Y-66090493D01*
X125238836Y-66072509D01*
X125241108Y-66071318D01*
X125266151Y-66058270D01*
X125283400Y-66049786D01*
X125288001Y-66047946D01*
X125296835Y-66055580D01*
X125309414Y-66074375D01*
X125322435Y-66098176D01*
X125332597Y-66120826D01*
X125336600Y-66136169D01*
X125336301Y-66138018D01*
X125323935Y-66150707D01*
X125298325Y-66165921D01*
X125264350Y-66181583D01*
X125226888Y-66195616D01*
X125190816Y-66205941D01*
X125167217Y-66210041D01*
X125129039Y-66211103D01*
X125089910Y-66208126D01*
X125078826Y-66206277D01*
X125025911Y-66188084D01*
X124975644Y-66157547D01*
X124935072Y-66119203D01*
X124926964Y-66108491D01*
X124899735Y-66055723D01*
X124881963Y-65992210D01*
X124875032Y-65924069D01*
X124876482Y-65885285D01*
X124885515Y-65837140D01*
X125041012Y-65837140D01*
X125041677Y-65848619D01*
X125046123Y-65855655D01*
X125058028Y-65859334D01*
X125081069Y-65860744D01*
X125118923Y-65860975D01*
X125121565Y-65860975D01*
X125160291Y-65860766D01*
X125183730Y-65859500D01*
X125195295Y-65856219D01*
X125198394Y-65849965D01*
X125196481Y-65839941D01*
X125191802Y-65815655D01*
X125190716Y-65802547D01*
X125182196Y-65778233D01*
X125160408Y-65759975D01*
X125130395Y-65750028D01*
X125097194Y-65750644D01*
X125083499Y-65754600D01*
X125066304Y-65769189D01*
X125051243Y-65794964D01*
X125042143Y-65824490D01*
X125041012Y-65837140D01*
X124885515Y-65837140D01*
X124890566Y-65810219D01*
X124917168Y-65747331D01*
G37*
G36*
X124388390Y-65638209D02*
G01*
X124442589Y-65659633D01*
X124472809Y-65681003D01*
X124481199Y-65690278D01*
X124481669Y-65700509D01*
X124472981Y-65716687D01*
X124458986Y-65736736D01*
X124440972Y-65760779D01*
X124426662Y-65778030D01*
X124421220Y-65783236D01*
X124409039Y-65782061D01*
X124386951Y-65773594D01*
X124373613Y-65767010D01*
X124334399Y-65752034D01*
X124302685Y-65753180D01*
X124277917Y-65770891D01*
X124259538Y-65805608D01*
X124246992Y-65857771D01*
X124245347Y-65868785D01*
X124240816Y-65929310D01*
X124243978Y-65984568D01*
X124254221Y-66030865D01*
X124270930Y-66064508D01*
X124279357Y-66073655D01*
X124308604Y-66090776D01*
X124341097Y-66092284D01*
X124379787Y-66078106D01*
X124392935Y-66070847D01*
X124417650Y-66058040D01*
X124435927Y-66051614D01*
X124441281Y-66051740D01*
X124450740Y-66061691D01*
X124466146Y-66081647D01*
X124475083Y-66094196D01*
X124489778Y-66119078D01*
X124492738Y-66138052D01*
X124482343Y-66154283D01*
X124456973Y-66170938D01*
X124428682Y-66184896D01*
X124378783Y-66200704D01*
X124321888Y-66207063D01*
X124265422Y-66203819D01*
X124216811Y-66190814D01*
X124213666Y-66189430D01*
X124162108Y-66156061D01*
X124122445Y-66108762D01*
X124095111Y-66048380D01*
X124080543Y-65975761D01*
X124078112Y-65926415D01*
X124084583Y-65844982D01*
X124104180Y-65776579D01*
X124137177Y-65720655D01*
X124183847Y-65676661D01*
X124210855Y-65659800D01*
X124268001Y-65637926D01*
X124328687Y-65630851D01*
X124388390Y-65638209D01*
G37*
G36*
X126054450Y-67566945D02*
G01*
X126083689Y-67575962D01*
X126104427Y-67585982D01*
X126110897Y-67595621D01*
X126106501Y-67610607D01*
X126105539Y-67612744D01*
X126097606Y-67626037D01*
X126085818Y-67632713D01*
X126064644Y-67634657D01*
X126042422Y-67634250D01*
X126007455Y-67635672D01*
X125990183Y-67641991D01*
X125990639Y-67651971D01*
X126008855Y-67664376D01*
X126041306Y-67676863D01*
X126072808Y-67689350D01*
X126098676Y-67703983D01*
X126109083Y-67712956D01*
X126123929Y-67744479D01*
X126122975Y-67780384D01*
X126106667Y-67815796D01*
X126098787Y-67825663D01*
X126080896Y-67843098D01*
X126062388Y-67852609D01*
X126036090Y-67857057D01*
X126016987Y-67858318D01*
X125980970Y-67857917D01*
X125947783Y-67853853D01*
X125932132Y-67849667D01*
X125905906Y-67837984D01*
X125894763Y-67826483D01*
X125895800Y-67810240D01*
X125900860Y-67796652D01*
X125910398Y-67778085D01*
X125920537Y-67774212D01*
X125932281Y-67779117D01*
X125967025Y-67793021D01*
X125999938Y-67798226D01*
X126024842Y-67793922D01*
X126028466Y-67791742D01*
X126040111Y-67776067D01*
X126034946Y-67760895D01*
X126014754Y-67748722D01*
X125994054Y-67743541D01*
X125951802Y-67730257D01*
X125920647Y-67707139D01*
X125903496Y-67676831D01*
X125901078Y-67659125D01*
X125903824Y-67631316D01*
X125910456Y-67609109D01*
X125910704Y-67608636D01*
X125933246Y-67584863D01*
X125968024Y-67569365D01*
X126010079Y-67563080D01*
X126054450Y-67566945D01*
G37*
G36*
X123777169Y-65434022D02*
G01*
X123830375Y-65443650D01*
X123864339Y-65454544D01*
X123899635Y-65468745D01*
X123931008Y-65483808D01*
X123953200Y-65497288D01*
X123960195Y-65504016D01*
X123958084Y-65515355D01*
X123945301Y-65539708D01*
X123921505Y-65577673D01*
X123896430Y-65615135D01*
X123888124Y-65612362D01*
X123867836Y-65603241D01*
X123844766Y-65592103D01*
X123777286Y-65569007D01*
X123735607Y-65563431D01*
X123702547Y-65562040D01*
X123681477Y-65564367D01*
X123665782Y-65572284D01*
X123648847Y-65587661D01*
X123648426Y-65588081D01*
X123630585Y-65610400D01*
X123620721Y-65631439D01*
X123620033Y-65636506D01*
X123622970Y-65659884D01*
X123633737Y-65677848D01*
X123655264Y-65692720D01*
X123690484Y-65706822D01*
X123720731Y-65716270D01*
X123799986Y-65742444D01*
X123862189Y-65769975D01*
X123908982Y-65800472D01*
X123942009Y-65835541D01*
X123962913Y-65876789D01*
X123973337Y-65925824D01*
X123975278Y-65965232D01*
X123967603Y-66029465D01*
X123943979Y-66084666D01*
X123903505Y-66132898D01*
X123901166Y-66135034D01*
X123851869Y-66168554D01*
X123790163Y-66193348D01*
X123720687Y-66208365D01*
X123648079Y-66212556D01*
X123585429Y-66206482D01*
X123561201Y-66200742D01*
X123529356Y-66191336D01*
X123494468Y-66179870D01*
X123461111Y-66167949D01*
X123433858Y-66157181D01*
X123417284Y-66149171D01*
X123414365Y-66146405D01*
X123417929Y-66137380D01*
X123427328Y-66115802D01*
X123440619Y-66086120D01*
X123442293Y-66082423D01*
X123470222Y-66020828D01*
X123521094Y-66044118D01*
X123564787Y-66060640D01*
X123612438Y-66073113D01*
X123657780Y-66080314D01*
X123694543Y-66081019D01*
X123703448Y-66079679D01*
X123747603Y-66067338D01*
X123776020Y-66051250D01*
X123791640Y-66028451D01*
X123797406Y-65995974D01*
X123797655Y-65984751D01*
X123793529Y-65955836D01*
X123779587Y-65932651D01*
X123753481Y-65913310D01*
X123712865Y-65895931D01*
X123670674Y-65882826D01*
X123605836Y-65862677D01*
X123556591Y-65842354D01*
X123519928Y-65819822D01*
X123492834Y-65793050D01*
X123472298Y-65760003D01*
X123465000Y-65743991D01*
X123449938Y-65685725D01*
X123451777Y-65626929D01*
X123469084Y-65570750D01*
X123500427Y-65520335D01*
X123544375Y-65478830D01*
X123598968Y-65449579D01*
X123651439Y-65436511D01*
X123713375Y-65431260D01*
X123777169Y-65434022D01*
G37*
G36*
X126019595Y-66602220D02*
G01*
X126060648Y-66609379D01*
X126101811Y-66619538D01*
X126137479Y-66631243D01*
X126162045Y-66643043D01*
X126166859Y-66646805D01*
X126169054Y-66660116D01*
X126162990Y-66682141D01*
X126151557Y-66707203D01*
X126137644Y-66729622D01*
X126124143Y-66743723D01*
X126116553Y-66745626D01*
X126098935Y-66739461D01*
X126072828Y-66729823D01*
X126064678Y-66726741D01*
X126020480Y-66715085D01*
X125981867Y-66714562D01*
X125951858Y-66724356D01*
X125933472Y-66743650D01*
X125929124Y-66763400D01*
X125935141Y-66782493D01*
X125954441Y-66798498D01*
X125988900Y-66812503D01*
X126033763Y-66824153D01*
X126093011Y-66841837D01*
X126136947Y-66865977D01*
X126168361Y-66898353D01*
X126179841Y-66917399D01*
X126196119Y-66967740D01*
X126195260Y-67018862D01*
X126178418Y-67067668D01*
X126146748Y-67111064D01*
X126101404Y-67145954D01*
X126092910Y-67150564D01*
X126042244Y-67168478D01*
X125981782Y-67177169D01*
X125918161Y-67176339D01*
X125858013Y-67165689D01*
X125844987Y-67161692D01*
X125793491Y-67142996D01*
X125759551Y-67127558D01*
X125743496Y-67115536D01*
X125742153Y-67111869D01*
X125745941Y-67100032D01*
X125755405Y-67078651D01*
X125767695Y-67053434D01*
X125779961Y-67030089D01*
X125789351Y-67014325D01*
X125792598Y-67010846D01*
X125802196Y-67014429D01*
X125823790Y-67023754D01*
X125848504Y-67034890D01*
X125887289Y-67049471D01*
X125929234Y-67060548D01*
X125951282Y-67064122D01*
X125982619Y-67066103D01*
X126002387Y-67062975D01*
X126017346Y-67053321D01*
X126021424Y-67049426D01*
X126038068Y-67023013D01*
X126039376Y-66995928D01*
X126025423Y-66973394D01*
X126020272Y-66969540D01*
X126000806Y-66960879D01*
X125969498Y-66951045D01*
X125932927Y-66942089D01*
X125930827Y-66941649D01*
X125891840Y-66931731D01*
X125855588Y-66919421D01*
X125830104Y-66907481D01*
X125794706Y-66875499D01*
X125772505Y-66834003D01*
X125763718Y-66786936D01*
X125768562Y-66738243D01*
X125787255Y-66691866D01*
X125816216Y-66655252D01*
X125857061Y-66625263D01*
X125905716Y-66607206D01*
X125965944Y-66599832D01*
X125984257Y-66599510D01*
X126019595Y-66602220D01*
G37*
G36*
X125639650Y-66829873D02*
G01*
X125639977Y-66906125D01*
X125640789Y-66965799D01*
X125642200Y-67011010D01*
X125644323Y-67043873D01*
X125647272Y-67066504D01*
X125651159Y-67081017D01*
X125653342Y-67085635D01*
X125663159Y-67104619D01*
X125667033Y-67115331D01*
X125659724Y-67122841D01*
X125640290Y-67136309D01*
X125614435Y-67151940D01*
X125561505Y-67182223D01*
X125520831Y-67131213D01*
X125486663Y-67151372D01*
X125444959Y-67167743D01*
X125394599Y-67175569D01*
X125343887Y-67174179D01*
X125308174Y-67165805D01*
X125261142Y-67140151D01*
X125228839Y-67103164D01*
X125210382Y-67053804D01*
X125209480Y-67049302D01*
X125206482Y-67024048D01*
X125203870Y-66984020D01*
X125201803Y-66933139D01*
X125200439Y-66875325D01*
X125199937Y-66814501D01*
X125199937Y-66813429D01*
X125199987Y-66750227D01*
X125200321Y-66703237D01*
X125201214Y-66669971D01*
X125202940Y-66647945D01*
X125205774Y-66634672D01*
X125209991Y-66627667D01*
X125215865Y-66624442D01*
X125220971Y-66623136D01*
X125277126Y-66610685D01*
X125315326Y-66602917D01*
X125335712Y-66599803D01*
X125337063Y-66599739D01*
X125340954Y-66605544D01*
X125344141Y-66624017D01*
X125346710Y-66656477D01*
X125348749Y-66704245D01*
X125350345Y-66768638D01*
X125351086Y-66813109D01*
X125352422Y-66886672D01*
X125354123Y-66943495D01*
X125356324Y-66985531D01*
X125359161Y-67014734D01*
X125362770Y-67033059D01*
X125367019Y-67042148D01*
X125387050Y-67053646D01*
X125416394Y-67057233D01*
X125447391Y-67052842D01*
X125468965Y-67043036D01*
X125475890Y-67037588D01*
X125481076Y-67030586D01*
X125484773Y-67019488D01*
X125487234Y-67001755D01*
X125488710Y-66974845D01*
X125489453Y-66936218D01*
X125489713Y-66883331D01*
X125489742Y-66833023D01*
X125489709Y-66765853D01*
X125490125Y-66714967D01*
X125491763Y-66677953D01*
X125495394Y-66652401D01*
X125501792Y-66635898D01*
X125511727Y-66626035D01*
X125525973Y-66620400D01*
X125545301Y-66616581D01*
X125559856Y-66614125D01*
X125589685Y-66608566D01*
X125614981Y-66603302D01*
X125618285Y-66602533D01*
X125639319Y-66597483D01*
X125639650Y-66829873D01*
G37*
G36*
X124954610Y-67567204D02*
G01*
X124960494Y-67574115D01*
X124968448Y-67582816D01*
X124980020Y-67582538D01*
X125000515Y-67573801D01*
X125035692Y-67564704D01*
X125070686Y-67568226D01*
X125099511Y-67582984D01*
X125113093Y-67599805D01*
X125118885Y-67621138D01*
X125123039Y-67656441D01*
X125125048Y-67701022D01*
X125125154Y-67711987D01*
X125126143Y-67752122D01*
X125128562Y-67785984D01*
X125131984Y-67808645D01*
X125134018Y-67814367D01*
X125135490Y-67826921D01*
X125121744Y-67840395D01*
X125114952Y-67844749D01*
X125094546Y-67856896D01*
X125083181Y-67859741D01*
X125073451Y-67852877D01*
X125063495Y-67841908D01*
X125054753Y-67828763D01*
X125048887Y-67809659D01*
X125045139Y-67780549D01*
X125042751Y-67737383D01*
X125042473Y-67729725D01*
X125040644Y-67687167D01*
X125038235Y-67659973D01*
X125034518Y-67644810D01*
X125028762Y-67638346D01*
X125022203Y-67637199D01*
X125002598Y-67638259D01*
X124989421Y-67643494D01*
X124981404Y-67655992D01*
X124977273Y-67678838D01*
X124975757Y-67715118D01*
X124975572Y-67750382D01*
X124975572Y-67852216D01*
X124892396Y-67852216D01*
X124889578Y-67716599D01*
X124886761Y-67580983D01*
X124919076Y-67570334D01*
X124942014Y-67564461D01*
X124954610Y-67567204D01*
G37*
G36*
X125827546Y-65648914D02*
G01*
X125871701Y-65676982D01*
X125882381Y-65687550D01*
X125890398Y-65696819D01*
X125896415Y-65706686D01*
X125900804Y-65719929D01*
X125903939Y-65739326D01*
X125906191Y-65767654D01*
X125907932Y-65807692D01*
X125909535Y-65862217D01*
X125910427Y-65896760D01*
X125912373Y-65963097D01*
X125914568Y-66013474D01*
X125917281Y-66050629D01*
X125920780Y-66077300D01*
X125925336Y-66096222D01*
X125931217Y-66110135D01*
X125931461Y-66110585D01*
X125942215Y-66131356D01*
X125947657Y-66144028D01*
X125947821Y-66144956D01*
X125940349Y-66151805D01*
X125921471Y-66164040D01*
X125896493Y-66178662D01*
X125870719Y-66192671D01*
X125849454Y-66203069D01*
X125838286Y-66206871D01*
X125825545Y-66200530D01*
X125814843Y-66190512D01*
X125798250Y-66169890D01*
X125785733Y-66148946D01*
X125776618Y-66124545D01*
X125770227Y-66093552D01*
X125765886Y-66052832D01*
X125762919Y-65999248D01*
X125760949Y-65940438D01*
X125756176Y-65772164D01*
X125723456Y-65769617D01*
X125684982Y-65774612D01*
X125660543Y-65785723D01*
X125630351Y-65804378D01*
X125627824Y-65998613D01*
X125625296Y-66192849D01*
X125552703Y-66195582D01*
X125512318Y-66196078D01*
X125487878Y-66193653D01*
X125476814Y-66187994D01*
X125475903Y-66186233D01*
X125474697Y-66174003D01*
X125473430Y-66145630D01*
X125472165Y-66103671D01*
X125470970Y-66050678D01*
X125469911Y-65989208D01*
X125469052Y-65921814D01*
X125469033Y-65919972D01*
X125466371Y-65665792D01*
X125518401Y-65651201D01*
X125554678Y-65641569D01*
X125577297Y-65638058D01*
X125590471Y-65641296D01*
X125598415Y-65651911D01*
X125603037Y-65663827D01*
X125612525Y-65691044D01*
X125664265Y-65663827D01*
X125721518Y-65642086D01*
X125776715Y-65637198D01*
X125827546Y-65648914D01*
G37*
G36*
X124544383Y-67470831D02*
G01*
X124596956Y-67473599D01*
X124612632Y-67641873D01*
X124619074Y-67709998D01*
X124623871Y-67761715D01*
X124626772Y-67799261D01*
X124627524Y-67824873D01*
X124625877Y-67840788D01*
X124621578Y-67849243D01*
X124614376Y-67852476D01*
X124604018Y-67852723D01*
X124590253Y-67852221D01*
X124588959Y-67852216D01*
X124548243Y-67852216D01*
X124542283Y-67789113D01*
X124539056Y-67747737D01*
X124536865Y-67705889D01*
X124536257Y-67680047D01*
X124534986Y-67655236D01*
X124531805Y-67641734D01*
X124529233Y-67641041D01*
X124523996Y-67652391D01*
X124515153Y-67677803D01*
X124504017Y-67713302D01*
X124493921Y-67747770D01*
X124465567Y-67847541D01*
X124428114Y-67850317D01*
X124390660Y-67853093D01*
X124363226Y-67749320D01*
X124349871Y-67702107D01*
X124339453Y-67673232D01*
X124331705Y-67662612D01*
X124326359Y-67670164D01*
X124323146Y-67695806D01*
X124321831Y-67736527D01*
X124320496Y-67772931D01*
X124317751Y-67806260D01*
X124315331Y-67823001D01*
X124310122Y-67841267D01*
X124300294Y-67849730D01*
X124279897Y-67852122D01*
X124268767Y-67852216D01*
X124228046Y-67852216D01*
X124232742Y-67812484D01*
X124235171Y-67790221D01*
X124238724Y-67755495D01*
X124243042Y-67712044D01*
X124247768Y-67663606D01*
X124252542Y-67613921D01*
X124257007Y-67566726D01*
X124260804Y-67525760D01*
X124263574Y-67494761D01*
X124264960Y-67477467D01*
X124265052Y-67475470D01*
X124273518Y-67471892D01*
X124295407Y-67470324D01*
X124318568Y-67470796D01*
X124372054Y-67473599D01*
X124429826Y-67695621D01*
X124460818Y-67581842D01*
X124491811Y-67468063D01*
X124544383Y-67470831D01*
G37*
G36*
X127113855Y-67619332D02*
G01*
X127132441Y-67590066D01*
X127159855Y-67568820D01*
X127194683Y-67559083D01*
X127230578Y-67562867D01*
X127267193Y-67579851D01*
X127289994Y-67607966D01*
X127300856Y-67649503D01*
X127301993Y-67678472D01*
X127295134Y-67699402D01*
X127278716Y-67720574D01*
X127247450Y-67744236D01*
X127210206Y-67755812D01*
X127173409Y-67753923D01*
X127156040Y-67746850D01*
X127125188Y-67720377D01*
X127108815Y-67687975D01*
X127107384Y-67672898D01*
X127133595Y-67672898D01*
X127145641Y-67703025D01*
X127160665Y-67718999D01*
X127178189Y-67726545D01*
X127201270Y-67730155D01*
X127222987Y-67729620D01*
X127236416Y-67724729D01*
X127237920Y-67721336D01*
X127231912Y-67712249D01*
X127230072Y-67711987D01*
X127220900Y-67704474D01*
X127209822Y-67686395D01*
X127209765Y-67686279D01*
X127197307Y-67660570D01*
X127191905Y-67688086D01*
X127185141Y-67710371D01*
X127177913Y-67715254D01*
X127171329Y-67703965D01*
X127166495Y-67677733D01*
X127165023Y-67658233D01*
X127163766Y-67631839D01*
X127191177Y-67631839D01*
X127199041Y-67643976D01*
X127210654Y-67646548D01*
X127224901Y-67642081D01*
X127226239Y-67634862D01*
X127216180Y-67623221D01*
X127202044Y-67620356D01*
X127192121Y-67626981D01*
X127191177Y-67631839D01*
X127163766Y-67631839D01*
X127162240Y-67599805D01*
X127199751Y-67599805D01*
X127230728Y-67604803D01*
X127248305Y-67618228D01*
X127250514Y-67637728D01*
X127243301Y-67651836D01*
X127236644Y-67669881D01*
X127238389Y-67688448D01*
X127246288Y-67701809D01*
X127258094Y-67704236D01*
X127262759Y-67701421D01*
X127273923Y-67681302D01*
X127274783Y-67653116D01*
X127266088Y-67623879D01*
X127252368Y-67604054D01*
X127225001Y-67585094D01*
X127195094Y-67582920D01*
X127168711Y-67591745D01*
X127145498Y-67611443D01*
X127133670Y-67640433D01*
X127133595Y-67672898D01*
X127107384Y-67672898D01*
X127105509Y-67653131D01*
X127113855Y-67619332D01*
G37*
G36*
X124789197Y-67457086D02*
G01*
X124804791Y-67476781D01*
X124807298Y-67493499D01*
X124799683Y-67521033D01*
X124780069Y-67537933D01*
X124753302Y-67541680D01*
X124730173Y-67533616D01*
X124717859Y-67517104D01*
X124714097Y-67492630D01*
X124719526Y-67469172D01*
X124725031Y-67461446D01*
X124742512Y-67452808D01*
X124760555Y-67450228D01*
X124789197Y-67457086D01*
G37*
G36*
X126536937Y-65817004D02*
G01*
X126545429Y-65789859D01*
X126558981Y-65761796D01*
X126560232Y-65759492D01*
X126596840Y-65705923D01*
X126640400Y-65668527D01*
X126693234Y-65645971D01*
X126757663Y-65636921D01*
X126774215Y-65636610D01*
X126839108Y-65644657D01*
X126894334Y-65668564D01*
X126939306Y-65707987D01*
X126968168Y-65751736D01*
X126977782Y-65777317D01*
X126986996Y-65813403D01*
X126994934Y-65854563D01*
X127000722Y-65895368D01*
X127003487Y-65930386D01*
X127002353Y-65954188D01*
X127001346Y-65957780D01*
X126997096Y-65963530D01*
X126987664Y-65967664D01*
X126970378Y-65970437D01*
X126942566Y-65972107D01*
X126901556Y-65972928D01*
X126844676Y-65973157D01*
X126840900Y-65973158D01*
X126781404Y-65973230D01*
X126738420Y-65974064D01*
X126709765Y-65976581D01*
X126693257Y-65981705D01*
X126686711Y-65990361D01*
X126687944Y-66003471D01*
X126694772Y-66021958D01*
X126699391Y-66033002D01*
X126720972Y-66067375D01*
X126752252Y-66087407D01*
X126795747Y-66094614D01*
X126801691Y-66094689D01*
X126851264Y-66087650D01*
X126893143Y-66069806D01*
X126918514Y-66056862D01*
X126936246Y-66049443D01*
X126941540Y-66048772D01*
X126957454Y-66072707D01*
X126973276Y-66098172D01*
X126986070Y-66120210D01*
X126992897Y-66133864D01*
X126993221Y-66135968D01*
X126918984Y-66179988D01*
X126845590Y-66205426D01*
X126773152Y-66212251D01*
X126726802Y-66206726D01*
X126680136Y-66193131D01*
X126641103Y-66171234D01*
X126602841Y-66136977D01*
X126595193Y-66128846D01*
X126562717Y-66085347D01*
X126541463Y-66035884D01*
X126530451Y-65976988D01*
X126528704Y-65905190D01*
X126529108Y-65894682D01*
X126531277Y-65860975D01*
X126684870Y-65860975D01*
X126847743Y-65860975D01*
X126842630Y-65822855D01*
X126832113Y-65783372D01*
X126812530Y-65759666D01*
X126782609Y-65750521D01*
X126767237Y-65750683D01*
X126731994Y-65760970D01*
X126707063Y-65786198D01*
X126691741Y-65827104D01*
X126691006Y-65830592D01*
X126684870Y-65860975D01*
X126531277Y-65860975D01*
X126531998Y-65849766D01*
X126536937Y-65817004D01*
G37*
G36*
X126312393Y-66726831D02*
G01*
X126329246Y-66697891D01*
X126370671Y-66652894D01*
X126420438Y-66622024D01*
X126475452Y-66604994D01*
X126532614Y-66601516D01*
X126588826Y-66611301D01*
X126640993Y-66634063D01*
X126686015Y-66669512D01*
X126720795Y-66717362D01*
X126729181Y-66735064D01*
X126737082Y-66762144D01*
X126744066Y-66800679D01*
X126748889Y-66843431D01*
X126749631Y-66854258D01*
X126754389Y-66936058D01*
X126440832Y-66936058D01*
X126445945Y-66974178D01*
X126453112Y-67003187D01*
X126464343Y-67026546D01*
X126467003Y-67029917D01*
X126499545Y-67052789D01*
X126541251Y-67062997D01*
X126587465Y-67060471D01*
X126633531Y-67045141D01*
X126654892Y-67032762D01*
X126677696Y-67019033D01*
X126690840Y-67016575D01*
X126697256Y-67021877D01*
X126719590Y-67056038D01*
X126732902Y-67078277D01*
X126738464Y-67092282D01*
X126737549Y-67101740D01*
X126731430Y-67110337D01*
X126728799Y-67113267D01*
X126695147Y-67138748D01*
X126648631Y-67158239D01*
X126594361Y-67170901D01*
X126537449Y-67175894D01*
X126483003Y-67172379D01*
X126439292Y-67160831D01*
X126380917Y-67127807D01*
X126334996Y-67081140D01*
X126302007Y-67021548D01*
X126282432Y-66949748D01*
X126278720Y-66920622D01*
X126278843Y-66853043D01*
X126283959Y-66823876D01*
X126440847Y-66823876D01*
X126599709Y-66823876D01*
X126592505Y-66784483D01*
X126578735Y-66747519D01*
X126556022Y-66724026D01*
X126528266Y-66713890D01*
X126499367Y-66716993D01*
X126473226Y-66733221D01*
X126453745Y-66762457D01*
X126446429Y-66788818D01*
X126440847Y-66823876D01*
X126283959Y-66823876D01*
X126290536Y-66786379D01*
X126312393Y-66726831D01*
G37*
G36*
X125603204Y-67593905D02*
G01*
X125622255Y-67578192D01*
X125641892Y-67570119D01*
X125669518Y-67567288D01*
X125685922Y-67567085D01*
X125720403Y-67568611D01*
X125743299Y-67574525D01*
X125761569Y-67586826D01*
X125764785Y-67589762D01*
X125788827Y-67623728D01*
X125803660Y-67669296D01*
X125807541Y-67709650D01*
X125807593Y-67740033D01*
X125728130Y-67740033D01*
X125689273Y-67740457D01*
X125665518Y-67742234D01*
X125653280Y-67746124D01*
X125648974Y-67752885D01*
X125648667Y-67756860D01*
X125654586Y-67777598D01*
X125659886Y-67784906D01*
X125678920Y-67793400D01*
X125707417Y-67795703D01*
X125737173Y-67791755D01*
X125753713Y-67785592D01*
X125771114Y-67780249D01*
X125784014Y-67789665D01*
X125785818Y-67792053D01*
X125796716Y-67812561D01*
X125792722Y-67827975D01*
X125772304Y-67842292D01*
X125765207Y-67845810D01*
X125720136Y-67859113D01*
X125672808Y-67859526D01*
X125630534Y-67847183D01*
X125623413Y-67843246D01*
X125590585Y-67813034D01*
X125569051Y-67772206D01*
X125559180Y-67725319D01*
X125561342Y-67676929D01*
X125564850Y-67666009D01*
X125648667Y-67666009D01*
X125656963Y-67671385D01*
X125677685Y-67674375D01*
X125686062Y-67674593D01*
X125709480Y-67672689D01*
X125722504Y-67667932D01*
X125723456Y-67666009D01*
X125716311Y-67640950D01*
X125695974Y-67628763D01*
X125686062Y-67627850D01*
X125661504Y-67635142D01*
X125649562Y-67655894D01*
X125648667Y-67666009D01*
X125564850Y-67666009D01*
X125575905Y-67631594D01*
X125603204Y-67593905D01*
G37*
G36*
X126233203Y-67614639D02*
G01*
X126264034Y-67582839D01*
X126304340Y-67565303D01*
X126331257Y-67562446D01*
X126378689Y-67570635D01*
X126416954Y-67594085D01*
X126444443Y-67630951D01*
X126459543Y-67679393D01*
X126461991Y-67711987D01*
X126454863Y-67765323D01*
X126435066Y-67808516D01*
X126404979Y-67839869D01*
X126366981Y-67857684D01*
X126323453Y-67860262D01*
X126276774Y-67845906D01*
X126275338Y-67845190D01*
X126238793Y-67816899D01*
X126215838Y-67775951D01*
X126206683Y-67722747D01*
X126206512Y-67713130D01*
X126206659Y-67711987D01*
X126293717Y-67711987D01*
X126296923Y-67755108D01*
X126307078Y-67782164D01*
X126324991Y-67794752D01*
X126336346Y-67796124D01*
X126357833Y-67789219D01*
X126368737Y-67772144D01*
X126374906Y-67746322D01*
X126377819Y-67715235D01*
X126377854Y-67711987D01*
X126373693Y-67667731D01*
X126361332Y-67639658D01*
X126340954Y-67628138D01*
X126336346Y-67627850D01*
X126314498Y-67634177D01*
X126300790Y-67654221D01*
X126294412Y-67689577D01*
X126293717Y-67711987D01*
X126206659Y-67711987D01*
X126213485Y-67658728D01*
X126233203Y-67614639D01*
G37*
G36*
X126329954Y-65632986D02*
G01*
X126375881Y-65648077D01*
X126417723Y-65669415D01*
X126425394Y-65674572D01*
X126453002Y-65694231D01*
X126423113Y-65733197D01*
X126404717Y-65756995D01*
X126390525Y-65775026D01*
X126385912Y-65780672D01*
X126373801Y-65781751D01*
X126351049Y-65774002D01*
X126337832Y-65767553D01*
X126297880Y-65752602D01*
X126265247Y-65754547D01*
X126238825Y-65773591D01*
X126228767Y-65787629D01*
X126214497Y-65823127D01*
X126205360Y-65871342D01*
X126202010Y-65926837D01*
X126205100Y-65984177D01*
X126205121Y-65984358D01*
X126211264Y-66021414D01*
X126221088Y-66046883D01*
X126237427Y-66067859D01*
X126239192Y-66069648D01*
X126260099Y-66087414D01*
X126279380Y-66093271D01*
X126300853Y-66091426D01*
X126332498Y-66081877D01*
X126361263Y-66066560D01*
X126361826Y-66066148D01*
X126382712Y-66053418D01*
X126399293Y-66052454D01*
X126415880Y-66064811D01*
X126436782Y-66092040D01*
X126437824Y-66093541D01*
X126452597Y-66117649D01*
X126456514Y-66135591D01*
X126447888Y-66150811D01*
X126425029Y-66166753D01*
X126393947Y-66183047D01*
X126343028Y-66200365D01*
X126285058Y-66207390D01*
X126227406Y-66203905D01*
X126177442Y-66189694D01*
X126176860Y-66189430D01*
X126125348Y-66156036D01*
X126085244Y-66108621D01*
X126057206Y-66048463D01*
X126041894Y-65976840D01*
X126039087Y-65922299D01*
X126046636Y-65841285D01*
X126068304Y-65772289D01*
X126104236Y-65714912D01*
X126119652Y-65698055D01*
X126163823Y-65664670D01*
X126217460Y-65640236D01*
X126272701Y-65628042D01*
X126288941Y-65627262D01*
X126329954Y-65632986D01*
G37*
G36*
X124728323Y-65425023D02*
G01*
X124753957Y-65451101D01*
X124765623Y-65479476D01*
X124765795Y-65516671D01*
X124751670Y-65548465D01*
X124727078Y-65572589D01*
X124695851Y-65586773D01*
X124661817Y-65588750D01*
X124628807Y-65576248D01*
X124617396Y-65567293D01*
X124592828Y-65533786D01*
X124585113Y-65497149D01*
X124594086Y-65461313D01*
X124619582Y-65430212D01*
X124623289Y-65427322D01*
X124658277Y-65411406D01*
X124694859Y-65411216D01*
X124728323Y-65425023D01*
G37*
G36*
X126810537Y-67701734D02*
G01*
X126846954Y-67681857D01*
X126895685Y-67674605D01*
X126897957Y-67674593D01*
X126919792Y-67673022D01*
X126927912Y-67666022D01*
X126927731Y-67653654D01*
X126917821Y-67634819D01*
X126895733Y-67629841D01*
X126861917Y-67638788D01*
X126853287Y-67642479D01*
X126830027Y-67652243D01*
X126817106Y-67653800D01*
X126807969Y-67646963D01*
X126803308Y-67641047D01*
X126791594Y-67620215D01*
X126794164Y-67604059D01*
X126812557Y-67589357D01*
X126832655Y-67579527D01*
X126876079Y-67566632D01*
X126920265Y-67564131D01*
X126959532Y-67571695D01*
X126987700Y-67588492D01*
X126996947Y-67599902D01*
X127002546Y-67614445D01*
X127005242Y-67636547D01*
X127005780Y-67670636D01*
X127005464Y-67694031D01*
X127005827Y-67743705D01*
X127009241Y-67777632D01*
X127016009Y-67798555D01*
X127017299Y-67800690D01*
X127025069Y-67816386D01*
X127022097Y-67830185D01*
X127010440Y-67846330D01*
X126995777Y-67862598D01*
X126984717Y-67865595D01*
X126969897Y-67857190D01*
X126969312Y-67856778D01*
X126948291Y-67847296D01*
X126930196Y-67851800D01*
X126909794Y-67857806D01*
X126880322Y-67861247D01*
X126868842Y-67861564D01*
X126826785Y-67854922D01*
X126797969Y-67835111D01*
X126782572Y-67802303D01*
X126779841Y-67774941D01*
X126781427Y-67766538D01*
X126863978Y-67766538D01*
X126870699Y-67787767D01*
X126886414Y-67802760D01*
X126896698Y-67805473D01*
X126911787Y-67799477D01*
X126918200Y-67794255D01*
X126927309Y-67777069D01*
X126929447Y-67755854D01*
X126925011Y-67737949D01*
X126914781Y-67730685D01*
X126889863Y-67736475D01*
X126870689Y-67750640D01*
X126863978Y-67766538D01*
X126781427Y-67766538D01*
X126787732Y-67733130D01*
X126810537Y-67701734D01*
G37*
G36*
X124004832Y-67454283D02*
G01*
X124031432Y-67460092D01*
X124045980Y-67469876D01*
X124045525Y-67484202D01*
X124032537Y-67499631D01*
X124012303Y-67511606D01*
X123992855Y-67515668D01*
X123967511Y-67522467D01*
X123956909Y-67533750D01*
X123948186Y-67556247D01*
X123953952Y-67567984D01*
X123975878Y-67571718D01*
X123979952Y-67571759D01*
X124002820Y-67572667D01*
X124010948Y-67578369D01*
X124006591Y-67593336D01*
X123998734Y-67608988D01*
X123978140Y-67632489D01*
X123959198Y-67638907D01*
X123949069Y-67640692D01*
X123941371Y-67645245D01*
X123935030Y-67655428D01*
X123928971Y-67674105D01*
X123922121Y-67704139D01*
X123913405Y-67748392D01*
X123908552Y-67773897D01*
X123898317Y-67824230D01*
X123887654Y-67870510D01*
X123877660Y-67908356D01*
X123869433Y-67933384D01*
X123867596Y-67937496D01*
X123848144Y-67968080D01*
X123821401Y-67999885D01*
X123791357Y-68029199D01*
X123761996Y-68052311D01*
X123737305Y-68065508D01*
X123728245Y-68067232D01*
X123721092Y-68059837D01*
X123710220Y-68041817D01*
X123709084Y-68039651D01*
X123697127Y-68012108D01*
X123696892Y-67997057D01*
X123708354Y-67992444D01*
X123708519Y-67992444D01*
X123727297Y-67985288D01*
X123750753Y-67967129D01*
X123773839Y-67942932D01*
X123791504Y-67917662D01*
X123796952Y-67905502D01*
X123801344Y-67888992D01*
X123808304Y-67859431D01*
X123816929Y-67821033D01*
X123826315Y-67778015D01*
X123835558Y-67734592D01*
X123843754Y-67694980D01*
X123849999Y-67663395D01*
X123853391Y-67644052D01*
X123853746Y-67640588D01*
X123845704Y-67638061D01*
X123829783Y-67637199D01*
X123813512Y-67635008D01*
X123808026Y-67624659D01*
X123808749Y-67606857D01*
X123813930Y-67584687D01*
X123827324Y-67574428D01*
X123838285Y-67571800D01*
X123858584Y-67563685D01*
X123871995Y-67544723D01*
X123876945Y-67531939D01*
X123891334Y-67497679D01*
X123908683Y-67476422D01*
X123934112Y-67462602D01*
X123943915Y-67459129D01*
X123973370Y-67453721D01*
X124004832Y-67454283D01*
G37*
G36*
X123486110Y-67650420D02*
G01*
X123516671Y-67610337D01*
X123554946Y-67581654D01*
X123598530Y-67566552D01*
X123645018Y-67567212D01*
X123661235Y-67571473D01*
X123693794Y-67587927D01*
X123713393Y-67613257D01*
X123722027Y-67650725D01*
X123722867Y-67672299D01*
X123715611Y-67733086D01*
X123694933Y-67784281D01*
X123662467Y-67823987D01*
X123619846Y-67850307D01*
X123568705Y-67861344D01*
X123559879Y-67861564D01*
X123526524Y-67858157D01*
X123500410Y-67845299D01*
X123487250Y-67834541D01*
X123469507Y-67816700D01*
X123460622Y-67799468D01*
X123457768Y-67775327D01*
X123457750Y-67756056D01*
X123457972Y-67754479D01*
X123545244Y-67754479D01*
X123547766Y-67787133D01*
X123556499Y-67803199D01*
X123573192Y-67804248D01*
X123591788Y-67796231D01*
X123608297Y-67778998D01*
X123622907Y-67749403D01*
X123633360Y-67713779D01*
X123637402Y-67678458D01*
X123637052Y-67669180D01*
X123633545Y-67645261D01*
X123625805Y-67634791D01*
X123610684Y-67632525D01*
X123593726Y-67636631D01*
X123579158Y-67651577D01*
X123566279Y-67674237D01*
X123553166Y-67708585D01*
X123545836Y-67744146D01*
X123545244Y-67754479D01*
X123457972Y-67754479D01*
X123465668Y-67699720D01*
X123486110Y-67650420D01*
G37*
G36*
X125291158Y-67567204D02*
G01*
X125297042Y-67574115D01*
X125304995Y-67582816D01*
X125316568Y-67582538D01*
X125337063Y-67573801D01*
X125372240Y-67564704D01*
X125407233Y-67568226D01*
X125436059Y-67582984D01*
X125449641Y-67599805D01*
X125455433Y-67621138D01*
X125459586Y-67656441D01*
X125461596Y-67701022D01*
X125461702Y-67711987D01*
X125462691Y-67752122D01*
X125465109Y-67785984D01*
X125468531Y-67808645D01*
X125470566Y-67814367D01*
X125472037Y-67826921D01*
X125458292Y-67840395D01*
X125451500Y-67844749D01*
X125431094Y-67856896D01*
X125419729Y-67859741D01*
X125409999Y-67852877D01*
X125400043Y-67841908D01*
X125391300Y-67828763D01*
X125385435Y-67809659D01*
X125381687Y-67780549D01*
X125379299Y-67737383D01*
X125379021Y-67729725D01*
X125377191Y-67687167D01*
X125374783Y-67659973D01*
X125371066Y-67644810D01*
X125365310Y-67638346D01*
X125358751Y-67637199D01*
X125339145Y-67638259D01*
X125325969Y-67643494D01*
X125317951Y-67655992D01*
X125313820Y-67678838D01*
X125312305Y-67715118D01*
X125312120Y-67750382D01*
X125312120Y-67852216D01*
X125228943Y-67852216D01*
X125226126Y-67716599D01*
X125223309Y-67580983D01*
X125255624Y-67570334D01*
X125278562Y-67564461D01*
X125291158Y-67567204D01*
G37*
G36*
X124751412Y-65852677D02*
G01*
X124751627Y-65923878D01*
X124752240Y-65979026D01*
X124753433Y-66020764D01*
X124755386Y-66051734D01*
X124758280Y-66074579D01*
X124762296Y-66091942D01*
X124767615Y-66106466D01*
X124768977Y-66109542D01*
X124786337Y-66147766D01*
X124736929Y-66177319D01*
X124709551Y-66192924D01*
X124688302Y-66203634D01*
X124679044Y-66206871D01*
X124667739Y-66200542D01*
X124650733Y-66184938D01*
X124647211Y-66181163D01*
X124633492Y-66165075D01*
X124622834Y-66148972D01*
X124614853Y-66130317D01*
X124609163Y-66106576D01*
X124605383Y-66075212D01*
X124603126Y-66033689D01*
X124602009Y-65979472D01*
X124601649Y-65910024D01*
X124601630Y-65880246D01*
X124601630Y-65657334D01*
X124623055Y-65651957D01*
X124644264Y-65647863D01*
X124675691Y-65643132D01*
X124697843Y-65640308D01*
X124751207Y-65634036D01*
X124751412Y-65852677D01*
G37*
G36*
X124531767Y-66414301D02*
G01*
X124548799Y-66416911D01*
X124557757Y-66421988D01*
X124561650Y-66428571D01*
X124565770Y-66442010D01*
X124573900Y-66470821D01*
X124585298Y-66512295D01*
X124599225Y-66563721D01*
X124614940Y-66622387D01*
X124626247Y-66664950D01*
X124642260Y-66724586D01*
X124656653Y-66776575D01*
X124668784Y-66818730D01*
X124678010Y-66848863D01*
X124683691Y-66864787D01*
X124685246Y-66865944D01*
X124687883Y-66851912D01*
X124694835Y-66822632D01*
X124705395Y-66780864D01*
X124718857Y-66729370D01*
X124734513Y-66670912D01*
X124745054Y-66632230D01*
X124804031Y-66417214D01*
X124998943Y-66417214D01*
X125028466Y-66744413D01*
X125035540Y-66822757D01*
X125042246Y-66896940D01*
X125048357Y-66964461D01*
X125053648Y-67022820D01*
X125057892Y-67069516D01*
X125060862Y-67102049D01*
X125062151Y-67116018D01*
X125066313Y-67160423D01*
X124912817Y-67160423D01*
X124907213Y-67097320D01*
X124904773Y-67067205D01*
X124901486Y-67022860D01*
X124897666Y-66968716D01*
X124893626Y-66909203D01*
X124890301Y-66858453D01*
X124878994Y-66682688D01*
X124829306Y-66858453D01*
X124812400Y-66918008D01*
X124795791Y-66976077D01*
X124780691Y-67028452D01*
X124768314Y-67070924D01*
X124760347Y-67097722D01*
X124741076Y-67161227D01*
X124606304Y-67155749D01*
X124543866Y-66926710D01*
X124527030Y-66865750D01*
X124511852Y-66812329D01*
X124498977Y-66768592D01*
X124489052Y-66736686D01*
X124482720Y-66718758D01*
X124480628Y-66716367D01*
X124479735Y-66731092D01*
X124477709Y-66761342D01*
X124474764Y-66803994D01*
X124471118Y-66855925D01*
X124466986Y-66914011D01*
X124466076Y-66926710D01*
X124461896Y-66985880D01*
X124458213Y-67039731D01*
X124455236Y-67085090D01*
X124453172Y-67118788D01*
X124452226Y-67137654D01*
X124452189Y-67139389D01*
X124451079Y-67149593D01*
X124445441Y-67155818D01*
X124431575Y-67159045D01*
X124405780Y-67160252D01*
X124372734Y-67160423D01*
X124293415Y-67160423D01*
X124298871Y-67106669D01*
X124301044Y-67084484D01*
X124304695Y-67046324D01*
X124309574Y-66994827D01*
X124315434Y-66932636D01*
X124322023Y-66862391D01*
X124329095Y-66786734D01*
X124333910Y-66735064D01*
X124363493Y-66417214D01*
X124459357Y-66414548D01*
X124503131Y-66413675D01*
X124531767Y-66414301D01*
G37*
G36*
X127767776Y-66611822D02*
G01*
X127814570Y-66633636D01*
X127826232Y-66642469D01*
X127854481Y-66666240D01*
X127885086Y-66642927D01*
X127931598Y-66617207D01*
X127983051Y-66604768D01*
X128034875Y-66605520D01*
X128082500Y-66619376D01*
X128121356Y-66646248D01*
X128122584Y-66647510D01*
X128149403Y-66675480D01*
X128154255Y-66864197D01*
X128156208Y-66931024D01*
X128158355Y-66981903D01*
X128160966Y-67019582D01*
X128164313Y-67046810D01*
X128168668Y-67066336D01*
X128174303Y-67080909D01*
X128175979Y-67084166D01*
X128186081Y-67104693D01*
X128190092Y-67116629D01*
X128189824Y-67117580D01*
X128177723Y-67125309D01*
X128156482Y-67138179D01*
X128131375Y-67153078D01*
X128107679Y-67166896D01*
X128090669Y-67176522D01*
X128085453Y-67179120D01*
X128077832Y-67173017D01*
X128063526Y-67158316D01*
X128063315Y-67158086D01*
X128045646Y-67137038D01*
X128032721Y-67116009D01*
X128023816Y-67091630D01*
X128018206Y-67060529D01*
X128015168Y-67019334D01*
X128013979Y-66964676D01*
X128013850Y-66927782D01*
X128013292Y-66874973D01*
X128011753Y-66827196D01*
X128009434Y-66788287D01*
X128006538Y-66762083D01*
X128004732Y-66754370D01*
X127989051Y-66735413D01*
X127963417Y-66730532D01*
X127930350Y-66739878D01*
X127913353Y-66748985D01*
X127882970Y-66767509D01*
X127882970Y-67160423D01*
X127733744Y-67160423D01*
X127731232Y-66947744D01*
X127728719Y-66735064D01*
X127695999Y-66731916D01*
X127661242Y-66734870D01*
X127632896Y-66745074D01*
X127602514Y-66761380D01*
X127602514Y-67160423D01*
X127453808Y-67160423D01*
X127450990Y-66915024D01*
X127449956Y-66848495D01*
X127448494Y-66787656D01*
X127446710Y-66735153D01*
X127444709Y-66693636D01*
X127442596Y-66665752D01*
X127440661Y-66654450D01*
X127439534Y-66645449D01*
X127448413Y-66637761D01*
X127470426Y-66629529D01*
X127493868Y-66622840D01*
X127537570Y-66613215D01*
X127566119Y-66612443D01*
X127580908Y-66620665D01*
X127583816Y-66631937D01*
X127587769Y-66644463D01*
X127600876Y-66642939D01*
X127617649Y-66632738D01*
X127663830Y-66611117D01*
X127715701Y-66604230D01*
X127767776Y-66611822D01*
G37*
G36*
X127290284Y-66608433D02*
G01*
X127291569Y-66633500D01*
X127292641Y-66672158D01*
X127293441Y-66721853D01*
X127293911Y-66780033D01*
X127294011Y-66824176D01*
X127294231Y-66898983D01*
X127294978Y-66957495D01*
X127296387Y-67002109D01*
X127298591Y-67035220D01*
X127301723Y-67059227D01*
X127305918Y-67076527D01*
X127308457Y-67083414D01*
X127315811Y-67103867D01*
X127315750Y-67118672D01*
X127305783Y-67131464D01*
X127283419Y-67145877D01*
X127255502Y-67160721D01*
X127221668Y-67178253D01*
X127179384Y-67133245D01*
X127141552Y-67152545D01*
X127095416Y-67168669D01*
X127042686Y-67175729D01*
X126991611Y-67173112D01*
X126962866Y-67165805D01*
X126931501Y-67149630D01*
X126901664Y-67127433D01*
X126897427Y-67123410D01*
X126868653Y-67094647D01*
X126868653Y-66623047D01*
X126929418Y-66611696D01*
X126962346Y-66606427D01*
X126988652Y-66603814D01*
X127001869Y-66604309D01*
X127005849Y-66610264D01*
X127008891Y-66626254D01*
X127011089Y-66654027D01*
X127012536Y-66695331D01*
X127013326Y-66751911D01*
X127013555Y-66821712D01*
X127013891Y-66898046D01*
X127014946Y-66957054D01*
X127016786Y-67000098D01*
X127019480Y-67028539D01*
X127023096Y-67043736D01*
X127024773Y-67046371D01*
X127045643Y-67055884D01*
X127075405Y-67056952D01*
X127106578Y-67050160D01*
X127129151Y-67038214D01*
X127153783Y-67018838D01*
X127153783Y-66629055D01*
X127218731Y-66614283D01*
X127251413Y-66607003D01*
X127276385Y-66601727D01*
X127288586Y-66599522D01*
X127288846Y-66599510D01*
X127290284Y-66608433D01*
G37*
G36*
X124792573Y-67571229D02*
G01*
X124794962Y-67595564D01*
X124796758Y-67632237D01*
X124797781Y-67678070D01*
X124797950Y-67707313D01*
X124797950Y-67852216D01*
X124723161Y-67852216D01*
X124723161Y-67574096D01*
X124752375Y-67568254D01*
X124775297Y-67564145D01*
X124789693Y-67562411D01*
X124789770Y-67562411D01*
X124792573Y-67571229D01*
G37*
X133640000Y-108140000D02*
X133640000Y-107984000D01*
X133640000Y-110456000D02*
X133640000Y-110300000D01*
X130407665Y-110298608D02*
G75*
G03*
X133640000Y-110455516I1672335J1078608D01*
G01*
X131038870Y-110299837D02*
G75*
G03*
X133120961Y-110300000I1041130J1079837D01*
G01*
X133640000Y-107984484D02*
G75*
G03*
X130407665Y-108141392I-1560000J-1235516D01*
G01*
X133120961Y-108140000D02*
G75*
G03*
X131038870Y-108140163I-1040961J-1080000D01*
G01*
X143510000Y-81280000D02*
X143510000Y-71120000D01*
X142240000Y-71120000D02*
X142240000Y-81280000D01*
X135890000Y-71120000D02*
X135890000Y-81280000D01*
X143510000Y-71120000D02*
X135890000Y-71120000D01*
X135890000Y-81280000D02*
X143510000Y-81280000D01*
%LPC*%
D12*
X132080000Y-86360000D03*
D13*
X132080000Y-96520000D03*
D14*
X137160000Y-109220000D03*
D15*
X139700000Y-109220000D03*
X142240000Y-109220000D03*
D16*
X113165000Y-75835000D03*
X113165000Y-78375000D03*
X113165000Y-80915000D03*
X113165000Y-83455000D03*
X113165000Y-85995000D03*
X113165000Y-88535000D03*
X113165000Y-91075000D03*
X113165000Y-93615000D03*
X113165000Y-96155000D03*
X113165000Y-98695000D03*
X113165000Y-101235000D03*
X113165000Y-103775000D03*
X113165000Y-106315000D03*
X113165000Y-108855000D03*
X128405000Y-108855000D03*
X128405000Y-106315000D03*
X128405000Y-103775000D03*
X128405000Y-101235000D03*
X128405000Y-98695000D03*
X128405000Y-96155000D03*
X128405000Y-93615000D03*
X128405000Y-91075000D03*
X128405000Y-88535000D03*
X128405000Y-85995000D03*
X128405000Y-83455000D03*
X128405000Y-80915000D03*
X128405000Y-78375000D03*
X128405000Y-75835000D03*
D17*
X135900000Y-86355000D03*
D13*
X135900000Y-88895000D03*
X135900000Y-91435000D03*
X135900000Y-93975000D03*
X135900000Y-96515000D03*
X135900000Y-99055000D03*
X135900000Y-101595000D03*
X143520000Y-101595000D03*
X143520000Y-99055000D03*
X143520000Y-96515000D03*
X143520000Y-93975000D03*
X143520000Y-91435000D03*
X143520000Y-88895000D03*
X143520000Y-86355000D03*
D18*
X133350000Y-109220000D03*
D19*
X130810000Y-109220000D03*
D20*
X139700000Y-78740000D03*
D21*
X139700000Y-73660000D03*
M02*
